<mxfile host="65bd71144e">
    <diagram name="PÃ¡gina-1" id="F1LU-N5EgP87R9svg77U">
        <mxGraphModel dx="2796" dy="594" grid="1" gridSize="10" guides="1" tooltips="1" connect="1" arrows="1" fold="1" page="1" pageScale="1" pageWidth="827" pageHeight="1169" math="0" shadow="0">
            <root>
                <mxCell id="0"/>
                <mxCell id="1" parent="0"/>
                <mxCell id="lf-P9dJ_xv8n2HS4JSEs-1" value="Z" style="strokeWidth=1;shadow=0;dashed=0;align=center;html=1;shape=mxgraph.mockup.containers.browserWindow;rSize=0;strokeColor=#666666;strokeColor2=#008cff;strokeColor3=#c4c4c4;mainText=,;recursiveResize=0;" parent="1" vertex="1">
                    <mxGeometry x="-1400" y="20" width="960" height="700" as="geometry"/>
                </mxCell>
                <mxCell id="lf-P9dJ_xv8n2HS4JSEs-2" value="Page 1" style="strokeWidth=1;shadow=0;dashed=0;align=center;html=1;shape=mxgraph.mockup.containers.anchor;fontSize=17;fontColor=#666666;align=left;whiteSpace=wrap;" parent="lf-P9dJ_xv8n2HS4JSEs-1" vertex="1">
                    <mxGeometry x="60" y="12" width="110" height="26" as="geometry"/>
                </mxCell>
                <mxCell id="lf-P9dJ_xv8n2HS4JSEs-3" value="https://www.draw.io" style="strokeWidth=1;shadow=0;dashed=0;align=center;html=1;shape=mxgraph.mockup.containers.anchor;rSize=0;fontSize=17;fontColor=#666666;align=left;" parent="lf-P9dJ_xv8n2HS4JSEs-1" vertex="1">
                    <mxGeometry x="130" y="60" width="250" height="26" as="geometry"/>
                </mxCell>
                <mxCell id="lf-P9dJ_xv8n2HS4JSEs-11" value="Navbar" style="html=1;shadow=0;dashed=0;fillColor=#F8F9FA;strokeColor=none;fontSize=16;fontColor=#181819;align=left;spacing=15;" parent="lf-P9dJ_xv8n2HS4JSEs-1" vertex="1">
                    <mxGeometry y="110" width="960" height="60" as="geometry"/>
                </mxCell>
                <mxCell id="lf-P9dJ_xv8n2HS4JSEs-12" value="Home" style="fillColor=none;strokeColor=none;fontSize=14;fontColor=#181819;align=center;" parent="lf-P9dJ_xv8n2HS4JSEs-11" vertex="1">
                    <mxGeometry width="70" height="40" relative="1" as="geometry">
                        <mxPoint x="70" y="10" as="offset"/>
                    </mxGeometry>
                </mxCell>
                <mxCell id="lf-P9dJ_xv8n2HS4JSEs-14" value="Mi Cuenta" style="fillColor=none;strokeColor=none;fontSize=14;fontColor=#7C7C7D;align=right;spacingRight=20;" parent="lf-P9dJ_xv8n2HS4JSEs-11" vertex="1">
                    <mxGeometry width="100" height="40" relative="1" as="geometry">
                        <mxPoint x="136" y="10" as="offset"/>
                    </mxGeometry>
                </mxCell>
                <mxCell id="lf-P9dJ_xv8n2HS4JSEs-15" value="" style="shape=triangle;direction=south;fillColor=#7C7C7D;strokeColor=none;perimeter=none;" parent="lf-P9dJ_xv8n2HS4JSEs-14" vertex="1">
                    <mxGeometry x="1" y="0.5" width="10" height="5" relative="1" as="geometry">
                        <mxPoint x="-17" y="-2.5" as="offset"/>
                    </mxGeometry>
                </mxCell>
                <mxCell id="lf-P9dJ_xv8n2HS4JSEs-17" value="Login" style="html=1;shadow=0;dashed=0;shape=mxgraph.bootstrap.rrect;rSize=5;fontSize=14;fontColor=#33A64C;strokeColor=#33A64C;fillColor=none;" parent="lf-P9dJ_xv8n2HS4JSEs-11" vertex="1">
                    <mxGeometry x="1" width="70" height="40" relative="1" as="geometry">
                        <mxPoint x="-80" y="10" as="offset"/>
                    </mxGeometry>
                </mxCell>
                <mxCell id="lf-P9dJ_xv8n2HS4JSEs-20" value="chat" style="html=1;shadow=0;dashed=0;shape=mxgraph.bootstrap.rrect;rSize=5;fontSize=14;fontColor=#33A64C;strokeColor=#33A64C;fillColor=none;" parent="lf-P9dJ_xv8n2HS4JSEs-11" vertex="1">
                    <mxGeometry x="796" y="10" width="70" height="40" as="geometry"/>
                </mxCell>
                <mxCell id="lf-P9dJ_xv8n2HS4JSEs-21" value="Compras y Ventas" style="fillColor=none;strokeColor=none;fontSize=14;fontColor=#7C7C7D;align=right;spacingRight=20;" parent="lf-P9dJ_xv8n2HS4JSEs-11" vertex="1">
                    <mxGeometry x="240" y="10" width="146" height="40" as="geometry"/>
                </mxCell>
                <mxCell id="lf-P9dJ_xv8n2HS4JSEs-22" value="" style="shape=triangle;direction=south;fillColor=#7C7C7D;strokeColor=none;perimeter=none;" parent="lf-P9dJ_xv8n2HS4JSEs-21" vertex="1">
                    <mxGeometry x="1" y="0.5" width="10" height="5" relative="1" as="geometry">
                        <mxPoint x="-17" y="-2.5" as="offset"/>
                    </mxGeometry>
                </mxCell>
                <mxCell id="lf-P9dJ_xv8n2HS4JSEs-43" value="Articulos" style="fillColor=none;strokeColor=none;fontSize=14;fontColor=#7C7C7D;align=right;spacingRight=20;" parent="lf-P9dJ_xv8n2HS4JSEs-11" vertex="1">
                    <mxGeometry x="394" y="10" width="86" height="40" as="geometry"/>
                </mxCell>
                <mxCell id="lf-P9dJ_xv8n2HS4JSEs-44" value="" style="shape=triangle;direction=south;fillColor=#7C7C7D;strokeColor=none;perimeter=none;" parent="lf-P9dJ_xv8n2HS4JSEs-43" vertex="1">
                    <mxGeometry x="1" y="0.5" width="10" height="5" relative="1" as="geometry">
                        <mxPoint x="-17" y="-2.5" as="offset"/>
                    </mxGeometry>
                </mxCell>
                <mxCell id="lf-P9dJ_xv8n2HS4JSEs-45" value="&lt;b&gt;&lt;font style=&quot;font-size: 20px&quot;&gt;Producto 1&lt;/font&gt;&lt;/b&gt;&lt;br&gt;&lt;br&gt;This is a wider card with supporting text below as a natural lead-in to additional content. This content is a little bit longer." style="html=1;shadow=0;dashed=0;shape=mxgraph.bootstrap.rrect;rSize=5;strokeColor=#DFDFDF;html=1;whiteSpace=wrap;fillColor=#ffffff;fontColor=#000000;verticalAlign=top;align=left;spacing=20;spacingBottom=0;fontSize=14;spacingTop=160;" parent="lf-P9dJ_xv8n2HS4JSEs-1" vertex="1">
                    <mxGeometry width="260" height="340" relative="1" as="geometry">
                        <mxPoint x="70" y="270" as="offset"/>
                    </mxGeometry>
                </mxCell>
                <mxCell id="lf-P9dJ_xv8n2HS4JSEs-46" value="Image cap" style="html=1;shadow=0;dashed=0;shape=mxgraph.bootstrap.topButton;rSize=5;perimeter=none;whiteSpace=wrap;fillColor=#868E96;strokeColor=#DFDFDF;fontColor=#DEE2E6;resizeWidth=1;fontSize=18;" parent="lf-P9dJ_xv8n2HS4JSEs-45" vertex="1">
                    <mxGeometry width="260" height="160" relative="1" as="geometry"/>
                </mxCell>
                <mxCell id="lf-P9dJ_xv8n2HS4JSEs-58" value="ver" style="html=1;shadow=0;dashed=0;shape=mxgraph.bootstrap.rrect;rSize=5;strokeColor=#0085FC;strokeWidth=1;fillColor=none;fontColor=#0085FC;whiteSpace=wrap;align=center;verticalAlign=middle;spacingLeft=0;fontStyle=0;fontSize=16;spacing=5;" parent="lf-P9dJ_xv8n2HS4JSEs-45" vertex="1">
                    <mxGeometry x="18" y="299.5675675675676" width="50" height="27.56756756756757" as="geometry"/>
                </mxCell>
                <mxCell id="lf-P9dJ_xv8n2HS4JSEs-48" value="&lt;b&gt;&lt;font style=&quot;font-size: 20px;&quot;&gt;Producto 2&lt;/font&gt;&lt;/b&gt;&lt;div&gt;&lt;br&gt;This card has supporting text below as a natural lead-in to additional content.&lt;/div&gt;" style="html=1;shadow=0;dashed=0;shape=mxgraph.bootstrap.rrect;rSize=5;strokeColor=#DFDFDF;html=1;whiteSpace=wrap;fillColor=#ffffff;fontColor=#000000;verticalAlign=top;align=left;spacing=20;spacingBottom=0;fontSize=14;spacingTop=160;" parent="lf-P9dJ_xv8n2HS4JSEs-1" vertex="1">
                    <mxGeometry x="350" y="270" width="260" height="340" as="geometry"/>
                </mxCell>
                <mxCell id="lf-P9dJ_xv8n2HS4JSEs-49" value="Image cap" style="html=1;shadow=0;dashed=0;shape=mxgraph.bootstrap.topButton;rSize=5;perimeter=none;whiteSpace=wrap;fillColor=#868E96;strokeColor=#DFDFDF;fontColor=#DEE2E6;resizeWidth=1;fontSize=18;" parent="lf-P9dJ_xv8n2HS4JSEs-48" vertex="1">
                    <mxGeometry width="260" height="160" relative="1" as="geometry"/>
                </mxCell>
                <mxCell id="lf-P9dJ_xv8n2HS4JSEs-59" value="ver" style="html=1;shadow=0;dashed=0;shape=mxgraph.bootstrap.rrect;rSize=5;strokeColor=#0085FC;strokeWidth=1;fillColor=none;fontColor=#0085FC;whiteSpace=wrap;align=center;verticalAlign=middle;spacingLeft=0;fontStyle=0;fontSize=16;spacing=5;" parent="lf-P9dJ_xv8n2HS4JSEs-48" vertex="1">
                    <mxGeometry x="20" y="300.4864864864865" width="50" height="27.56756756756757" as="geometry"/>
                </mxCell>
                <mxCell id="lf-P9dJ_xv8n2HS4JSEs-54" value="&lt;b&gt;&lt;font style=&quot;font-size: 20px;&quot;&gt;Producto 3&lt;/font&gt;&lt;/b&gt;&lt;div&gt;&lt;div&gt;&lt;br&gt;This card has supporting text below as a natural lead-in to additional content.&lt;/div&gt;&lt;/div&gt;" style="html=1;shadow=0;dashed=0;shape=mxgraph.bootstrap.rrect;rSize=5;strokeColor=#DFDFDF;html=1;whiteSpace=wrap;fillColor=#ffffff;fontColor=#000000;verticalAlign=top;align=left;spacing=20;spacingBottom=0;fontSize=14;spacingTop=160;" parent="lf-P9dJ_xv8n2HS4JSEs-1" vertex="1">
                    <mxGeometry x="630" y="270" width="260" height="340" as="geometry"/>
                </mxCell>
                <mxCell id="lf-P9dJ_xv8n2HS4JSEs-55" value="Image cap" style="html=1;shadow=0;dashed=0;shape=mxgraph.bootstrap.topButton;rSize=5;perimeter=none;whiteSpace=wrap;fillColor=#868E96;strokeColor=#DFDFDF;fontColor=#DEE2E6;resizeWidth=1;fontSize=18;" parent="lf-P9dJ_xv8n2HS4JSEs-54" vertex="1">
                    <mxGeometry width="260" height="160" relative="1" as="geometry"/>
                </mxCell>
                <mxCell id="lf-P9dJ_xv8n2HS4JSEs-57" value="ver" style="html=1;shadow=0;dashed=0;shape=mxgraph.bootstrap.rrect;rSize=5;strokeColor=#0085FC;strokeWidth=1;fillColor=none;fontColor=#0085FC;whiteSpace=wrap;align=center;verticalAlign=middle;spacingLeft=0;fontStyle=0;fontSize=16;spacing=5;" parent="lf-P9dJ_xv8n2HS4JSEs-54" vertex="1">
                    <mxGeometry x="20" y="300.4864864864865" width="50" height="27.56756756756757" as="geometry"/>
                </mxCell>
                <mxCell id="lf-P9dJ_xv8n2HS4JSEs-4" value="" style="html=1;shadow=0;dashed=0;shape=mxgraph.bootstrap.rrect;rSize=5;strokeColor=#DEE2E6;html=1;whiteSpace=wrap;fillColor=#ffffff;fontColor=#0085FC;fontSize=14;" parent="lf-P9dJ_xv8n2HS4JSEs-1" vertex="1">
                    <mxGeometry x="370" y="650" width="220" height="30" as="geometry"/>
                </mxCell>
                <mxCell id="lf-P9dJ_xv8n2HS4JSEs-5" value="Previous" style="strokeColor=inherit;fillColor=inherit;gradientColor=inherit;fontColor=inherit;html=1;shadow=0;dashed=0;shape=mxgraph.bootstrap.leftButton;rSize=5;perimeter=none;whiteSpace=wrap;resizeHeight=1;fontSize=14;" parent="lf-P9dJ_xv8n2HS4JSEs-4" vertex="1">
                    <mxGeometry width="70" height="30" relative="1" as="geometry"/>
                </mxCell>
                <mxCell id="lf-P9dJ_xv8n2HS4JSEs-6" value="1" style="strokeColor=inherit;fillColor=inherit;gradientColor=inherit;fontColor=inherit;html=1;shadow=0;dashed=0;perimeter=none;whiteSpace=wrap;resizeHeight=1;fontSize=14;" parent="lf-P9dJ_xv8n2HS4JSEs-4" vertex="1">
                    <mxGeometry width="30" height="30" relative="1" as="geometry">
                        <mxPoint x="70" as="offset"/>
                    </mxGeometry>
                </mxCell>
                <mxCell id="lf-P9dJ_xv8n2HS4JSEs-7" value="2" style="strokeColor=inherit;fillColor=inherit;gradientColor=inherit;fontColor=inherit;html=1;shadow=0;dashed=0;perimeter=none;whiteSpace=wrap;resizeHeight=1;fontSize=14;" parent="lf-P9dJ_xv8n2HS4JSEs-4" vertex="1">
                    <mxGeometry width="30" height="30" relative="1" as="geometry">
                        <mxPoint x="100" as="offset"/>
                    </mxGeometry>
                </mxCell>
                <mxCell id="lf-P9dJ_xv8n2HS4JSEs-8" value="3" style="strokeColor=inherit;fillColor=inherit;gradientColor=inherit;fontColor=inherit;html=1;shadow=0;dashed=0;perimeter=none;whiteSpace=wrap;resizeHeight=1;fontSize=14;" parent="lf-P9dJ_xv8n2HS4JSEs-4" vertex="1">
                    <mxGeometry width="30" height="30" relative="1" as="geometry">
                        <mxPoint x="130" as="offset"/>
                    </mxGeometry>
                </mxCell>
                <mxCell id="lf-P9dJ_xv8n2HS4JSEs-9" value="Next" style="strokeColor=inherit;fillColor=inherit;gradientColor=inherit;fontColor=inherit;html=1;shadow=0;dashed=0;shape=mxgraph.bootstrap.rightButton;rSize=5;perimeter=none;whiteSpace=wrap;resizeHeight=1;fontSize=14;" parent="lf-P9dJ_xv8n2HS4JSEs-4" vertex="1">
                    <mxGeometry x="1" width="60" height="30" relative="1" as="geometry">
                        <mxPoint x="-60" as="offset"/>
                    </mxGeometry>
                </mxCell>
                <mxCell id="30" value="" style="html=1;shadow=0;dashed=0;shape=mxgraph.bootstrap.rrect;rSize=5;strokeColor=#CED4DA;html=1;whiteSpace=wrap;fillColor=#FFFFFF;fontColor=#7D868C;align=left;spacing=15;spacingLeft=40;fontSize=14;" parent="lf-P9dJ_xv8n2HS4JSEs-1" vertex="1">
                    <mxGeometry x="70" y="190" width="800" height="40" as="geometry"/>
                </mxCell>
                <mxCell id="33" value="Action" style="html=1;shadow=0;dashed=0;strokeColor=#6C757D;gradientColor=inherit;fontColor=inherit;fillColor=inherit;perimeter=none;whiteSpace=wrap;resizeHeight=1;fontSize=14;" parent="30" vertex="1">
                    <mxGeometry x="1" width="70" height="40" relative="1" as="geometry">
                        <mxPoint x="-70" as="offset"/>
                    </mxGeometry>
                </mxCell>
                <mxCell id="34" value="Z" style="strokeWidth=1;shadow=0;dashed=0;align=center;html=1;shape=mxgraph.mockup.containers.browserWindow;rSize=0;strokeColor=#666666;strokeColor2=#008cff;strokeColor3=#c4c4c4;mainText=,;recursiveResize=0;" parent="1" vertex="1">
                    <mxGeometry x="-390" y="20" width="960" height="700" as="geometry"/>
                </mxCell>
                <mxCell id="35" value="Page 1" style="strokeWidth=1;shadow=0;dashed=0;align=center;html=1;shape=mxgraph.mockup.containers.anchor;fontSize=17;fontColor=#666666;align=left;whiteSpace=wrap;" parent="34" vertex="1">
                    <mxGeometry x="60" y="12" width="110" height="26" as="geometry"/>
                </mxCell>
                <mxCell id="36" value="https://www.draw.io" style="strokeWidth=1;shadow=0;dashed=0;align=center;html=1;shape=mxgraph.mockup.containers.anchor;rSize=0;fontSize=17;fontColor=#666666;align=left;" parent="34" vertex="1">
                    <mxGeometry x="130" y="60" width="250" height="26" as="geometry"/>
                </mxCell>
                <mxCell id="37" value="Navbar" style="html=1;shadow=0;dashed=0;fillColor=#F8F9FA;strokeColor=none;fontSize=16;fontColor=#181819;align=left;spacing=15;" parent="34" vertex="1">
                    <mxGeometry y="110" width="960" height="60" as="geometry"/>
                </mxCell>
                <mxCell id="38" value="Home" style="fillColor=none;strokeColor=none;fontSize=14;fontColor=#181819;align=center;" parent="37" vertex="1">
                    <mxGeometry width="70" height="40" relative="1" as="geometry">
                        <mxPoint x="70" y="10" as="offset"/>
                    </mxGeometry>
                </mxCell>
                <mxCell id="39" value="Mi Cuenta" style="fillColor=none;strokeColor=none;fontSize=14;fontColor=#7C7C7D;align=right;spacingRight=20;" parent="37" vertex="1">
                    <mxGeometry width="100" height="40" relative="1" as="geometry">
                        <mxPoint x="136" y="10" as="offset"/>
                    </mxGeometry>
                </mxCell>
                <mxCell id="40" value="" style="shape=triangle;direction=south;fillColor=#7C7C7D;strokeColor=none;perimeter=none;" parent="39" vertex="1">
                    <mxGeometry x="1" y="0.5" width="10" height="5" relative="1" as="geometry">
                        <mxPoint x="-17" y="-2.5" as="offset"/>
                    </mxGeometry>
                </mxCell>
                <mxCell id="41" value="Login" style="html=1;shadow=0;dashed=0;shape=mxgraph.bootstrap.rrect;rSize=5;fontSize=14;fontColor=#33A64C;strokeColor=#33A64C;fillColor=none;" parent="37" vertex="1">
                    <mxGeometry x="1" width="70" height="40" relative="1" as="geometry">
                        <mxPoint x="-80" y="10" as="offset"/>
                    </mxGeometry>
                </mxCell>
                <mxCell id="42" value="chat" style="html=1;shadow=0;dashed=0;shape=mxgraph.bootstrap.rrect;rSize=5;fontSize=14;fontColor=#33A64C;strokeColor=#33A64C;fillColor=none;" parent="37" vertex="1">
                    <mxGeometry x="796" y="10" width="70" height="40" as="geometry"/>
                </mxCell>
                <mxCell id="43" value="Compras y Ventas" style="fillColor=none;strokeColor=none;fontSize=14;fontColor=#7C7C7D;align=right;spacingRight=20;" parent="37" vertex="1">
                    <mxGeometry x="240" y="10" width="146" height="40" as="geometry"/>
                </mxCell>
                <mxCell id="44" value="" style="shape=triangle;direction=south;fillColor=#7C7C7D;strokeColor=none;perimeter=none;" parent="43" vertex="1">
                    <mxGeometry x="1" y="0.5" width="10" height="5" relative="1" as="geometry">
                        <mxPoint x="-17" y="-2.5" as="offset"/>
                    </mxGeometry>
                </mxCell>
                <mxCell id="45" value="Articulos" style="fillColor=none;strokeColor=none;fontSize=14;fontColor=#7C7C7D;align=right;spacingRight=20;" parent="37" vertex="1">
                    <mxGeometry x="394" y="10" width="86" height="40" as="geometry"/>
                </mxCell>
                <mxCell id="46" value="" style="shape=triangle;direction=south;fillColor=#7C7C7D;strokeColor=none;perimeter=none;" parent="45" vertex="1">
                    <mxGeometry x="1" y="0.5" width="10" height="5" relative="1" as="geometry">
                        <mxPoint x="-17" y="-2.5" as="offset"/>
                    </mxGeometry>
                </mxCell>
                <mxCell id="581" value="Aceptar Publicacion" style="fillColor=none;strokeColor=none;fontSize=14;fontColor=#9A9DA0;align=center;" vertex="1" parent="37">
                    <mxGeometry x="580" y="10" width="150" height="40" as="geometry"/>
                </mxCell>
                <mxCell id="582" value="Usuarios" style="fillColor=none;strokeColor=none;fontSize=14;fontColor=#7C7C7D;align=right;spacingRight=20;" vertex="1" parent="37">
                    <mxGeometry x="490" y="10" width="86" height="40" as="geometry"/>
                </mxCell>
                <mxCell id="583" value="" style="shape=triangle;direction=south;fillColor=#7C7C7D;strokeColor=none;perimeter=none;" vertex="1" parent="582">
                    <mxGeometry x="1" y="0.5" width="10" height="5" relative="1" as="geometry">
                        <mxPoint x="-17" y="-2.5" as="offset"/>
                    </mxGeometry>
                </mxCell>
                <mxCell id="47" value="&lt;b&gt;&lt;font style=&quot;font-size: 20px&quot;&gt;Producto 1&lt;/font&gt;&lt;/b&gt;&lt;br&gt;&lt;br&gt;This is a wider card with supporting text below as a natural lead-in to additional content. This content is a little bit longer." style="html=1;shadow=0;dashed=0;shape=mxgraph.bootstrap.rrect;rSize=5;strokeColor=#DFDFDF;html=1;whiteSpace=wrap;fillColor=#ffffff;fontColor=#000000;verticalAlign=top;align=left;spacing=20;spacingBottom=0;fontSize=14;spacingTop=160;" parent="34" vertex="1">
                    <mxGeometry width="260" height="340" relative="1" as="geometry">
                        <mxPoint x="70" y="270" as="offset"/>
                    </mxGeometry>
                </mxCell>
                <mxCell id="48" value="Image cap" style="html=1;shadow=0;dashed=0;shape=mxgraph.bootstrap.topButton;rSize=5;perimeter=none;whiteSpace=wrap;fillColor=#868E96;strokeColor=#DFDFDF;fontColor=#DEE2E6;resizeWidth=1;fontSize=18;" parent="47" vertex="1">
                    <mxGeometry width="260" height="160" relative="1" as="geometry"/>
                </mxCell>
                <mxCell id="49" value="ver" style="html=1;shadow=0;dashed=0;shape=mxgraph.bootstrap.rrect;rSize=5;strokeColor=#0085FC;strokeWidth=1;fillColor=none;fontColor=#0085FC;whiteSpace=wrap;align=center;verticalAlign=middle;spacingLeft=0;fontStyle=0;fontSize=16;spacing=5;" parent="47" vertex="1">
                    <mxGeometry x="18" y="299.5675675675676" width="50" height="27.56756756756757" as="geometry"/>
                </mxCell>
                <mxCell id="50" value="&lt;b&gt;&lt;font style=&quot;font-size: 20px;&quot;&gt;Producto 2&lt;/font&gt;&lt;/b&gt;&lt;div&gt;&lt;br&gt;This card has supporting text below as a natural lead-in to additional content.&lt;/div&gt;" style="html=1;shadow=0;dashed=0;shape=mxgraph.bootstrap.rrect;rSize=5;strokeColor=#DFDFDF;html=1;whiteSpace=wrap;fillColor=#ffffff;fontColor=#000000;verticalAlign=top;align=left;spacing=20;spacingBottom=0;fontSize=14;spacingTop=160;" parent="34" vertex="1">
                    <mxGeometry x="350" y="270" width="260" height="340" as="geometry"/>
                </mxCell>
                <mxCell id="51" value="Image cap" style="html=1;shadow=0;dashed=0;shape=mxgraph.bootstrap.topButton;rSize=5;perimeter=none;whiteSpace=wrap;fillColor=#868E96;strokeColor=#DFDFDF;fontColor=#DEE2E6;resizeWidth=1;fontSize=18;" parent="50" vertex="1">
                    <mxGeometry width="260" height="160" relative="1" as="geometry"/>
                </mxCell>
                <mxCell id="52" value="ver" style="html=1;shadow=0;dashed=0;shape=mxgraph.bootstrap.rrect;rSize=5;strokeColor=#0085FC;strokeWidth=1;fillColor=none;fontColor=#0085FC;whiteSpace=wrap;align=center;verticalAlign=middle;spacingLeft=0;fontStyle=0;fontSize=16;spacing=5;" parent="50" vertex="1">
                    <mxGeometry x="20" y="300.4864864864865" width="50" height="27.56756756756757" as="geometry"/>
                </mxCell>
                <mxCell id="53" value="&lt;b&gt;&lt;font style=&quot;font-size: 20px;&quot;&gt;Producto 3&lt;/font&gt;&lt;/b&gt;&lt;div&gt;&lt;div&gt;&lt;br&gt;This card has supporting text below as a natural lead-in to additional content.&lt;/div&gt;&lt;/div&gt;" style="html=1;shadow=0;dashed=0;shape=mxgraph.bootstrap.rrect;rSize=5;strokeColor=#DFDFDF;html=1;whiteSpace=wrap;fillColor=#ffffff;fontColor=#000000;verticalAlign=top;align=left;spacing=20;spacingBottom=0;fontSize=14;spacingTop=160;" parent="34" vertex="1">
                    <mxGeometry x="630" y="270" width="260" height="340" as="geometry"/>
                </mxCell>
                <mxCell id="54" value="Image cap" style="html=1;shadow=0;dashed=0;shape=mxgraph.bootstrap.topButton;rSize=5;perimeter=none;whiteSpace=wrap;fillColor=#868E96;strokeColor=#DFDFDF;fontColor=#DEE2E6;resizeWidth=1;fontSize=18;" parent="53" vertex="1">
                    <mxGeometry width="260" height="160" relative="1" as="geometry"/>
                </mxCell>
                <mxCell id="55" value="ver" style="html=1;shadow=0;dashed=0;shape=mxgraph.bootstrap.rrect;rSize=5;strokeColor=#0085FC;strokeWidth=1;fillColor=none;fontColor=#0085FC;whiteSpace=wrap;align=center;verticalAlign=middle;spacingLeft=0;fontStyle=0;fontSize=16;spacing=5;" parent="53" vertex="1">
                    <mxGeometry x="20" y="300.4864864864865" width="50" height="27.56756756756757" as="geometry"/>
                </mxCell>
                <mxCell id="56" value="" style="html=1;shadow=0;dashed=0;shape=mxgraph.bootstrap.rrect;rSize=5;strokeColor=#DEE2E6;html=1;whiteSpace=wrap;fillColor=#ffffff;fontColor=#0085FC;fontSize=14;" parent="34" vertex="1">
                    <mxGeometry x="370" y="650" width="220" height="30" as="geometry"/>
                </mxCell>
                <mxCell id="57" value="Previous" style="strokeColor=inherit;fillColor=inherit;gradientColor=inherit;fontColor=inherit;html=1;shadow=0;dashed=0;shape=mxgraph.bootstrap.leftButton;rSize=5;perimeter=none;whiteSpace=wrap;resizeHeight=1;fontSize=14;" parent="56" vertex="1">
                    <mxGeometry width="70" height="30" relative="1" as="geometry"/>
                </mxCell>
                <mxCell id="58" value="1" style="strokeColor=inherit;fillColor=inherit;gradientColor=inherit;fontColor=inherit;html=1;shadow=0;dashed=0;perimeter=none;whiteSpace=wrap;resizeHeight=1;fontSize=14;" parent="56" vertex="1">
                    <mxGeometry width="30" height="30" relative="1" as="geometry">
                        <mxPoint x="70" as="offset"/>
                    </mxGeometry>
                </mxCell>
                <mxCell id="59" value="2" style="strokeColor=inherit;fillColor=inherit;gradientColor=inherit;fontColor=inherit;html=1;shadow=0;dashed=0;perimeter=none;whiteSpace=wrap;resizeHeight=1;fontSize=14;" parent="56" vertex="1">
                    <mxGeometry width="30" height="30" relative="1" as="geometry">
                        <mxPoint x="100" as="offset"/>
                    </mxGeometry>
                </mxCell>
                <mxCell id="60" value="3" style="strokeColor=inherit;fillColor=inherit;gradientColor=inherit;fontColor=inherit;html=1;shadow=0;dashed=0;perimeter=none;whiteSpace=wrap;resizeHeight=1;fontSize=14;" parent="56" vertex="1">
                    <mxGeometry width="30" height="30" relative="1" as="geometry">
                        <mxPoint x="130" as="offset"/>
                    </mxGeometry>
                </mxCell>
                <mxCell id="61" value="Next" style="strokeColor=inherit;fillColor=inherit;gradientColor=inherit;fontColor=inherit;html=1;shadow=0;dashed=0;shape=mxgraph.bootstrap.rightButton;rSize=5;perimeter=none;whiteSpace=wrap;resizeHeight=1;fontSize=14;" parent="56" vertex="1">
                    <mxGeometry x="1" width="60" height="30" relative="1" as="geometry">
                        <mxPoint x="-60" as="offset"/>
                    </mxGeometry>
                </mxCell>
                <mxCell id="62" value="" style="html=1;shadow=0;dashed=0;shape=mxgraph.bootstrap.rrect;rSize=5;strokeColor=#CED4DA;html=1;whiteSpace=wrap;fillColor=#FFFFFF;fontColor=#7D868C;align=left;spacing=15;spacingLeft=40;fontSize=14;" parent="34" vertex="1">
                    <mxGeometry x="70" y="190" width="800" height="40" as="geometry"/>
                </mxCell>
                <mxCell id="63" value="Action" style="html=1;shadow=0;dashed=0;strokeColor=#6C757D;gradientColor=inherit;fontColor=inherit;fillColor=inherit;perimeter=none;whiteSpace=wrap;resizeHeight=1;fontSize=14;" parent="62" vertex="1">
                    <mxGeometry x="1" width="70" height="40" relative="1" as="geometry">
                        <mxPoint x="-70" as="offset"/>
                    </mxGeometry>
                </mxCell>
                <mxCell id="64" value="" style="strokeWidth=1;shadow=0;dashed=0;align=center;html=1;shape=mxgraph.mockup.containers.browserWindow;rSize=0;strokeColor=#666666;strokeColor2=#008cff;strokeColor3=#c4c4c4;mainText=,;recursiveResize=0;" parent="1" vertex="1">
                    <mxGeometry x="-1400" y="790" width="960" height="850" as="geometry"/>
                </mxCell>
                <mxCell id="65" value="Page 1" style="strokeWidth=1;shadow=0;dashed=0;align=center;html=1;shape=mxgraph.mockup.containers.anchor;fontSize=17;fontColor=#666666;align=left;whiteSpace=wrap;" parent="64" vertex="1">
                    <mxGeometry x="60" y="12" width="110" height="26" as="geometry"/>
                </mxCell>
                <mxCell id="66" value="https://www.draw.io" style="strokeWidth=1;shadow=0;dashed=0;align=center;html=1;shape=mxgraph.mockup.containers.anchor;rSize=0;fontSize=17;fontColor=#666666;align=left;" parent="64" vertex="1">
                    <mxGeometry x="130" y="60" width="250" height="26" as="geometry"/>
                </mxCell>
                <mxCell id="67" value="Navbar" style="html=1;shadow=0;dashed=0;fillColor=#F8F9FA;strokeColor=none;fontSize=16;fontColor=#181819;align=left;spacing=15;" parent="64" vertex="1">
                    <mxGeometry y="110" width="960" height="60" as="geometry"/>
                </mxCell>
                <mxCell id="68" value="Home" style="fillColor=none;strokeColor=none;fontSize=14;fontColor=#181819;align=center;" parent="67" vertex="1">
                    <mxGeometry width="70" height="40" relative="1" as="geometry">
                        <mxPoint x="70" y="10" as="offset"/>
                    </mxGeometry>
                </mxCell>
                <mxCell id="69" value="Mi Cuenta" style="fillColor=none;strokeColor=none;fontSize=14;fontColor=#7C7C7D;align=right;spacingRight=20;" parent="67" vertex="1">
                    <mxGeometry width="100" height="40" relative="1" as="geometry">
                        <mxPoint x="136" y="10" as="offset"/>
                    </mxGeometry>
                </mxCell>
                <mxCell id="70" value="" style="shape=triangle;direction=south;fillColor=#7C7C7D;strokeColor=none;perimeter=none;" parent="69" vertex="1">
                    <mxGeometry x="1" y="0.5" width="10" height="5" relative="1" as="geometry">
                        <mxPoint x="-17" y="-2.5" as="offset"/>
                    </mxGeometry>
                </mxCell>
                <mxCell id="71" value="Login" style="html=1;shadow=0;dashed=0;shape=mxgraph.bootstrap.rrect;rSize=5;fontSize=14;fontColor=#33A64C;strokeColor=#33A64C;fillColor=none;" parent="67" vertex="1">
                    <mxGeometry x="1" width="70" height="40" relative="1" as="geometry">
                        <mxPoint x="-80" y="10" as="offset"/>
                    </mxGeometry>
                </mxCell>
                <mxCell id="72" value="chat" style="html=1;shadow=0;dashed=0;shape=mxgraph.bootstrap.rrect;rSize=5;fontSize=14;fontColor=#33A64C;strokeColor=#33A64C;fillColor=none;" parent="67" vertex="1">
                    <mxGeometry x="796" y="10" width="70" height="40" as="geometry"/>
                </mxCell>
                <mxCell id="73" value="Compras y Ventas" style="fillColor=none;strokeColor=none;fontSize=14;fontColor=#7C7C7D;align=right;spacingRight=20;" parent="67" vertex="1">
                    <mxGeometry x="240" y="10" width="146" height="40" as="geometry"/>
                </mxCell>
                <mxCell id="74" value="" style="shape=triangle;direction=south;fillColor=#7C7C7D;strokeColor=none;perimeter=none;" parent="73" vertex="1">
                    <mxGeometry x="1" y="0.5" width="10" height="5" relative="1" as="geometry">
                        <mxPoint x="-17" y="-2.5" as="offset"/>
                    </mxGeometry>
                </mxCell>
                <mxCell id="75" value="Articulos" style="fillColor=none;strokeColor=none;fontSize=14;fontColor=#7C7C7D;align=right;spacingRight=20;" parent="67" vertex="1">
                    <mxGeometry x="394" y="10" width="86" height="40" as="geometry"/>
                </mxCell>
                <mxCell id="76" value="" style="shape=triangle;direction=south;fillColor=#7C7C7D;strokeColor=none;perimeter=none;" parent="75" vertex="1">
                    <mxGeometry x="1" y="0.5" width="10" height="5" relative="1" as="geometry">
                        <mxPoint x="-17" y="-2.5" as="offset"/>
                    </mxGeometry>
                </mxCell>
                <mxCell id="86" value="" style="html=1;shadow=0;dashed=0;shape=mxgraph.bootstrap.rrect;rSize=5;strokeColor=#DEE2E6;html=1;whiteSpace=wrap;fillColor=#ffffff;fontColor=#0085FC;fontSize=14;" parent="64" vertex="1">
                    <mxGeometry x="370" y="800" width="220" height="30" as="geometry"/>
                </mxCell>
                <mxCell id="87" value="Previous" style="strokeColor=inherit;fillColor=inherit;gradientColor=inherit;fontColor=inherit;html=1;shadow=0;dashed=0;shape=mxgraph.bootstrap.leftButton;rSize=5;perimeter=none;whiteSpace=wrap;resizeHeight=1;fontSize=14;" parent="86" vertex="1">
                    <mxGeometry width="70" height="30" relative="1" as="geometry"/>
                </mxCell>
                <mxCell id="88" value="1" style="strokeColor=inherit;fillColor=inherit;gradientColor=inherit;fontColor=inherit;html=1;shadow=0;dashed=0;perimeter=none;whiteSpace=wrap;resizeHeight=1;fontSize=14;" parent="86" vertex="1">
                    <mxGeometry width="30" height="30" relative="1" as="geometry">
                        <mxPoint x="70" as="offset"/>
                    </mxGeometry>
                </mxCell>
                <mxCell id="89" value="2" style="strokeColor=inherit;fillColor=inherit;gradientColor=inherit;fontColor=inherit;html=1;shadow=0;dashed=0;perimeter=none;whiteSpace=wrap;resizeHeight=1;fontSize=14;" parent="86" vertex="1">
                    <mxGeometry width="30" height="30" relative="1" as="geometry">
                        <mxPoint x="100" as="offset"/>
                    </mxGeometry>
                </mxCell>
                <mxCell id="90" value="3" style="strokeColor=inherit;fillColor=inherit;gradientColor=inherit;fontColor=inherit;html=1;shadow=0;dashed=0;perimeter=none;whiteSpace=wrap;resizeHeight=1;fontSize=14;" parent="86" vertex="1">
                    <mxGeometry width="30" height="30" relative="1" as="geometry">
                        <mxPoint x="130" as="offset"/>
                    </mxGeometry>
                </mxCell>
                <mxCell id="91" value="Next" style="strokeColor=inherit;fillColor=inherit;gradientColor=inherit;fontColor=inherit;html=1;shadow=0;dashed=0;shape=mxgraph.bootstrap.rightButton;rSize=5;perimeter=none;whiteSpace=wrap;resizeHeight=1;fontSize=14;" parent="86" vertex="1">
                    <mxGeometry x="1" width="60" height="30" relative="1" as="geometry">
                        <mxPoint x="-60" as="offset"/>
                    </mxGeometry>
                </mxCell>
                <mxCell id="94" value="Image cap" style="html=1;shadow=0;dashed=0;shape=mxgraph.bootstrap.topButton;rSize=5;perimeter=none;whiteSpace=wrap;fillColor=#868E96;strokeColor=#DFDFDF;fontColor=#DEE2E6;resizeWidth=1;fontSize=18;" parent="64" vertex="1">
                    <mxGeometry x="350" y="190" width="260" height="160" as="geometry"/>
                </mxCell>
                <mxCell id="95" value="Lorem ipsum dolor sit amet, consectetur adipisicing elit, sed do eiusmod tempor incididunt ut labore et dolore magna aliqua. Ut enim ad minim veniam, quis nostrud exercitation ullamco laboris nisi ut aliquip ex ea commodo consequat. Duis aute irure dolor in reprehenderit in voluptate velit esse cillum dolore eu fugiat nulla pariatur.&amp;nbsp;&lt;br&gt;" style="text;spacingTop=-5;whiteSpace=wrap;html=1;align=left;fontSize=12;fontFamily=Helvetica;fillColor=none;strokeColor=none;" parent="64" vertex="1">
                    <mxGeometry x="355" y="360" width="250" height="120" as="geometry"/>
                </mxCell>
                <mxCell id="96" value="Me gusta" style="html=1;shadow=0;dashed=0;shape=mxgraph.bootstrap.rrect;rSize=5;strokeColor=#0085FC;strokeWidth=1;fillColor=none;fontColor=#0085FC;whiteSpace=wrap;align=center;verticalAlign=middle;spacingLeft=0;fontStyle=0;fontSize=16;spacing=5;" parent="64" vertex="1">
                    <mxGeometry x="350" y="490" width="90" height="20" as="geometry"/>
                </mxCell>
                <mxCell id="97" value="No me gusta" style="html=1;shadow=0;dashed=0;shape=mxgraph.bootstrap.rrect;rSize=5;strokeColor=#DB2843;strokeWidth=1;fillColor=none;fontColor=#DB2843;whiteSpace=wrap;align=center;verticalAlign=middle;spacingLeft=0;fontStyle=0;fontSize=16;spacing=5;" parent="64" vertex="1">
                    <mxGeometry x="510" y="490" width="100" height="20" as="geometry"/>
                </mxCell>
                <mxCell id="99" value="Comprar Producto" style="html=1;shadow=0;dashed=0;shape=mxgraph.bootstrap.rrect;rSize=5;strokeColor=#33A64C;strokeWidth=1;fillColor=none;fontColor=#33A64C;whiteSpace=wrap;align=center;verticalAlign=middle;spacingLeft=0;fontStyle=0;fontSize=16;spacing=5;" parent="64" vertex="1">
                    <mxGeometry x="350" y="530" width="260" height="30" as="geometry"/>
                </mxCell>
                <mxCell id="100" value="Comnetarios" style="fillColor=none;strokeColor=none;align=left;fontSize=14;" parent="64" vertex="1">
                    <mxGeometry x="130" y="590" width="70" height="40" as="geometry"/>
                </mxCell>
                <mxCell id="101" value="" style="html=1;shadow=0;dashed=0;shape=mxgraph.bootstrap.rrect;rSize=5;fillColor=none;strokeColor=#999999;align=left;spacing=15;fontSize=14;fontColor=#6C767D;" parent="64" vertex="1">
                    <mxGeometry x="130" y="650" width="720" height="50" as="geometry"/>
                </mxCell>
                <mxCell id="130" value="Escribe tu comentario" style="fillColor=none;strokeColor=none;align=left;fontSize=14;" parent="64" vertex="1">
                    <mxGeometry x="130" y="610" width="70" height="40" as="geometry"/>
                </mxCell>
                <mxCell id="131" value="enviar" style="html=1;shadow=0;dashed=0;shape=mxgraph.bootstrap.rrect;rSize=5;strokeColor=none;strokeWidth=1;fillColor=#0085FC;fontColor=#FFFFFF;whiteSpace=wrap;align=left;verticalAlign=middle;spacingLeft=0;fontStyle=1;fontSize=14;spacing=5;" parent="64" vertex="1">
                    <mxGeometry x="135" y="710" width="60" height="20" as="geometry"/>
                </mxCell>
                <mxCell id="132" value="" style="strokeWidth=1;shadow=0;dashed=0;align=center;html=1;shape=mxgraph.mockup.containers.browserWindow;rSize=0;strokeColor=#666666;strokeColor2=#008cff;strokeColor3=#c4c4c4;mainText=,;recursiveResize=0;" parent="1" vertex="1">
                    <mxGeometry x="-390" y="800" width="960" height="850" as="geometry"/>
                </mxCell>
                <mxCell id="133" value="Page 1" style="strokeWidth=1;shadow=0;dashed=0;align=center;html=1;shape=mxgraph.mockup.containers.anchor;fontSize=17;fontColor=#666666;align=left;whiteSpace=wrap;" parent="132" vertex="1">
                    <mxGeometry x="60" y="12" width="110" height="26" as="geometry"/>
                </mxCell>
                <mxCell id="134" value="https://www.draw.io" style="strokeWidth=1;shadow=0;dashed=0;align=center;html=1;shape=mxgraph.mockup.containers.anchor;rSize=0;fontSize=17;fontColor=#666666;align=left;" parent="132" vertex="1">
                    <mxGeometry x="130" y="60" width="250" height="26" as="geometry"/>
                </mxCell>
                <mxCell id="135" value="Navbar" style="html=1;shadow=0;dashed=0;fillColor=#F8F9FA;strokeColor=none;fontSize=16;fontColor=#181819;align=left;spacing=15;" parent="132" vertex="1">
                    <mxGeometry y="110" width="960" height="60" as="geometry"/>
                </mxCell>
                <mxCell id="136" value="Home" style="fillColor=none;strokeColor=none;fontSize=14;fontColor=#181819;align=center;" parent="135" vertex="1">
                    <mxGeometry width="70" height="40" relative="1" as="geometry">
                        <mxPoint x="70" y="10" as="offset"/>
                    </mxGeometry>
                </mxCell>
                <mxCell id="137" value="Mi Cuenta" style="fillColor=none;strokeColor=none;fontSize=14;fontColor=#7C7C7D;align=right;spacingRight=20;" parent="135" vertex="1">
                    <mxGeometry width="100" height="40" relative="1" as="geometry">
                        <mxPoint x="136" y="10" as="offset"/>
                    </mxGeometry>
                </mxCell>
                <mxCell id="138" value="" style="shape=triangle;direction=south;fillColor=#7C7C7D;strokeColor=none;perimeter=none;" parent="137" vertex="1">
                    <mxGeometry x="1" y="0.5" width="10" height="5" relative="1" as="geometry">
                        <mxPoint x="-17" y="-2.5" as="offset"/>
                    </mxGeometry>
                </mxCell>
                <mxCell id="139" value="Login" style="html=1;shadow=0;dashed=0;shape=mxgraph.bootstrap.rrect;rSize=5;fontSize=14;fontColor=#33A64C;strokeColor=#33A64C;fillColor=none;" parent="135" vertex="1">
                    <mxGeometry x="1" width="70" height="40" relative="1" as="geometry">
                        <mxPoint x="-80" y="10" as="offset"/>
                    </mxGeometry>
                </mxCell>
                <mxCell id="140" value="chat" style="html=1;shadow=0;dashed=0;shape=mxgraph.bootstrap.rrect;rSize=5;fontSize=14;fontColor=#33A64C;strokeColor=#33A64C;fillColor=none;" parent="135" vertex="1">
                    <mxGeometry x="796" y="10" width="70" height="40" as="geometry"/>
                </mxCell>
                <mxCell id="141" value="Compras y Ventas" style="fillColor=none;strokeColor=none;fontSize=14;fontColor=#7C7C7D;align=right;spacingRight=20;" parent="135" vertex="1">
                    <mxGeometry x="240" y="10" width="146" height="40" as="geometry"/>
                </mxCell>
                <mxCell id="142" value="" style="shape=triangle;direction=south;fillColor=#7C7C7D;strokeColor=none;perimeter=none;" parent="141" vertex="1">
                    <mxGeometry x="1" y="0.5" width="10" height="5" relative="1" as="geometry">
                        <mxPoint x="-17" y="-2.5" as="offset"/>
                    </mxGeometry>
                </mxCell>
                <mxCell id="143" value="Articulos" style="fillColor=none;strokeColor=none;fontSize=14;fontColor=#7C7C7D;align=right;spacingRight=20;" parent="135" vertex="1">
                    <mxGeometry x="394" y="10" width="86" height="40" as="geometry"/>
                </mxCell>
                <mxCell id="144" value="" style="shape=triangle;direction=south;fillColor=#7C7C7D;strokeColor=none;perimeter=none;" parent="143" vertex="1">
                    <mxGeometry x="1" y="0.5" width="10" height="5" relative="1" as="geometry">
                        <mxPoint x="-17" y="-2.5" as="offset"/>
                    </mxGeometry>
                </mxCell>
                <mxCell id="145" value="" style="html=1;shadow=0;dashed=0;shape=mxgraph.bootstrap.rrect;rSize=5;strokeColor=#DEE2E6;html=1;whiteSpace=wrap;fillColor=#ffffff;fontColor=#0085FC;fontSize=14;" parent="132" vertex="1">
                    <mxGeometry x="370" y="800" width="220" height="30" as="geometry"/>
                </mxCell>
                <mxCell id="146" value="Previous" style="strokeColor=inherit;fillColor=inherit;gradientColor=inherit;fontColor=inherit;html=1;shadow=0;dashed=0;shape=mxgraph.bootstrap.leftButton;rSize=5;perimeter=none;whiteSpace=wrap;resizeHeight=1;fontSize=14;" parent="145" vertex="1">
                    <mxGeometry width="70" height="30" relative="1" as="geometry"/>
                </mxCell>
                <mxCell id="147" value="1" style="strokeColor=inherit;fillColor=inherit;gradientColor=inherit;fontColor=inherit;html=1;shadow=0;dashed=0;perimeter=none;whiteSpace=wrap;resizeHeight=1;fontSize=14;" parent="145" vertex="1">
                    <mxGeometry width="30" height="30" relative="1" as="geometry">
                        <mxPoint x="70" as="offset"/>
                    </mxGeometry>
                </mxCell>
                <mxCell id="148" value="2" style="strokeColor=inherit;fillColor=inherit;gradientColor=inherit;fontColor=inherit;html=1;shadow=0;dashed=0;perimeter=none;whiteSpace=wrap;resizeHeight=1;fontSize=14;" parent="145" vertex="1">
                    <mxGeometry width="30" height="30" relative="1" as="geometry">
                        <mxPoint x="100" as="offset"/>
                    </mxGeometry>
                </mxCell>
                <mxCell id="149" value="3" style="strokeColor=inherit;fillColor=inherit;gradientColor=inherit;fontColor=inherit;html=1;shadow=0;dashed=0;perimeter=none;whiteSpace=wrap;resizeHeight=1;fontSize=14;" parent="145" vertex="1">
                    <mxGeometry width="30" height="30" relative="1" as="geometry">
                        <mxPoint x="130" as="offset"/>
                    </mxGeometry>
                </mxCell>
                <mxCell id="150" value="Next" style="strokeColor=inherit;fillColor=inherit;gradientColor=inherit;fontColor=inherit;html=1;shadow=0;dashed=0;shape=mxgraph.bootstrap.rightButton;rSize=5;perimeter=none;whiteSpace=wrap;resizeHeight=1;fontSize=14;" parent="145" vertex="1">
                    <mxGeometry x="1" width="60" height="30" relative="1" as="geometry">
                        <mxPoint x="-60" as="offset"/>
                    </mxGeometry>
                </mxCell>
                <mxCell id="151" value="Image cap" style="html=1;shadow=0;dashed=0;shape=mxgraph.bootstrap.topButton;rSize=5;perimeter=none;whiteSpace=wrap;fillColor=#868E96;strokeColor=#DFDFDF;fontColor=#DEE2E6;resizeWidth=1;fontSize=18;" parent="132" vertex="1">
                    <mxGeometry x="350" y="190" width="260" height="160" as="geometry"/>
                </mxCell>
                <mxCell id="152" value="Lorem ipsum dolor sit amet, consectetur adipisicing elit, sed do eiusmod tempor incididunt ut labore et dolore magna aliqua. Ut enim ad minim veniam, quis nostrud exercitation ullamco laboris nisi ut aliquip ex ea commodo consequat. Duis aute irure dolor in reprehenderit in voluptate velit esse cillum dolore eu fugiat nulla pariatur.&amp;nbsp;&lt;br&gt;" style="text;spacingTop=-5;whiteSpace=wrap;html=1;align=left;fontSize=12;fontFamily=Helvetica;fillColor=none;strokeColor=none;" parent="132" vertex="1">
                    <mxGeometry x="355" y="360" width="250" height="120" as="geometry"/>
                </mxCell>
                <mxCell id="153" value="Me gusta" style="html=1;shadow=0;dashed=0;shape=mxgraph.bootstrap.rrect;rSize=5;strokeColor=#0085FC;strokeWidth=1;fillColor=none;fontColor=#0085FC;whiteSpace=wrap;align=center;verticalAlign=middle;spacingLeft=0;fontStyle=0;fontSize=16;spacing=5;" parent="132" vertex="1">
                    <mxGeometry x="350" y="490" width="90" height="20" as="geometry"/>
                </mxCell>
                <mxCell id="154" value="No me gusta" style="html=1;shadow=0;dashed=0;shape=mxgraph.bootstrap.rrect;rSize=5;strokeColor=#DB2843;strokeWidth=1;fillColor=none;fontColor=#DB2843;whiteSpace=wrap;align=center;verticalAlign=middle;spacingLeft=0;fontStyle=0;fontSize=16;spacing=5;" parent="132" vertex="1">
                    <mxGeometry x="510" y="490" width="100" height="20" as="geometry"/>
                </mxCell>
                <mxCell id="156" value="Comnetarios" style="fillColor=none;strokeColor=none;align=left;fontSize=14;" parent="132" vertex="1">
                    <mxGeometry x="130" y="590" width="70" height="40" as="geometry"/>
                </mxCell>
                <mxCell id="157" value="" style="html=1;shadow=0;dashed=0;shape=mxgraph.bootstrap.rrect;rSize=5;fillColor=none;strokeColor=#999999;align=left;spacing=15;fontSize=14;fontColor=#6C767D;" parent="132" vertex="1">
                    <mxGeometry x="130" y="650" width="720" height="50" as="geometry"/>
                </mxCell>
                <mxCell id="158" value="Escribe tu comentario" style="fillColor=none;strokeColor=none;align=left;fontSize=14;" parent="132" vertex="1">
                    <mxGeometry x="130" y="610" width="70" height="40" as="geometry"/>
                </mxCell>
                <mxCell id="159" value="enviar" style="html=1;shadow=0;dashed=0;shape=mxgraph.bootstrap.rrect;rSize=5;strokeColor=none;strokeWidth=1;fillColor=#0085FC;fontColor=#FFFFFF;whiteSpace=wrap;align=left;verticalAlign=middle;spacingLeft=0;fontStyle=1;fontSize=14;spacing=5;" parent="132" vertex="1">
                    <mxGeometry x="135" y="710" width="60" height="20" as="geometry"/>
                </mxCell>
                <mxCell id="160" value="Modificar Produto" style="html=1;shadow=0;dashed=0;shape=mxgraph.bootstrap.rrect;rSize=5;strokeColor=#FFBC26;strokeWidth=1;fillColor=none;fontColor=#FFBC26;whiteSpace=wrap;align=center;verticalAlign=middle;spacingLeft=0;fontStyle=0;fontSize=16;spacing=5;" parent="132" vertex="1">
                    <mxGeometry x="350" y="540" width="260" height="30" as="geometry"/>
                </mxCell>
                <mxCell id="161" value="" style="strokeWidth=1;shadow=0;dashed=0;align=center;html=1;shape=mxgraph.mockup.containers.browserWindow;rSize=0;strokeColor=#666666;strokeColor2=#008cff;strokeColor3=#c4c4c4;mainText=,;recursiveResize=0;" parent="1" vertex="1">
                    <mxGeometry x="-1390" y="1690" width="960" height="850" as="geometry"/>
                </mxCell>
                <mxCell id="162" value="Page 1" style="strokeWidth=1;shadow=0;dashed=0;align=center;html=1;shape=mxgraph.mockup.containers.anchor;fontSize=17;fontColor=#666666;align=left;whiteSpace=wrap;" parent="161" vertex="1">
                    <mxGeometry x="60" y="12" width="110" height="26" as="geometry"/>
                </mxCell>
                <mxCell id="163" value="https://www.draw.io" style="strokeWidth=1;shadow=0;dashed=0;align=center;html=1;shape=mxgraph.mockup.containers.anchor;rSize=0;fontSize=17;fontColor=#666666;align=left;" parent="161" vertex="1">
                    <mxGeometry x="130" y="60" width="250" height="26" as="geometry"/>
                </mxCell>
                <mxCell id="164" value="Navbar" style="html=1;shadow=0;dashed=0;fillColor=#F8F9FA;strokeColor=none;fontSize=16;fontColor=#181819;align=left;spacing=15;" parent="161" vertex="1">
                    <mxGeometry y="110" width="960" height="60" as="geometry"/>
                </mxCell>
                <mxCell id="165" value="Home" style="fillColor=none;strokeColor=none;fontSize=14;fontColor=#181819;align=center;" parent="164" vertex="1">
                    <mxGeometry width="70" height="40" relative="1" as="geometry">
                        <mxPoint x="70" y="10" as="offset"/>
                    </mxGeometry>
                </mxCell>
                <mxCell id="166" value="Mi Cuenta" style="fillColor=none;strokeColor=none;fontSize=14;fontColor=#7C7C7D;align=right;spacingRight=20;" parent="164" vertex="1">
                    <mxGeometry width="100" height="40" relative="1" as="geometry">
                        <mxPoint x="136" y="10" as="offset"/>
                    </mxGeometry>
                </mxCell>
                <mxCell id="167" value="" style="shape=triangle;direction=south;fillColor=#7C7C7D;strokeColor=none;perimeter=none;" parent="166" vertex="1">
                    <mxGeometry x="1" y="0.5" width="10" height="5" relative="1" as="geometry">
                        <mxPoint x="-17" y="-2.5" as="offset"/>
                    </mxGeometry>
                </mxCell>
                <mxCell id="168" value="Login" style="html=1;shadow=0;dashed=0;shape=mxgraph.bootstrap.rrect;rSize=5;fontSize=14;fontColor=#33A64C;strokeColor=#33A64C;fillColor=none;" parent="164" vertex="1">
                    <mxGeometry x="1" width="70" height="40" relative="1" as="geometry">
                        <mxPoint x="-80" y="10" as="offset"/>
                    </mxGeometry>
                </mxCell>
                <mxCell id="169" value="chat" style="html=1;shadow=0;dashed=0;shape=mxgraph.bootstrap.rrect;rSize=5;fontSize=14;fontColor=#33A64C;strokeColor=#33A64C;fillColor=none;" parent="164" vertex="1">
                    <mxGeometry x="796" y="10" width="70" height="40" as="geometry"/>
                </mxCell>
                <mxCell id="170" value="Compras y Ventas" style="fillColor=none;strokeColor=none;fontSize=14;fontColor=#7C7C7D;align=right;spacingRight=20;" parent="164" vertex="1">
                    <mxGeometry x="240" y="10" width="146" height="40" as="geometry"/>
                </mxCell>
                <mxCell id="171" value="" style="shape=triangle;direction=south;fillColor=#7C7C7D;strokeColor=none;perimeter=none;" parent="170" vertex="1">
                    <mxGeometry x="1" y="0.5" width="10" height="5" relative="1" as="geometry">
                        <mxPoint x="-17" y="-2.5" as="offset"/>
                    </mxGeometry>
                </mxCell>
                <mxCell id="172" value="Articulos" style="fillColor=none;strokeColor=none;fontSize=14;fontColor=#7C7C7D;align=right;spacingRight=20;" parent="164" vertex="1">
                    <mxGeometry x="394" y="10" width="86" height="40" as="geometry"/>
                </mxCell>
                <mxCell id="173" value="" style="shape=triangle;direction=south;fillColor=#7C7C7D;strokeColor=none;perimeter=none;" parent="172" vertex="1">
                    <mxGeometry x="1" y="0.5" width="10" height="5" relative="1" as="geometry">
                        <mxPoint x="-17" y="-2.5" as="offset"/>
                    </mxGeometry>
                </mxCell>
                <mxCell id="181" value="Lorem ipsum dolor sit amet, consectetur adipisicing elit, sed do eiusmod tempor incididunt ut labore et dolore magna aliqua. Ut enim ad minim veniam, quis nostrud exercitation ullamco laboris nisi ut aliquip ex ea commodo consequat. Duis aute irure dolor in reprehenderit in voluptate velit esse cillum dolore eu fugiat nulla pariatur.&amp;nbsp;&lt;br&gt;" style="text;spacingTop=-5;whiteSpace=wrap;html=1;align=left;fontSize=12;fontFamily=Helvetica;fillColor=none;strokeColor=none;" parent="161" vertex="1">
                    <mxGeometry x="355" y="190" width="250" height="120" as="geometry"/>
                </mxCell>
                <mxCell id="182" value="Me gusta" style="html=1;shadow=0;dashed=0;shape=mxgraph.bootstrap.rrect;rSize=5;strokeColor=#0085FC;strokeWidth=1;fillColor=none;fontColor=#0085FC;whiteSpace=wrap;align=center;verticalAlign=middle;spacingLeft=0;fontStyle=0;fontSize=16;spacing=5;" parent="161" vertex="1">
                    <mxGeometry x="350" y="320" width="90" height="20" as="geometry"/>
                </mxCell>
                <mxCell id="183" value="No me gusta" style="html=1;shadow=0;dashed=0;shape=mxgraph.bootstrap.rrect;rSize=5;strokeColor=#DB2843;strokeWidth=1;fillColor=none;fontColor=#DB2843;whiteSpace=wrap;align=center;verticalAlign=middle;spacingLeft=0;fontStyle=0;fontSize=16;spacing=5;" parent="161" vertex="1">
                    <mxGeometry x="510" y="320" width="100" height="20" as="geometry"/>
                </mxCell>
                <mxCell id="184" value="Ver Articulo" style="html=1;shadow=0;dashed=0;shape=mxgraph.bootstrap.rrect;rSize=5;strokeColor=#33A64C;strokeWidth=1;fillColor=none;fontColor=#33A64C;whiteSpace=wrap;align=center;verticalAlign=middle;spacingLeft=0;fontStyle=0;fontSize=16;spacing=5;" parent="161" vertex="1">
                    <mxGeometry x="350" y="360" width="260" height="30" as="geometry"/>
                </mxCell>
                <mxCell id="185" value="Catnidad de Articulos a Comprar" style="fillColor=none;strokeColor=none;align=left;fontSize=14;" parent="161" vertex="1">
                    <mxGeometry x="270" y="410" width="70" height="40" as="geometry"/>
                </mxCell>
                <mxCell id="208" value="0" style="html=1;shadow=0;dashed=0;shape=mxgraph.bootstrap.rrect;rSize=5;strokeColor=#CED4DA;html=1;whiteSpace=wrap;fillColor=#FFFFFF;fontColor=#7D868C;align=left;spacing=15;spacingLeft=40;fontSize=14;" parent="161" vertex="1">
                    <mxGeometry x="270" y="448" width="420" height="30" as="geometry"/>
                </mxCell>
                <mxCell id="232" value="0" style="html=1;shadow=0;dashed=0;shape=mxgraph.bootstrap.rrect;rSize=5;strokeColor=#CED4DA;html=1;whiteSpace=wrap;fillColor=#FFFFFF;fontColor=#7D868C;align=left;spacing=15;spacingLeft=40;fontSize=14;" parent="161" vertex="1">
                    <mxGeometry x="270" y="510" width="210" height="30" as="geometry"/>
                </mxCell>
                <mxCell id="233" value="0" style="html=1;shadow=0;dashed=0;shape=mxgraph.bootstrap.rrect;rSize=5;strokeColor=#CED4DA;html=1;whiteSpace=wrap;fillColor=#FFFFFF;fontColor=#7D868C;align=left;spacing=15;spacingLeft=40;fontSize=14;" vertex="1" parent="161">
                    <mxGeometry x="490" y="510" width="200" height="30" as="geometry"/>
                </mxCell>
                <mxCell id="234" value="0" style="html=1;shadow=0;dashed=0;shape=mxgraph.bootstrap.rrect;rSize=5;strokeColor=#CED4DA;html=1;whiteSpace=wrap;fillColor=#FFFFFF;fontColor=#7D868C;align=left;spacing=15;spacingLeft=40;fontSize=14;" vertex="1" parent="161">
                    <mxGeometry x="270" y="560" width="210" height="30" as="geometry"/>
                </mxCell>
                <mxCell id="235" value="0" style="html=1;shadow=0;dashed=0;shape=mxgraph.bootstrap.rrect;rSize=5;strokeColor=#CED4DA;html=1;whiteSpace=wrap;fillColor=#FFFFFF;fontColor=#7D868C;align=left;spacing=15;spacingLeft=40;fontSize=14;" vertex="1" parent="161">
                    <mxGeometry x="490" y="560" width="200" height="30" as="geometry"/>
                </mxCell>
                <mxCell id="236" value="Seleccionar" style="html=1;shadow=0;dashed=0;shape=mxgraph.bootstrap.rrect;rSize=5;strokeColor=#CED4DA;html=1;whiteSpace=wrap;fillColor=#FFFFFF;fontColor=#7D868C;align=left;spacing=15;spacingLeft=40;fontSize=14;" vertex="1" parent="161">
                    <mxGeometry x="270" y="620" width="420" height="30" as="geometry"/>
                </mxCell>
                <mxCell id="237" value="Image cap" style="html=1;shadow=0;dashed=0;shape=mxgraph.bootstrap.topButton;rSize=5;perimeter=none;whiteSpace=wrap;fillColor=#868E96;strokeColor=#DFDFDF;fontColor=#DEE2E6;resizeWidth=1;fontSize=18;" vertex="1" parent="161">
                    <mxGeometry x="290" y="670" width="170" height="140" as="geometry"/>
                </mxCell>
                <mxCell id="238" value="0" style="html=1;shadow=0;dashed=0;shape=mxgraph.bootstrap.rrect;rSize=5;strokeColor=#CED4DA;html=1;whiteSpace=wrap;fillColor=#FFFFFF;fontColor=#7D868C;align=left;spacing=15;spacingLeft=40;fontSize=14;" vertex="1" parent="161">
                    <mxGeometry x="490" y="670" width="200" height="30" as="geometry"/>
                </mxCell>
                <mxCell id="239" value="0" style="html=1;shadow=0;dashed=0;shape=mxgraph.bootstrap.rrect;rSize=5;strokeColor=#CED4DA;html=1;whiteSpace=wrap;fillColor=#FFFFFF;fontColor=#7D868C;align=left;spacing=15;spacingLeft=40;fontSize=14;" vertex="1" parent="161">
                    <mxGeometry x="490" y="730" width="200" height="30" as="geometry"/>
                </mxCell>
                <mxCell id="240" value="0" style="html=1;shadow=0;dashed=0;shape=mxgraph.bootstrap.rrect;rSize=5;strokeColor=#CED4DA;html=1;whiteSpace=wrap;fillColor=#FFFFFF;fontColor=#7D868C;align=left;spacing=15;spacingLeft=40;fontSize=14;" vertex="1" parent="161">
                    <mxGeometry x="490" y="790" width="200" height="30" as="geometry"/>
                </mxCell>
                <mxCell id="269" value="Creditos Retirables" style="fillColor=none;strokeColor=none;align=left;fontSize=14;" vertex="1" parent="161">
                    <mxGeometry x="270" y="478" width="70" height="40" as="geometry"/>
                </mxCell>
                <mxCell id="270" value="Creditos No Retirables" style="fillColor=none;strokeColor=none;align=left;fontSize=14;" vertex="1" parent="161">
                    <mxGeometry x="270" y="530" width="70" height="40" as="geometry"/>
                </mxCell>
                <mxCell id="271" value="Articulo de Cambio" style="fillColor=none;strokeColor=none;align=left;fontSize=14;" vertex="1" parent="161">
                    <mxGeometry x="270" y="590" width="70" height="40" as="geometry"/>
                </mxCell>
                <mxCell id="272" value="Cantidad Disponible" style="fillColor=none;strokeColor=none;align=left;fontSize=14;" vertex="1" parent="161">
                    <mxGeometry x="490" y="640" width="70" height="40" as="geometry"/>
                </mxCell>
                <mxCell id="273" value="Valor Unitario" style="fillColor=none;strokeColor=none;align=left;fontSize=14;" vertex="1" parent="161">
                    <mxGeometry x="490" y="690" width="70" height="40" as="geometry"/>
                </mxCell>
                <mxCell id="274" value="Cantidad del articulo" style="fillColor=none;strokeColor=none;align=left;fontSize=14;" vertex="1" parent="161">
                    <mxGeometry x="490" y="760" width="70" height="40" as="geometry"/>
                </mxCell>
                <mxCell id="276" value="" style="strokeWidth=1;shadow=0;dashed=0;align=center;html=1;shape=mxgraph.mockup.containers.browserWindow;rSize=0;strokeColor=#666666;strokeColor2=#008cff;strokeColor3=#c4c4c4;mainText=,;recursiveResize=0;" vertex="1" parent="1">
                    <mxGeometry x="-1390" y="2610" width="960" height="760" as="geometry"/>
                </mxCell>
                <mxCell id="277" value="Page 1" style="strokeWidth=1;shadow=0;dashed=0;align=center;html=1;shape=mxgraph.mockup.containers.anchor;fontSize=17;fontColor=#666666;align=left;whiteSpace=wrap;" vertex="1" parent="276">
                    <mxGeometry x="60" y="12" width="110" height="26" as="geometry"/>
                </mxCell>
                <mxCell id="278" value="https://www.draw.io" style="strokeWidth=1;shadow=0;dashed=0;align=center;html=1;shape=mxgraph.mockup.containers.anchor;rSize=0;fontSize=17;fontColor=#666666;align=left;" vertex="1" parent="276">
                    <mxGeometry x="130" y="60" width="250" height="26" as="geometry"/>
                </mxCell>
                <mxCell id="279" value="Navbar" style="html=1;shadow=0;dashed=0;fillColor=#F8F9FA;strokeColor=none;fontSize=16;fontColor=#181819;align=left;spacing=15;" vertex="1" parent="276">
                    <mxGeometry y="110" width="960" height="60" as="geometry"/>
                </mxCell>
                <mxCell id="280" value="Home" style="fillColor=none;strokeColor=none;fontSize=14;fontColor=#181819;align=center;" vertex="1" parent="279">
                    <mxGeometry width="70" height="40" relative="1" as="geometry">
                        <mxPoint x="70" y="10" as="offset"/>
                    </mxGeometry>
                </mxCell>
                <mxCell id="281" value="Mi Cuenta" style="fillColor=none;strokeColor=none;fontSize=14;fontColor=#7C7C7D;align=right;spacingRight=20;" vertex="1" parent="279">
                    <mxGeometry width="100" height="40" relative="1" as="geometry">
                        <mxPoint x="136" y="10" as="offset"/>
                    </mxGeometry>
                </mxCell>
                <mxCell id="282" value="" style="shape=triangle;direction=south;fillColor=#7C7C7D;strokeColor=none;perimeter=none;" vertex="1" parent="281">
                    <mxGeometry x="1" y="0.5" width="10" height="5" relative="1" as="geometry">
                        <mxPoint x="-17" y="-2.5" as="offset"/>
                    </mxGeometry>
                </mxCell>
                <mxCell id="283" value="Login" style="html=1;shadow=0;dashed=0;shape=mxgraph.bootstrap.rrect;rSize=5;fontSize=14;fontColor=#33A64C;strokeColor=#33A64C;fillColor=none;" vertex="1" parent="279">
                    <mxGeometry x="1" width="70" height="40" relative="1" as="geometry">
                        <mxPoint x="-80" y="10" as="offset"/>
                    </mxGeometry>
                </mxCell>
                <mxCell id="284" value="chat" style="html=1;shadow=0;dashed=0;shape=mxgraph.bootstrap.rrect;rSize=5;fontSize=14;fontColor=#33A64C;strokeColor=#33A64C;fillColor=none;" vertex="1" parent="279">
                    <mxGeometry x="796" y="10" width="70" height="40" as="geometry"/>
                </mxCell>
                <mxCell id="285" value="Compras y Ventas" style="fillColor=none;strokeColor=none;fontSize=14;fontColor=#7C7C7D;align=right;spacingRight=20;" vertex="1" parent="279">
                    <mxGeometry x="240" y="10" width="146" height="40" as="geometry"/>
                </mxCell>
                <mxCell id="286" value="" style="shape=triangle;direction=south;fillColor=#7C7C7D;strokeColor=none;perimeter=none;" vertex="1" parent="285">
                    <mxGeometry x="1" y="0.5" width="10" height="5" relative="1" as="geometry">
                        <mxPoint x="-17" y="-2.5" as="offset"/>
                    </mxGeometry>
                </mxCell>
                <mxCell id="287" value="Articulos" style="fillColor=none;strokeColor=none;fontSize=14;fontColor=#7C7C7D;align=right;spacingRight=20;" vertex="1" parent="279">
                    <mxGeometry x="394" y="10" width="86" height="40" as="geometry"/>
                </mxCell>
                <mxCell id="288" value="" style="shape=triangle;direction=south;fillColor=#7C7C7D;strokeColor=none;perimeter=none;" vertex="1" parent="287">
                    <mxGeometry x="1" y="0.5" width="10" height="5" relative="1" as="geometry">
                        <mxPoint x="-17" y="-2.5" as="offset"/>
                    </mxGeometry>
                </mxCell>
                <mxCell id="292" value="" style="html=1;shadow=0;dashed=0;shape=mxgraph.bootstrap.rrect;rSize=5;strokeColor=#DFDFDF;html=1;whiteSpace=wrap;fillColor=#ffffff;fontColor=#000000;verticalAlign=top;align=left;spacing=20;spacingBottom=0;fontSize=14;spacingTop=160;" vertex="1" parent="276">
                    <mxGeometry x="60" y="210" width="390" height="320" as="geometry"/>
                </mxCell>
                <mxCell id="306" value="" style="html=1;shadow=0;dashed=0;shape=mxgraph.bootstrap.rrect;rSize=5;strokeColor=#DFDFDF;html=1;whiteSpace=wrap;fillColor=#ffffff;fontColor=#000000;verticalAlign=top;align=left;spacing=20;spacingBottom=0;fontSize=14;spacingTop=160;" vertex="1" parent="276">
                    <mxGeometry x="500" y="210" width="400" height="210" as="geometry"/>
                </mxCell>
                <mxCell id="309" value="Datos de mi cuenta" style="fillColor=none;strokeColor=none;align=left;fontSize=14;" vertex="1" parent="276">
                    <mxGeometry x="70" y="210" width="70" height="40" as="geometry"/>
                </mxCell>
                <mxCell id="310" value="Cambio de Email" style="fillColor=none;strokeColor=none;align=left;fontSize=14;" vertex="1" parent="276">
                    <mxGeometry x="510" y="210" width="70" height="40" as="geometry"/>
                </mxCell>
                <mxCell id="312" value="" style="html=1;shadow=0;dashed=0;shape=mxgraph.bootstrap.rrect;rSize=5;strokeColor=#CED4DA;html=1;whiteSpace=wrap;fillColor=#FFFFFF;fontColor=#7D868C;align=left;spacing=15;spacingLeft=40;fontSize=14;" vertex="1" parent="276">
                    <mxGeometry x="510" y="278" width="380" height="30" as="geometry"/>
                </mxCell>
                <mxCell id="313" value="" style="html=1;shadow=0;dashed=0;shape=mxgraph.bootstrap.rrect;rSize=5;strokeColor=#CED4DA;html=1;whiteSpace=wrap;fillColor=#FFFFFF;fontColor=#7D868C;align=left;spacing=15;spacingLeft=40;fontSize=14;" vertex="1" parent="276">
                    <mxGeometry x="510" y="338" width="380" height="30" as="geometry"/>
                </mxCell>
                <mxCell id="314" value="Email Actual" style="fillColor=none;strokeColor=none;align=left;fontSize=14;" vertex="1" parent="276">
                    <mxGeometry x="510" y="240" width="70" height="40" as="geometry"/>
                </mxCell>
                <mxCell id="315" value="Nuevo Email" style="fillColor=none;strokeColor=none;align=left;fontSize=14;" vertex="1" parent="276">
                    <mxGeometry x="510" y="303" width="70" height="40" as="geometry"/>
                </mxCell>
                <mxCell id="317" value="Cambiar Email" style="html=1;shadow=0;dashed=0;shape=mxgraph.bootstrap.rrect;rSize=5;strokeColor=none;strokeWidth=1;fillColor=#0085FC;fontColor=#FFFFFF;whiteSpace=wrap;align=left;verticalAlign=middle;spacingLeft=0;fontStyle=1;fontSize=14;spacing=5;" vertex="1" parent="276">
                    <mxGeometry x="510" y="380" width="110" height="30" as="geometry"/>
                </mxCell>
                <mxCell id="319" value="" style="html=1;shadow=0;dashed=0;shape=mxgraph.bootstrap.rrect;rSize=5;strokeColor=#DFDFDF;html=1;whiteSpace=wrap;fillColor=#ffffff;fontColor=#000000;verticalAlign=top;align=left;spacing=20;spacingBottom=0;fontSize=14;spacingTop=160;" vertex="1" parent="276">
                    <mxGeometry x="500" y="440" width="400" height="280" as="geometry"/>
                </mxCell>
                <mxCell id="320" value="Cambio de Contrasena" style="fillColor=none;strokeColor=none;align=left;fontSize=14;" vertex="1" parent="276">
                    <mxGeometry x="510" y="440" width="70" height="40" as="geometry"/>
                </mxCell>
                <mxCell id="321" value="" style="html=1;shadow=0;dashed=0;shape=mxgraph.bootstrap.rrect;rSize=5;strokeColor=#CED4DA;html=1;whiteSpace=wrap;fillColor=#FFFFFF;fontColor=#7D868C;align=left;spacing=15;spacingLeft=40;fontSize=14;" vertex="1" parent="276">
                    <mxGeometry x="510" y="508" width="380" height="30" as="geometry"/>
                </mxCell>
                <mxCell id="322" value="" style="html=1;shadow=0;dashed=0;shape=mxgraph.bootstrap.rrect;rSize=5;strokeColor=#CED4DA;html=1;whiteSpace=wrap;fillColor=#FFFFFF;fontColor=#7D868C;align=left;spacing=15;spacingLeft=40;fontSize=14;" vertex="1" parent="276">
                    <mxGeometry x="510" y="568" width="380" height="30" as="geometry"/>
                </mxCell>
                <mxCell id="323" value="Contrasena Actual" style="fillColor=none;strokeColor=none;align=left;fontSize=14;" vertex="1" parent="276">
                    <mxGeometry x="510" y="470" width="70" height="40" as="geometry"/>
                </mxCell>
                <mxCell id="324" value="Nueva Contrasena" style="fillColor=none;strokeColor=none;align=left;fontSize=14;" vertex="1" parent="276">
                    <mxGeometry x="510" y="533" width="70" height="40" as="geometry"/>
                </mxCell>
                <mxCell id="325" value="Cambiar Email" style="html=1;shadow=0;dashed=0;shape=mxgraph.bootstrap.rrect;rSize=5;strokeColor=none;strokeWidth=1;fillColor=#0085FC;fontColor=#FFFFFF;whiteSpace=wrap;align=left;verticalAlign=middle;spacingLeft=0;fontStyle=1;fontSize=14;spacing=5;" vertex="1" parent="276">
                    <mxGeometry x="510" y="670" width="110" height="30" as="geometry"/>
                </mxCell>
                <mxCell id="326" value="" style="html=1;shadow=0;dashed=0;shape=mxgraph.bootstrap.rrect;rSize=5;strokeColor=#CED4DA;html=1;whiteSpace=wrap;fillColor=#FFFFFF;fontColor=#7D868C;align=left;spacing=15;spacingLeft=40;fontSize=14;" vertex="1" parent="276">
                    <mxGeometry x="510" y="630" width="380" height="30" as="geometry"/>
                </mxCell>
                <mxCell id="327" value="Confirmar Nueva Contrasena" style="fillColor=none;strokeColor=none;align=left;fontSize=14;" vertex="1" parent="276">
                    <mxGeometry x="510" y="598" width="70" height="40" as="geometry"/>
                </mxCell>
                <mxCell id="345" value="" style="html=1;shadow=0;dashed=0;shape=mxgraph.bootstrap.rrect;rSize=5;fillColor=#ffffff;strokeColor=#CED4DA;align=left;spacingLeft=50;fontSize=14;fontColor=#6C767D;" vertex="1" parent="276">
                    <mxGeometry x="70" y="278" width="370" height="30" as="geometry"/>
                </mxCell>
                <mxCell id="346" value="KORNS" style="html=1;shadow=0;dashed=0;shape=mxgraph.bootstrap.leftButton;rSize=5;strokeColor=#CED4DA;fillColor=#f0f0f0;whiteSpace=wrap;resizeHeight=1;fontColor=#495057;" vertex="1" parent="345">
                    <mxGeometry width="60" height="30" relative="1" as="geometry"/>
                </mxCell>
                <mxCell id="347" value="Saldo Retirable" style="fillColor=none;strokeColor=none;align=left;fontSize=14;" vertex="1" parent="276">
                    <mxGeometry x="70" y="240" width="70" height="40" as="geometry"/>
                </mxCell>
                <mxCell id="348" value="" style="html=1;shadow=0;dashed=0;shape=mxgraph.bootstrap.rrect;rSize=5;fillColor=#ffffff;strokeColor=#CED4DA;align=left;spacingLeft=50;fontSize=14;fontColor=#6C767D;" vertex="1" parent="276">
                    <mxGeometry x="70" y="346" width="370" height="30" as="geometry"/>
                </mxCell>
                <mxCell id="349" value="KORNS" style="html=1;shadow=0;dashed=0;shape=mxgraph.bootstrap.leftButton;rSize=5;strokeColor=#CED4DA;fillColor=#f0f0f0;whiteSpace=wrap;resizeHeight=1;fontColor=#495057;" vertex="1" parent="348">
                    <mxGeometry width="60" height="30" relative="1" as="geometry"/>
                </mxCell>
                <mxCell id="350" value="Saldo No Retirable" style="fillColor=none;strokeColor=none;align=left;fontSize=14;" vertex="1" parent="276">
                    <mxGeometry x="70" y="308" width="70" height="40" as="geometry"/>
                </mxCell>
                <mxCell id="351" value="" style="html=1;shadow=0;dashed=0;shape=mxgraph.bootstrap.rrect;rSize=5;strokeColor=#CED4DA;html=1;whiteSpace=wrap;fillColor=#FFFFFF;fontColor=#7D868C;align=left;spacing=15;spacingLeft=40;fontSize=14;" vertex="1" parent="276">
                    <mxGeometry x="70" y="418" width="370" height="30" as="geometry"/>
                </mxCell>
                <mxCell id="352" value="Nombres" style="fillColor=none;strokeColor=none;align=left;fontSize=14;" vertex="1" parent="276">
                    <mxGeometry x="70" y="380" width="70" height="40" as="geometry"/>
                </mxCell>
                <mxCell id="353" value="" style="html=1;shadow=0;dashed=0;shape=mxgraph.bootstrap.rrect;rSize=5;strokeColor=#CED4DA;html=1;whiteSpace=wrap;fillColor=#FFFFFF;fontColor=#7D868C;align=left;spacing=15;spacingLeft=40;fontSize=14;" vertex="1" parent="276">
                    <mxGeometry x="70" y="486" width="370" height="30" as="geometry"/>
                </mxCell>
                <mxCell id="354" value="Apellidos" style="fillColor=none;strokeColor=none;align=left;fontSize=14;" vertex="1" parent="276">
                    <mxGeometry x="70" y="448" width="70" height="40" as="geometry"/>
                </mxCell>
                <mxCell id="355" value="" style="strokeWidth=1;shadow=0;dashed=0;align=center;html=1;shape=mxgraph.mockup.containers.browserWindow;rSize=0;strokeColor=#666666;strokeColor2=#008cff;strokeColor3=#c4c4c4;mainText=,;recursiveResize=0;" vertex="1" parent="1">
                    <mxGeometry x="-1390" y="3440" width="960" height="680" as="geometry"/>
                </mxCell>
                <mxCell id="356" value="Page 1" style="strokeWidth=1;shadow=0;dashed=0;align=center;html=1;shape=mxgraph.mockup.containers.anchor;fontSize=17;fontColor=#666666;align=left;whiteSpace=wrap;" vertex="1" parent="355">
                    <mxGeometry x="60" y="12" width="110" height="26" as="geometry"/>
                </mxCell>
                <mxCell id="357" value="https://www.draw.io" style="strokeWidth=1;shadow=0;dashed=0;align=center;html=1;shape=mxgraph.mockup.containers.anchor;rSize=0;fontSize=17;fontColor=#666666;align=left;" vertex="1" parent="355">
                    <mxGeometry x="130" y="60" width="250" height="26" as="geometry"/>
                </mxCell>
                <mxCell id="358" value="Navbar" style="html=1;shadow=0;dashed=0;fillColor=#F8F9FA;strokeColor=none;fontSize=16;fontColor=#181819;align=left;spacing=15;" vertex="1" parent="355">
                    <mxGeometry y="110" width="960" height="60" as="geometry"/>
                </mxCell>
                <mxCell id="359" value="Home" style="fillColor=none;strokeColor=none;fontSize=14;fontColor=#181819;align=center;" vertex="1" parent="358">
                    <mxGeometry width="70" height="40" relative="1" as="geometry">
                        <mxPoint x="70" y="10" as="offset"/>
                    </mxGeometry>
                </mxCell>
                <mxCell id="360" value="Mi Cuenta" style="fillColor=none;strokeColor=none;fontSize=14;fontColor=#7C7C7D;align=right;spacingRight=20;" vertex="1" parent="358">
                    <mxGeometry width="100" height="40" relative="1" as="geometry">
                        <mxPoint x="136" y="10" as="offset"/>
                    </mxGeometry>
                </mxCell>
                <mxCell id="361" value="" style="shape=triangle;direction=south;fillColor=#7C7C7D;strokeColor=none;perimeter=none;" vertex="1" parent="360">
                    <mxGeometry x="1" y="0.5" width="10" height="5" relative="1" as="geometry">
                        <mxPoint x="-17" y="-2.5" as="offset"/>
                    </mxGeometry>
                </mxCell>
                <mxCell id="362" value="Login" style="html=1;shadow=0;dashed=0;shape=mxgraph.bootstrap.rrect;rSize=5;fontSize=14;fontColor=#33A64C;strokeColor=#33A64C;fillColor=none;" vertex="1" parent="358">
                    <mxGeometry x="1" width="70" height="40" relative="1" as="geometry">
                        <mxPoint x="-80" y="10" as="offset"/>
                    </mxGeometry>
                </mxCell>
                <mxCell id="363" value="chat" style="html=1;shadow=0;dashed=0;shape=mxgraph.bootstrap.rrect;rSize=5;fontSize=14;fontColor=#33A64C;strokeColor=#33A64C;fillColor=none;" vertex="1" parent="358">
                    <mxGeometry x="796" y="10" width="70" height="40" as="geometry"/>
                </mxCell>
                <mxCell id="364" value="Compras y Ventas" style="fillColor=none;strokeColor=none;fontSize=14;fontColor=#7C7C7D;align=right;spacingRight=20;" vertex="1" parent="358">
                    <mxGeometry x="240" y="10" width="146" height="40" as="geometry"/>
                </mxCell>
                <mxCell id="365" value="" style="shape=triangle;direction=south;fillColor=#7C7C7D;strokeColor=none;perimeter=none;" vertex="1" parent="364">
                    <mxGeometry x="1" y="0.5" width="10" height="5" relative="1" as="geometry">
                        <mxPoint x="-17" y="-2.5" as="offset"/>
                    </mxGeometry>
                </mxCell>
                <mxCell id="366" value="Articulos" style="fillColor=none;strokeColor=none;fontSize=14;fontColor=#7C7C7D;align=right;spacingRight=20;" vertex="1" parent="358">
                    <mxGeometry x="394" y="10" width="86" height="40" as="geometry"/>
                </mxCell>
                <mxCell id="367" value="" style="shape=triangle;direction=south;fillColor=#7C7C7D;strokeColor=none;perimeter=none;" vertex="1" parent="366">
                    <mxGeometry x="1" y="0.5" width="10" height="5" relative="1" as="geometry">
                        <mxPoint x="-17" y="-2.5" as="offset"/>
                    </mxGeometry>
                </mxCell>
                <mxCell id="370" value="Mis Transacciones" style="fillColor=none;strokeColor=none;align=left;fontSize=20;" vertex="1" parent="355">
                    <mxGeometry x="40" y="190" width="70" height="40" as="geometry"/>
                </mxCell>
                <mxCell id="401" value="" style="shape=table;html=1;whiteSpace=wrap;startSize=0;container=1;collapsible=0;childLayout=tableLayout;strokeWidth=2;fontSize=20;" vertex="1" parent="355">
                    <mxGeometry x="40" y="250" width="430" height="80" as="geometry"/>
                </mxCell>
                <mxCell id="402" value="" style="shape=tableRow;horizontal=0;startSize=0;swimlaneHead=0;swimlaneBody=0;top=0;left=0;bottom=0;right=0;collapsible=0;dropTarget=0;fillColor=none;points=[[0,0.5],[1,0.5]];portConstraint=eastwest;fontSize=20;" vertex="1" parent="401">
                    <mxGeometry width="430" height="27" as="geometry"/>
                </mxCell>
                <mxCell id="403" value="Header 1" style="shape=partialRectangle;html=1;whiteSpace=wrap;connectable=0;fillColor=none;top=0;left=0;bottom=0;right=0;overflow=hidden;fontStyle=1;fontSize=20;" vertex="1" parent="402">
                    <mxGeometry width="215" height="27" as="geometry">
                        <mxRectangle width="215" height="27" as="alternateBounds"/>
                    </mxGeometry>
                </mxCell>
                <mxCell id="404" value="Header 2" style="shape=partialRectangle;html=1;whiteSpace=wrap;connectable=0;fillColor=none;top=0;left=0;bottom=0;right=0;overflow=hidden;fontStyle=1;fontSize=20;" vertex="1" parent="402">
                    <mxGeometry x="215" width="215" height="27" as="geometry">
                        <mxRectangle width="215" height="27" as="alternateBounds"/>
                    </mxGeometry>
                </mxCell>
                <mxCell id="405" value="" style="shape=tableRow;horizontal=0;startSize=0;swimlaneHead=0;swimlaneBody=0;top=0;left=0;bottom=0;right=0;collapsible=0;dropTarget=0;fillColor=none;points=[[0,0.5],[1,0.5]];portConstraint=eastwest;fontSize=20;" vertex="1" parent="401">
                    <mxGeometry y="27" width="430" height="26" as="geometry"/>
                </mxCell>
                <mxCell id="406" value="row 1, cell 1" style="shape=partialRectangle;html=1;whiteSpace=wrap;connectable=0;fillColor=none;top=0;left=0;bottom=0;right=0;overflow=hidden;fontSize=20;" vertex="1" parent="405">
                    <mxGeometry width="215" height="26" as="geometry">
                        <mxRectangle width="215" height="26" as="alternateBounds"/>
                    </mxGeometry>
                </mxCell>
                <mxCell id="407" value="row 1, cell 2" style="shape=partialRectangle;html=1;whiteSpace=wrap;connectable=0;fillColor=none;top=0;left=0;bottom=0;right=0;overflow=hidden;fontSize=20;" vertex="1" parent="405">
                    <mxGeometry x="215" width="215" height="26" as="geometry">
                        <mxRectangle width="215" height="26" as="alternateBounds"/>
                    </mxGeometry>
                </mxCell>
                <mxCell id="408" value="" style="shape=tableRow;horizontal=0;startSize=0;swimlaneHead=0;swimlaneBody=0;top=0;left=0;bottom=0;right=0;collapsible=0;dropTarget=0;fillColor=none;points=[[0,0.5],[1,0.5]];portConstraint=eastwest;fontSize=20;" vertex="1" parent="401">
                    <mxGeometry y="53" width="430" height="27" as="geometry"/>
                </mxCell>
                <mxCell id="409" value="row 2, cell 1" style="shape=partialRectangle;html=1;whiteSpace=wrap;connectable=0;fillColor=none;top=0;left=0;bottom=0;right=0;overflow=hidden;fontSize=20;" vertex="1" parent="408">
                    <mxGeometry width="215" height="27" as="geometry">
                        <mxRectangle width="215" height="27" as="alternateBounds"/>
                    </mxGeometry>
                </mxCell>
                <mxCell id="410" value="row 2, cell 2" style="shape=partialRectangle;html=1;whiteSpace=wrap;connectable=0;fillColor=none;top=0;left=0;bottom=0;right=0;overflow=hidden;fontSize=20;" vertex="1" parent="408">
                    <mxGeometry x="215" width="215" height="27" as="geometry">
                        <mxRectangle width="215" height="27" as="alternateBounds"/>
                    </mxGeometry>
                </mxCell>
                <mxCell id="424" value="" style="shape=table;html=1;whiteSpace=wrap;startSize=0;container=1;collapsible=0;childLayout=tableLayout;strokeWidth=2;fontSize=20;" vertex="1" parent="355">
                    <mxGeometry x="470" y="250" width="430" height="80" as="geometry"/>
                </mxCell>
                <mxCell id="425" value="" style="shape=tableRow;horizontal=0;startSize=0;swimlaneHead=0;swimlaneBody=0;top=0;left=0;bottom=0;right=0;collapsible=0;dropTarget=0;fillColor=none;points=[[0,0.5],[1,0.5]];portConstraint=eastwest;fontSize=20;" vertex="1" parent="424">
                    <mxGeometry width="430" height="27" as="geometry"/>
                </mxCell>
                <mxCell id="426" value="Header 1" style="shape=partialRectangle;html=1;whiteSpace=wrap;connectable=0;fillColor=none;top=0;left=0;bottom=0;right=0;overflow=hidden;fontStyle=1;fontSize=20;" vertex="1" parent="425">
                    <mxGeometry width="215" height="27" as="geometry">
                        <mxRectangle width="215" height="27" as="alternateBounds"/>
                    </mxGeometry>
                </mxCell>
                <mxCell id="427" value="Header 2" style="shape=partialRectangle;html=1;whiteSpace=wrap;connectable=0;fillColor=none;top=0;left=0;bottom=0;right=0;overflow=hidden;fontStyle=1;fontSize=20;" vertex="1" parent="425">
                    <mxGeometry x="215" width="215" height="27" as="geometry">
                        <mxRectangle width="215" height="27" as="alternateBounds"/>
                    </mxGeometry>
                </mxCell>
                <mxCell id="428" value="" style="shape=tableRow;horizontal=0;startSize=0;swimlaneHead=0;swimlaneBody=0;top=0;left=0;bottom=0;right=0;collapsible=0;dropTarget=0;fillColor=none;points=[[0,0.5],[1,0.5]];portConstraint=eastwest;fontSize=20;" vertex="1" parent="424">
                    <mxGeometry y="27" width="430" height="26" as="geometry"/>
                </mxCell>
                <mxCell id="429" value="row 1, cell 1" style="shape=partialRectangle;html=1;whiteSpace=wrap;connectable=0;fillColor=none;top=0;left=0;bottom=0;right=0;overflow=hidden;fontSize=20;" vertex="1" parent="428">
                    <mxGeometry width="215" height="26" as="geometry">
                        <mxRectangle width="215" height="26" as="alternateBounds"/>
                    </mxGeometry>
                </mxCell>
                <mxCell id="430" value="row 1, cell 2" style="shape=partialRectangle;html=1;whiteSpace=wrap;connectable=0;fillColor=none;top=0;left=0;bottom=0;right=0;overflow=hidden;fontSize=20;" vertex="1" parent="428">
                    <mxGeometry x="215" width="215" height="26" as="geometry">
                        <mxRectangle width="215" height="26" as="alternateBounds"/>
                    </mxGeometry>
                </mxCell>
                <mxCell id="431" value="" style="shape=tableRow;horizontal=0;startSize=0;swimlaneHead=0;swimlaneBody=0;top=0;left=0;bottom=0;right=0;collapsible=0;dropTarget=0;fillColor=none;points=[[0,0.5],[1,0.5]];portConstraint=eastwest;fontSize=20;" vertex="1" parent="424">
                    <mxGeometry y="53" width="430" height="27" as="geometry"/>
                </mxCell>
                <mxCell id="432" value="row 2, cell 1" style="shape=partialRectangle;html=1;whiteSpace=wrap;connectable=0;fillColor=none;top=0;left=0;bottom=0;right=0;overflow=hidden;fontSize=20;" vertex="1" parent="431">
                    <mxGeometry width="215" height="27" as="geometry">
                        <mxRectangle width="215" height="27" as="alternateBounds"/>
                    </mxGeometry>
                </mxCell>
                <mxCell id="433" value="row 2, cell 2" style="shape=partialRectangle;html=1;whiteSpace=wrap;connectable=0;fillColor=none;top=0;left=0;bottom=0;right=0;overflow=hidden;fontSize=20;" vertex="1" parent="431">
                    <mxGeometry x="215" width="215" height="27" as="geometry">
                        <mxRectangle width="215" height="27" as="alternateBounds"/>
                    </mxGeometry>
                </mxCell>
                <mxCell id="434" value="" style="strokeWidth=1;shadow=0;dashed=0;align=center;html=1;shape=mxgraph.mockup.containers.browserWindow;rSize=0;strokeColor=#666666;strokeColor2=#008cff;strokeColor3=#c4c4c4;mainText=,;recursiveResize=0;" vertex="1" parent="1">
                    <mxGeometry x="-1390" y="4180" width="960" height="540" as="geometry"/>
                </mxCell>
                <mxCell id="435" value="Page 1" style="strokeWidth=1;shadow=0;dashed=0;align=center;html=1;shape=mxgraph.mockup.containers.anchor;fontSize=17;fontColor=#666666;align=left;whiteSpace=wrap;" vertex="1" parent="434">
                    <mxGeometry x="60" y="12" width="110" height="26" as="geometry"/>
                </mxCell>
                <mxCell id="436" value="https://www.draw.io" style="strokeWidth=1;shadow=0;dashed=0;align=center;html=1;shape=mxgraph.mockup.containers.anchor;rSize=0;fontSize=17;fontColor=#666666;align=left;" vertex="1" parent="434">
                    <mxGeometry x="130" y="60" width="250" height="26" as="geometry"/>
                </mxCell>
                <mxCell id="437" value="Navbar" style="html=1;shadow=0;dashed=0;fillColor=#F8F9FA;strokeColor=none;fontSize=16;fontColor=#181819;align=left;spacing=15;" vertex="1" parent="434">
                    <mxGeometry y="110" width="960" height="60" as="geometry"/>
                </mxCell>
                <mxCell id="438" value="Home" style="fillColor=none;strokeColor=none;fontSize=14;fontColor=#181819;align=center;" vertex="1" parent="437">
                    <mxGeometry width="70" height="40" relative="1" as="geometry">
                        <mxPoint x="70" y="10" as="offset"/>
                    </mxGeometry>
                </mxCell>
                <mxCell id="439" value="Mi Cuenta" style="fillColor=none;strokeColor=none;fontSize=14;fontColor=#7C7C7D;align=right;spacingRight=20;" vertex="1" parent="437">
                    <mxGeometry width="100" height="40" relative="1" as="geometry">
                        <mxPoint x="136" y="10" as="offset"/>
                    </mxGeometry>
                </mxCell>
                <mxCell id="440" value="" style="shape=triangle;direction=south;fillColor=#7C7C7D;strokeColor=none;perimeter=none;" vertex="1" parent="439">
                    <mxGeometry x="1" y="0.5" width="10" height="5" relative="1" as="geometry">
                        <mxPoint x="-17" y="-2.5" as="offset"/>
                    </mxGeometry>
                </mxCell>
                <mxCell id="441" value="Login" style="html=1;shadow=0;dashed=0;shape=mxgraph.bootstrap.rrect;rSize=5;fontSize=14;fontColor=#33A64C;strokeColor=#33A64C;fillColor=none;" vertex="1" parent="437">
                    <mxGeometry x="1" width="70" height="40" relative="1" as="geometry">
                        <mxPoint x="-80" y="10" as="offset"/>
                    </mxGeometry>
                </mxCell>
                <mxCell id="442" value="chat" style="html=1;shadow=0;dashed=0;shape=mxgraph.bootstrap.rrect;rSize=5;fontSize=14;fontColor=#33A64C;strokeColor=#33A64C;fillColor=none;" vertex="1" parent="437">
                    <mxGeometry x="796" y="10" width="70" height="40" as="geometry"/>
                </mxCell>
                <mxCell id="443" value="Compras y Ventas" style="fillColor=none;strokeColor=none;fontSize=14;fontColor=#7C7C7D;align=right;spacingRight=20;" vertex="1" parent="437">
                    <mxGeometry x="240" y="10" width="146" height="40" as="geometry"/>
                </mxCell>
                <mxCell id="444" value="" style="shape=triangle;direction=south;fillColor=#7C7C7D;strokeColor=none;perimeter=none;" vertex="1" parent="443">
                    <mxGeometry x="1" y="0.5" width="10" height="5" relative="1" as="geometry">
                        <mxPoint x="-17" y="-2.5" as="offset"/>
                    </mxGeometry>
                </mxCell>
                <mxCell id="445" value="Articulos" style="fillColor=none;strokeColor=none;fontSize=14;fontColor=#7C7C7D;align=right;spacingRight=20;" vertex="1" parent="437">
                    <mxGeometry x="394" y="10" width="86" height="40" as="geometry"/>
                </mxCell>
                <mxCell id="446" value="" style="shape=triangle;direction=south;fillColor=#7C7C7D;strokeColor=none;perimeter=none;" vertex="1" parent="445">
                    <mxGeometry x="1" y="0.5" width="10" height="5" relative="1" as="geometry">
                        <mxPoint x="-17" y="-2.5" as="offset"/>
                    </mxGeometry>
                </mxCell>
                <mxCell id="448" value="" style="html=1;shadow=0;dashed=0;shape=mxgraph.bootstrap.rrect;rSize=5;strokeColor=#DFDFDF;html=1;whiteSpace=wrap;fillColor=#ffffff;fontColor=#000000;verticalAlign=top;align=left;spacing=20;spacingBottom=0;fontSize=14;spacingTop=160;" vertex="1" parent="434">
                    <mxGeometry x="520" y="200" width="400" height="230" as="geometry"/>
                </mxCell>
                <mxCell id="450" value="Sacar Creditos" style="fillColor=none;strokeColor=none;align=left;fontSize=14;" vertex="1" parent="434">
                    <mxGeometry x="530" y="210" width="70" height="40" as="geometry"/>
                </mxCell>
                <mxCell id="451" value="850.00" style="html=1;shadow=0;dashed=0;shape=mxgraph.bootstrap.rrect;rSize=5;strokeColor=#CED4DA;html=1;whiteSpace=wrap;fillColor=#FFFFFF;fontColor=#7D868C;align=left;spacing=15;spacingLeft=40;fontSize=14;" vertex="1" parent="434">
                    <mxGeometry x="530" y="278" width="380" height="30" as="geometry"/>
                </mxCell>
                <mxCell id="452" value="0" style="html=1;shadow=0;dashed=0;shape=mxgraph.bootstrap.rrect;rSize=5;strokeColor=#CED4DA;html=1;whiteSpace=wrap;fillColor=#FFFFFF;fontColor=#7D868C;align=left;spacing=15;spacingLeft=40;fontSize=14;" vertex="1" parent="434">
                    <mxGeometry x="530" y="338" width="380" height="30" as="geometry"/>
                </mxCell>
                <mxCell id="453" value="Creditos disponibles" style="fillColor=none;strokeColor=none;align=left;fontSize=14;" vertex="1" parent="434">
                    <mxGeometry x="530" y="240" width="70" height="40" as="geometry"/>
                </mxCell>
                <mxCell id="454" value="Cantidad a sacar" style="fillColor=none;strokeColor=none;align=left;fontSize=14;" vertex="1" parent="434">
                    <mxGeometry x="530" y="303" width="70" height="40" as="geometry"/>
                </mxCell>
                <mxCell id="455" value="Sacar" style="html=1;shadow=0;dashed=0;shape=mxgraph.bootstrap.rrect;rSize=5;strokeColor=none;strokeWidth=1;fillColor=#0085FC;fontColor=#FFFFFF;whiteSpace=wrap;align=left;verticalAlign=middle;spacingLeft=0;fontStyle=1;fontSize=14;spacing=5;" vertex="1" parent="434">
                    <mxGeometry x="530" y="380" width="50" height="30" as="geometry"/>
                </mxCell>
                <mxCell id="456" value="" style="html=1;shadow=0;dashed=0;shape=mxgraph.bootstrap.rrect;rSize=5;strokeColor=#DFDFDF;html=1;whiteSpace=wrap;fillColor=#ffffff;fontColor=#000000;verticalAlign=top;align=left;spacing=20;spacingBottom=0;fontSize=14;spacingTop=160;" vertex="1" parent="434">
                    <mxGeometry x="55" y="200" width="400" height="280" as="geometry"/>
                </mxCell>
                <mxCell id="457" value="Comprar Creditos" style="fillColor=none;strokeColor=none;align=left;fontSize=14;" vertex="1" parent="434">
                    <mxGeometry x="65" y="200" width="70" height="40" as="geometry"/>
                </mxCell>
                <mxCell id="458" value="0" style="html=1;shadow=0;dashed=0;shape=mxgraph.bootstrap.rrect;rSize=5;strokeColor=#CED4DA;html=1;whiteSpace=wrap;fillColor=#FFFFFF;fontColor=#7D868C;align=left;spacing=15;spacingLeft=40;fontSize=14;" vertex="1" parent="434">
                    <mxGeometry x="65" y="268" width="380" height="30" as="geometry"/>
                </mxCell>
                <mxCell id="459" value="1" style="html=1;shadow=0;dashed=0;shape=mxgraph.bootstrap.rrect;rSize=5;strokeColor=#CED4DA;html=1;whiteSpace=wrap;fillColor=#FFFFFF;fontColor=#7D868C;align=left;spacing=15;spacingLeft=40;fontSize=14;" vertex="1" parent="434">
                    <mxGeometry x="65" y="328" width="380" height="30" as="geometry"/>
                </mxCell>
                <mxCell id="460" value="Cantidad Comprar" style="fillColor=none;strokeColor=none;align=left;fontSize=14;" vertex="1" parent="434">
                    <mxGeometry x="65" y="230" width="70" height="40" as="geometry"/>
                </mxCell>
                <mxCell id="461" value="Compra QUETZALES" style="fillColor=none;strokeColor=none;align=left;fontSize=14;" vertex="1" parent="434">
                    <mxGeometry x="65" y="293" width="70" height="40" as="geometry"/>
                </mxCell>
                <mxCell id="462" value="Comparar" style="html=1;shadow=0;dashed=0;shape=mxgraph.bootstrap.rrect;rSize=5;strokeColor=none;strokeWidth=1;fillColor=#0085FC;fontColor=#FFFFFF;whiteSpace=wrap;align=left;verticalAlign=middle;spacingLeft=0;fontStyle=1;fontSize=14;spacing=5;" vertex="1" parent="434">
                    <mxGeometry x="65" y="430" width="75" height="30" as="geometry"/>
                </mxCell>
                <mxCell id="463" value="1" style="html=1;shadow=0;dashed=0;shape=mxgraph.bootstrap.rrect;rSize=5;strokeColor=#CED4DA;html=1;whiteSpace=wrap;fillColor=#FFFFFF;fontColor=#7D868C;align=left;spacing=15;spacingLeft=40;fontSize=14;" vertex="1" parent="434">
                    <mxGeometry x="65" y="390" width="380" height="30" as="geometry"/>
                </mxCell>
                <mxCell id="464" value="Venta KORNS" style="fillColor=none;strokeColor=none;align=left;fontSize=14;" vertex="1" parent="434">
                    <mxGeometry x="65" y="358" width="70" height="40" as="geometry"/>
                </mxCell>
                <mxCell id="476" value="" style="strokeWidth=1;shadow=0;dashed=0;align=center;html=1;shape=mxgraph.mockup.containers.browserWindow;rSize=0;strokeColor=#666666;strokeColor2=#008cff;strokeColor3=#c4c4c4;mainText=,;recursiveResize=0;" vertex="1" parent="1">
                    <mxGeometry x="-1390" y="4760" width="960" height="540" as="geometry"/>
                </mxCell>
                <mxCell id="477" value="Page 1" style="strokeWidth=1;shadow=0;dashed=0;align=center;html=1;shape=mxgraph.mockup.containers.anchor;fontSize=17;fontColor=#666666;align=left;whiteSpace=wrap;" vertex="1" parent="476">
                    <mxGeometry x="60" y="12" width="110" height="26" as="geometry"/>
                </mxCell>
                <mxCell id="478" value="https://www.draw.io" style="strokeWidth=1;shadow=0;dashed=0;align=center;html=1;shape=mxgraph.mockup.containers.anchor;rSize=0;fontSize=17;fontColor=#666666;align=left;" vertex="1" parent="476">
                    <mxGeometry x="130" y="60" width="250" height="26" as="geometry"/>
                </mxCell>
                <mxCell id="479" value="Navbar" style="html=1;shadow=0;dashed=0;fillColor=#F8F9FA;strokeColor=none;fontSize=16;fontColor=#181819;align=left;spacing=15;" vertex="1" parent="476">
                    <mxGeometry y="110" width="960" height="60" as="geometry"/>
                </mxCell>
                <mxCell id="480" value="Home" style="fillColor=none;strokeColor=none;fontSize=14;fontColor=#181819;align=center;" vertex="1" parent="479">
                    <mxGeometry width="70" height="40" relative="1" as="geometry">
                        <mxPoint x="70" y="10" as="offset"/>
                    </mxGeometry>
                </mxCell>
                <mxCell id="481" value="Mi Cuenta" style="fillColor=none;strokeColor=none;fontSize=14;fontColor=#7C7C7D;align=right;spacingRight=20;" vertex="1" parent="479">
                    <mxGeometry width="100" height="40" relative="1" as="geometry">
                        <mxPoint x="136" y="10" as="offset"/>
                    </mxGeometry>
                </mxCell>
                <mxCell id="482" value="" style="shape=triangle;direction=south;fillColor=#7C7C7D;strokeColor=none;perimeter=none;" vertex="1" parent="481">
                    <mxGeometry x="1" y="0.5" width="10" height="5" relative="1" as="geometry">
                        <mxPoint x="-17" y="-2.5" as="offset"/>
                    </mxGeometry>
                </mxCell>
                <mxCell id="483" value="Login" style="html=1;shadow=0;dashed=0;shape=mxgraph.bootstrap.rrect;rSize=5;fontSize=14;fontColor=#33A64C;strokeColor=#33A64C;fillColor=none;" vertex="1" parent="479">
                    <mxGeometry x="1" width="70" height="40" relative="1" as="geometry">
                        <mxPoint x="-80" y="10" as="offset"/>
                    </mxGeometry>
                </mxCell>
                <mxCell id="484" value="chat" style="html=1;shadow=0;dashed=0;shape=mxgraph.bootstrap.rrect;rSize=5;fontSize=14;fontColor=#33A64C;strokeColor=#33A64C;fillColor=none;" vertex="1" parent="479">
                    <mxGeometry x="796" y="10" width="70" height="40" as="geometry"/>
                </mxCell>
                <mxCell id="485" value="Compras y Ventas" style="fillColor=none;strokeColor=none;fontSize=14;fontColor=#7C7C7D;align=right;spacingRight=20;" vertex="1" parent="479">
                    <mxGeometry x="240" y="10" width="146" height="40" as="geometry"/>
                </mxCell>
                <mxCell id="486" value="" style="shape=triangle;direction=south;fillColor=#7C7C7D;strokeColor=none;perimeter=none;" vertex="1" parent="485">
                    <mxGeometry x="1" y="0.5" width="10" height="5" relative="1" as="geometry">
                        <mxPoint x="-17" y="-2.5" as="offset"/>
                    </mxGeometry>
                </mxCell>
                <mxCell id="487" value="Articulos" style="fillColor=none;strokeColor=none;fontSize=14;fontColor=#7C7C7D;align=right;spacingRight=20;" vertex="1" parent="479">
                    <mxGeometry x="394" y="10" width="86" height="40" as="geometry"/>
                </mxCell>
                <mxCell id="488" value="" style="shape=triangle;direction=south;fillColor=#7C7C7D;strokeColor=none;perimeter=none;" vertex="1" parent="487">
                    <mxGeometry x="1" y="0.5" width="10" height="5" relative="1" as="geometry">
                        <mxPoint x="-17" y="-2.5" as="offset"/>
                    </mxGeometry>
                </mxCell>
                <mxCell id="496" value="" style="html=1;shadow=0;dashed=0;shape=mxgraph.bootstrap.rrect;rSize=5;strokeColor=#DFDFDF;html=1;whiteSpace=wrap;fillColor=#ffffff;fontColor=#000000;verticalAlign=top;align=left;spacing=20;spacingBottom=0;fontSize=14;spacingTop=160;" vertex="1" parent="476">
                    <mxGeometry x="62.5" y="240" width="835" height="180" as="geometry"/>
                </mxCell>
                <mxCell id="505" value="" style="html=1;shadow=0;dashed=0;shape=mxgraph.bootstrap.rrect;rSize=5;strokeColor=#DEE2E6;html=1;whiteSpace=wrap;fillColor=#ffffff;fontColor=#0085FC;fontSize=14;" vertex="1" parent="476">
                    <mxGeometry x="370" y="490" width="220" height="30" as="geometry"/>
                </mxCell>
                <mxCell id="506" value="Previous" style="strokeColor=inherit;fillColor=inherit;gradientColor=inherit;html=1;shadow=0;dashed=0;shape=mxgraph.bootstrap.leftButton;rSize=5;perimeter=none;whiteSpace=wrap;resizeHeight=1;fontColor=#6C767D;fontSize=14;" vertex="1" parent="505">
                    <mxGeometry width="70" height="30" relative="1" as="geometry"/>
                </mxCell>
                <mxCell id="507" value="1" style="strokeColor=inherit;fillColor=inherit;gradientColor=inherit;fontColor=inherit;html=1;shadow=0;dashed=0;perimeter=none;whiteSpace=wrap;resizeHeight=1;fontSize=14;" vertex="1" parent="505">
                    <mxGeometry width="30" height="30" relative="1" as="geometry">
                        <mxPoint x="70" as="offset"/>
                    </mxGeometry>
                </mxCell>
                <mxCell id="508" value="2" style="html=1;shadow=0;dashed=0;perimeter=none;whiteSpace=wrap;resizeHeight=1;fillColor=#0085FC;strokeColor=none;fontColor=#ffffff;fontSize=14;" vertex="1" parent="505">
                    <mxGeometry width="30" height="30" relative="1" as="geometry">
                        <mxPoint x="100" as="offset"/>
                    </mxGeometry>
                </mxCell>
                <mxCell id="509" value="3" style="strokeColor=inherit;fillColor=inherit;gradientColor=inherit;fontColor=inherit;html=1;shadow=0;dashed=0;perimeter=none;whiteSpace=wrap;resizeHeight=1;fontSize=14;" vertex="1" parent="505">
                    <mxGeometry width="30" height="30" relative="1" as="geometry">
                        <mxPoint x="130" as="offset"/>
                    </mxGeometry>
                </mxCell>
                <mxCell id="510" value="Next" style="strokeColor=inherit;fillColor=inherit;gradientColor=inherit;fontColor=inherit;html=1;shadow=0;dashed=0;shape=mxgraph.bootstrap.rightButton;rSize=5;perimeter=none;whiteSpace=wrap;resizeHeight=1;fontSize=14;" vertex="1" parent="505">
                    <mxGeometry x="1" width="60" height="30" relative="1" as="geometry">
                        <mxPoint x="-60" as="offset"/>
                    </mxGeometry>
                </mxCell>
                <mxCell id="511" value="Image cap" style="html=1;shadow=0;dashed=0;shape=mxgraph.bootstrap.topButton;rSize=5;perimeter=none;whiteSpace=wrap;fillColor=#868E96;strokeColor=#DFDFDF;fontColor=#DEE2E6;resizeWidth=1;fontSize=18;" vertex="1" parent="476">
                    <mxGeometry x="100" y="260" width="170" height="140" as="geometry"/>
                </mxCell>
                <mxCell id="522" value="Lorem ipsum dolor sit amet, consectetur adipisicing elit, sed do eiusmod tempor incididunt ut labore et dolore magna aliqua. Ut enim ad minim veniam, quis nostrud exercitation ullamco laboris nisi ut aliquip ex ea commodo consequat. Duis aute irure dolor in reprehenderit in voluptate velit esse cillum dolore eu fugiat nulla pariatur.&amp;nbsp;&lt;br&gt;" style="text;spacingTop=-5;whiteSpace=wrap;html=1;align=left;fontSize=12;fontFamily=Helvetica;fillColor=none;strokeColor=none;" vertex="1" parent="476">
                    <mxGeometry x="300" y="270" width="510" height="120" as="geometry"/>
                </mxCell>
                <mxCell id="523" value="Mis Compras" style="fillColor=none;strokeColor=none;align=left;fontSize=20;" vertex="1" parent="476">
                    <mxGeometry x="62.5" y="180" width="70" height="40" as="geometry"/>
                </mxCell>
                <mxCell id="524" value="" style="strokeWidth=1;shadow=0;dashed=0;align=center;html=1;shape=mxgraph.mockup.containers.browserWindow;rSize=0;strokeColor=#666666;strokeColor2=#008cff;strokeColor3=#c4c4c4;mainText=,;recursiveResize=0;" vertex="1" parent="1">
                    <mxGeometry x="-1390" y="5340" width="960" height="540" as="geometry"/>
                </mxCell>
                <mxCell id="525" value="Page 1" style="strokeWidth=1;shadow=0;dashed=0;align=center;html=1;shape=mxgraph.mockup.containers.anchor;fontSize=17;fontColor=#666666;align=left;whiteSpace=wrap;" vertex="1" parent="524">
                    <mxGeometry x="60" y="12" width="110" height="26" as="geometry"/>
                </mxCell>
                <mxCell id="526" value="https://www.draw.io" style="strokeWidth=1;shadow=0;dashed=0;align=center;html=1;shape=mxgraph.mockup.containers.anchor;rSize=0;fontSize=17;fontColor=#666666;align=left;" vertex="1" parent="524">
                    <mxGeometry x="130" y="60" width="250" height="26" as="geometry"/>
                </mxCell>
                <mxCell id="527" value="Navbar" style="html=1;shadow=0;dashed=0;fillColor=#F8F9FA;strokeColor=none;fontSize=16;fontColor=#181819;align=left;spacing=15;" vertex="1" parent="524">
                    <mxGeometry y="110" width="960" height="60" as="geometry"/>
                </mxCell>
                <mxCell id="528" value="Home" style="fillColor=none;strokeColor=none;fontSize=14;fontColor=#181819;align=center;" vertex="1" parent="527">
                    <mxGeometry width="70" height="40" relative="1" as="geometry">
                        <mxPoint x="70" y="10" as="offset"/>
                    </mxGeometry>
                </mxCell>
                <mxCell id="529" value="Mi Cuenta" style="fillColor=none;strokeColor=none;fontSize=14;fontColor=#7C7C7D;align=right;spacingRight=20;" vertex="1" parent="527">
                    <mxGeometry width="100" height="40" relative="1" as="geometry">
                        <mxPoint x="136" y="10" as="offset"/>
                    </mxGeometry>
                </mxCell>
                <mxCell id="530" value="" style="shape=triangle;direction=south;fillColor=#7C7C7D;strokeColor=none;perimeter=none;" vertex="1" parent="529">
                    <mxGeometry x="1" y="0.5" width="10" height="5" relative="1" as="geometry">
                        <mxPoint x="-17" y="-2.5" as="offset"/>
                    </mxGeometry>
                </mxCell>
                <mxCell id="531" value="Login" style="html=1;shadow=0;dashed=0;shape=mxgraph.bootstrap.rrect;rSize=5;fontSize=14;fontColor=#33A64C;strokeColor=#33A64C;fillColor=none;" vertex="1" parent="527">
                    <mxGeometry x="1" width="70" height="40" relative="1" as="geometry">
                        <mxPoint x="-80" y="10" as="offset"/>
                    </mxGeometry>
                </mxCell>
                <mxCell id="532" value="chat" style="html=1;shadow=0;dashed=0;shape=mxgraph.bootstrap.rrect;rSize=5;fontSize=14;fontColor=#33A64C;strokeColor=#33A64C;fillColor=none;" vertex="1" parent="527">
                    <mxGeometry x="796" y="10" width="70" height="40" as="geometry"/>
                </mxCell>
                <mxCell id="533" value="Compras y Ventas" style="fillColor=none;strokeColor=none;fontSize=14;fontColor=#7C7C7D;align=right;spacingRight=20;" vertex="1" parent="527">
                    <mxGeometry x="240" y="10" width="146" height="40" as="geometry"/>
                </mxCell>
                <mxCell id="534" value="" style="shape=triangle;direction=south;fillColor=#7C7C7D;strokeColor=none;perimeter=none;" vertex="1" parent="533">
                    <mxGeometry x="1" y="0.5" width="10" height="5" relative="1" as="geometry">
                        <mxPoint x="-17" y="-2.5" as="offset"/>
                    </mxGeometry>
                </mxCell>
                <mxCell id="535" value="Articulos" style="fillColor=none;strokeColor=none;fontSize=14;fontColor=#7C7C7D;align=right;spacingRight=20;" vertex="1" parent="527">
                    <mxGeometry x="394" y="10" width="86" height="40" as="geometry"/>
                </mxCell>
                <mxCell id="536" value="" style="shape=triangle;direction=south;fillColor=#7C7C7D;strokeColor=none;perimeter=none;" vertex="1" parent="535">
                    <mxGeometry x="1" y="0.5" width="10" height="5" relative="1" as="geometry">
                        <mxPoint x="-17" y="-2.5" as="offset"/>
                    </mxGeometry>
                </mxCell>
                <mxCell id="537" value="" style="html=1;shadow=0;dashed=0;shape=mxgraph.bootstrap.rrect;rSize=5;strokeColor=#DFDFDF;html=1;whiteSpace=wrap;fillColor=#ffffff;fontColor=#000000;verticalAlign=top;align=left;spacing=20;spacingBottom=0;fontSize=14;spacingTop=160;" vertex="1" parent="524">
                    <mxGeometry x="62.5" y="240" width="835" height="180" as="geometry"/>
                </mxCell>
                <mxCell id="538" value="" style="html=1;shadow=0;dashed=0;shape=mxgraph.bootstrap.rrect;rSize=5;strokeColor=#DEE2E6;html=1;whiteSpace=wrap;fillColor=#ffffff;fontColor=#0085FC;fontSize=14;" vertex="1" parent="524">
                    <mxGeometry x="370" y="490" width="220" height="30" as="geometry"/>
                </mxCell>
                <mxCell id="539" value="Previous" style="strokeColor=inherit;fillColor=inherit;gradientColor=inherit;html=1;shadow=0;dashed=0;shape=mxgraph.bootstrap.leftButton;rSize=5;perimeter=none;whiteSpace=wrap;resizeHeight=1;fontColor=#6C767D;fontSize=14;" vertex="1" parent="538">
                    <mxGeometry width="70" height="30" relative="1" as="geometry"/>
                </mxCell>
                <mxCell id="540" value="1" style="strokeColor=inherit;fillColor=inherit;gradientColor=inherit;fontColor=inherit;html=1;shadow=0;dashed=0;perimeter=none;whiteSpace=wrap;resizeHeight=1;fontSize=14;" vertex="1" parent="538">
                    <mxGeometry width="30" height="30" relative="1" as="geometry">
                        <mxPoint x="70" as="offset"/>
                    </mxGeometry>
                </mxCell>
                <mxCell id="541" value="2" style="html=1;shadow=0;dashed=0;perimeter=none;whiteSpace=wrap;resizeHeight=1;fillColor=#0085FC;strokeColor=none;fontColor=#ffffff;fontSize=14;" vertex="1" parent="538">
                    <mxGeometry width="30" height="30" relative="1" as="geometry">
                        <mxPoint x="100" as="offset"/>
                    </mxGeometry>
                </mxCell>
                <mxCell id="542" value="3" style="strokeColor=inherit;fillColor=inherit;gradientColor=inherit;fontColor=inherit;html=1;shadow=0;dashed=0;perimeter=none;whiteSpace=wrap;resizeHeight=1;fontSize=14;" vertex="1" parent="538">
                    <mxGeometry width="30" height="30" relative="1" as="geometry">
                        <mxPoint x="130" as="offset"/>
                    </mxGeometry>
                </mxCell>
                <mxCell id="543" value="Next" style="strokeColor=inherit;fillColor=inherit;gradientColor=inherit;fontColor=inherit;html=1;shadow=0;dashed=0;shape=mxgraph.bootstrap.rightButton;rSize=5;perimeter=none;whiteSpace=wrap;resizeHeight=1;fontSize=14;" vertex="1" parent="538">
                    <mxGeometry x="1" width="60" height="30" relative="1" as="geometry">
                        <mxPoint x="-60" as="offset"/>
                    </mxGeometry>
                </mxCell>
                <mxCell id="544" value="Image cap" style="html=1;shadow=0;dashed=0;shape=mxgraph.bootstrap.topButton;rSize=5;perimeter=none;whiteSpace=wrap;fillColor=#868E96;strokeColor=#DFDFDF;fontColor=#DEE2E6;resizeWidth=1;fontSize=18;" vertex="1" parent="524">
                    <mxGeometry x="100" y="260" width="170" height="140" as="geometry"/>
                </mxCell>
                <mxCell id="545" value="Lorem ipsum dolor sit amet, consectetur adipisicing elit, sed do eiusmod tempor incididunt ut labore et dolore magna aliqua. Ut enim ad minim veniam, quis nostrud exercitation ullamco laboris nisi ut aliquip ex ea commodo consequat. Duis aute irure dolor in reprehenderit in voluptate velit esse cillum dolore eu fugiat nulla pariatur.&amp;nbsp;&lt;br&gt;" style="text;spacingTop=-5;whiteSpace=wrap;html=1;align=left;fontSize=12;fontFamily=Helvetica;fillColor=none;strokeColor=none;" vertex="1" parent="524">
                    <mxGeometry x="300" y="270" width="510" height="120" as="geometry"/>
                </mxCell>
                <mxCell id="546" value="Mis Ventas" style="fillColor=none;strokeColor=none;align=left;fontSize=20;" vertex="1" parent="524">
                    <mxGeometry x="62.5" y="180" width="70" height="40" as="geometry"/>
                </mxCell>
                <mxCell id="547" value="" style="strokeWidth=1;shadow=0;dashed=0;align=center;html=1;shape=mxgraph.mockup.containers.browserWindow;rSize=0;strokeColor=#666666;strokeColor2=#008cff;strokeColor3=#c4c4c4;mainText=,;recursiveResize=0;" vertex="1" parent="1">
                    <mxGeometry x="-1390" y="5940" width="960" height="540" as="geometry"/>
                </mxCell>
                <mxCell id="548" value="Page 1" style="strokeWidth=1;shadow=0;dashed=0;align=center;html=1;shape=mxgraph.mockup.containers.anchor;fontSize=17;fontColor=#666666;align=left;whiteSpace=wrap;" vertex="1" parent="547">
                    <mxGeometry x="60" y="12" width="110" height="26" as="geometry"/>
                </mxCell>
                <mxCell id="549" value="https://www.draw.io" style="strokeWidth=1;shadow=0;dashed=0;align=center;html=1;shape=mxgraph.mockup.containers.anchor;rSize=0;fontSize=17;fontColor=#666666;align=left;" vertex="1" parent="547">
                    <mxGeometry x="130" y="60" width="250" height="26" as="geometry"/>
                </mxCell>
                <mxCell id="550" value="Navbar" style="html=1;shadow=0;dashed=0;fillColor=#F8F9FA;strokeColor=none;fontSize=16;fontColor=#181819;align=left;spacing=15;" vertex="1" parent="547">
                    <mxGeometry y="110" width="960" height="60" as="geometry"/>
                </mxCell>
                <mxCell id="551" value="Home" style="fillColor=none;strokeColor=none;fontSize=14;fontColor=#181819;align=center;" vertex="1" parent="550">
                    <mxGeometry width="70" height="40" relative="1" as="geometry">
                        <mxPoint x="70" y="10" as="offset"/>
                    </mxGeometry>
                </mxCell>
                <mxCell id="552" value="Mi Cuenta" style="fillColor=none;strokeColor=none;fontSize=14;fontColor=#7C7C7D;align=right;spacingRight=20;" vertex="1" parent="550">
                    <mxGeometry width="100" height="40" relative="1" as="geometry">
                        <mxPoint x="136" y="10" as="offset"/>
                    </mxGeometry>
                </mxCell>
                <mxCell id="553" value="" style="shape=triangle;direction=south;fillColor=#7C7C7D;strokeColor=none;perimeter=none;" vertex="1" parent="552">
                    <mxGeometry x="1" y="0.5" width="10" height="5" relative="1" as="geometry">
                        <mxPoint x="-17" y="-2.5" as="offset"/>
                    </mxGeometry>
                </mxCell>
                <mxCell id="554" value="Login" style="html=1;shadow=0;dashed=0;shape=mxgraph.bootstrap.rrect;rSize=5;fontSize=14;fontColor=#33A64C;strokeColor=#33A64C;fillColor=none;" vertex="1" parent="550">
                    <mxGeometry x="1" width="70" height="40" relative="1" as="geometry">
                        <mxPoint x="-80" y="10" as="offset"/>
                    </mxGeometry>
                </mxCell>
                <mxCell id="555" value="chat" style="html=1;shadow=0;dashed=0;shape=mxgraph.bootstrap.rrect;rSize=5;fontSize=14;fontColor=#33A64C;strokeColor=#33A64C;fillColor=none;" vertex="1" parent="550">
                    <mxGeometry x="796" y="10" width="70" height="40" as="geometry"/>
                </mxCell>
                <mxCell id="556" value="Compras y Ventas" style="fillColor=none;strokeColor=none;fontSize=14;fontColor=#7C7C7D;align=right;spacingRight=20;" vertex="1" parent="550">
                    <mxGeometry x="240" y="10" width="146" height="40" as="geometry"/>
                </mxCell>
                <mxCell id="557" value="" style="shape=triangle;direction=south;fillColor=#7C7C7D;strokeColor=none;perimeter=none;" vertex="1" parent="556">
                    <mxGeometry x="1" y="0.5" width="10" height="5" relative="1" as="geometry">
                        <mxPoint x="-17" y="-2.5" as="offset"/>
                    </mxGeometry>
                </mxCell>
                <mxCell id="558" value="Articulos" style="fillColor=none;strokeColor=none;fontSize=14;fontColor=#7C7C7D;align=right;spacingRight=20;" vertex="1" parent="550">
                    <mxGeometry x="394" y="10" width="86" height="40" as="geometry"/>
                </mxCell>
                <mxCell id="559" value="" style="shape=triangle;direction=south;fillColor=#7C7C7D;strokeColor=none;perimeter=none;" vertex="1" parent="558">
                    <mxGeometry x="1" y="0.5" width="10" height="5" relative="1" as="geometry">
                        <mxPoint x="-17" y="-2.5" as="offset"/>
                    </mxGeometry>
                </mxCell>
                <mxCell id="560" value="" style="html=1;shadow=0;dashed=0;shape=mxgraph.bootstrap.rrect;rSize=5;strokeColor=#DFDFDF;html=1;whiteSpace=wrap;fillColor=#ffffff;fontColor=#000000;verticalAlign=top;align=left;spacing=20;spacingBottom=0;fontSize=14;spacingTop=160;" vertex="1" parent="547">
                    <mxGeometry x="62.5" y="240" width="835" height="220" as="geometry"/>
                </mxCell>
                <mxCell id="561" value="" style="html=1;shadow=0;dashed=0;shape=mxgraph.bootstrap.rrect;rSize=5;strokeColor=#DEE2E6;html=1;whiteSpace=wrap;fillColor=#ffffff;fontColor=#0085FC;fontSize=14;" vertex="1" parent="547">
                    <mxGeometry x="370" y="490" width="220" height="30" as="geometry"/>
                </mxCell>
                <mxCell id="562" value="Previous" style="strokeColor=inherit;fillColor=inherit;gradientColor=inherit;html=1;shadow=0;dashed=0;shape=mxgraph.bootstrap.leftButton;rSize=5;perimeter=none;whiteSpace=wrap;resizeHeight=1;fontColor=#6C767D;fontSize=14;" vertex="1" parent="561">
                    <mxGeometry width="70" height="30" relative="1" as="geometry"/>
                </mxCell>
                <mxCell id="563" value="1" style="strokeColor=inherit;fillColor=inherit;gradientColor=inherit;fontColor=inherit;html=1;shadow=0;dashed=0;perimeter=none;whiteSpace=wrap;resizeHeight=1;fontSize=14;" vertex="1" parent="561">
                    <mxGeometry width="30" height="30" relative="1" as="geometry">
                        <mxPoint x="70" as="offset"/>
                    </mxGeometry>
                </mxCell>
                <mxCell id="564" value="2" style="html=1;shadow=0;dashed=0;perimeter=none;whiteSpace=wrap;resizeHeight=1;fillColor=#0085FC;strokeColor=none;fontColor=#ffffff;fontSize=14;" vertex="1" parent="561">
                    <mxGeometry width="30" height="30" relative="1" as="geometry">
                        <mxPoint x="100" as="offset"/>
                    </mxGeometry>
                </mxCell>
                <mxCell id="565" value="3" style="strokeColor=inherit;fillColor=inherit;gradientColor=inherit;fontColor=inherit;html=1;shadow=0;dashed=0;perimeter=none;whiteSpace=wrap;resizeHeight=1;fontSize=14;" vertex="1" parent="561">
                    <mxGeometry width="30" height="30" relative="1" as="geometry">
                        <mxPoint x="130" as="offset"/>
                    </mxGeometry>
                </mxCell>
                <mxCell id="566" value="Next" style="strokeColor=inherit;fillColor=inherit;gradientColor=inherit;fontColor=inherit;html=1;shadow=0;dashed=0;shape=mxgraph.bootstrap.rightButton;rSize=5;perimeter=none;whiteSpace=wrap;resizeHeight=1;fontSize=14;" vertex="1" parent="561">
                    <mxGeometry x="1" width="60" height="30" relative="1" as="geometry">
                        <mxPoint x="-60" as="offset"/>
                    </mxGeometry>
                </mxCell>
                <mxCell id="567" value="Image cap" style="html=1;shadow=0;dashed=0;shape=mxgraph.bootstrap.topButton;rSize=5;perimeter=none;whiteSpace=wrap;fillColor=#868E96;strokeColor=#DFDFDF;fontColor=#DEE2E6;resizeWidth=1;fontSize=18;" vertex="1" parent="547">
                    <mxGeometry x="90" y="260" width="170" height="140" as="geometry"/>
                </mxCell>
                <mxCell id="568" value="Lorem ipsum dolor sit amet, consectetur adipisicing elit, sed do eiusmod tempor incididunt ut labore et dolore magna aliqua. Ut enim ad minim veniam, quis nostrud exercitation ullamco laboris nisi ut aliquip ex ea commodo consequat." style="text;spacingTop=-5;whiteSpace=wrap;html=1;align=left;fontSize=12;fontFamily=Helvetica;fillColor=none;strokeColor=none;" vertex="1" parent="547">
                    <mxGeometry x="290" y="270" width="170" height="120" as="geometry"/>
                </mxCell>
                <mxCell id="569" value="Aceptar Oferta de Intercambio" style="fillColor=none;strokeColor=none;align=left;fontSize=20;" vertex="1" parent="547">
                    <mxGeometry x="62.5" y="180" width="70" height="40" as="geometry"/>
                </mxCell>
                <mxCell id="570" value="Image cap" style="html=1;shadow=0;dashed=0;shape=mxgraph.bootstrap.topButton;rSize=5;perimeter=none;whiteSpace=wrap;fillColor=#868E96;strokeColor=#DFDFDF;fontColor=#DEE2E6;resizeWidth=1;fontSize=18;" vertex="1" parent="547">
                    <mxGeometry x="510" y="260" width="170" height="140" as="geometry"/>
                </mxCell>
                <mxCell id="571" value="Lorem ipsum dolor sit amet, consectetur adipisicing elit, sed do eiusmod tempor incididunt ut labore et dolore magna aliqua. Ut enim ad minim veniam, quis nostrud exercitation ullamco laboris nisi ut aliquip ex ea commodo consequat." style="text;spacingTop=-5;whiteSpace=wrap;html=1;align=left;fontSize=12;fontFamily=Helvetica;fillColor=none;strokeColor=none;" vertex="1" parent="547">
                    <mxGeometry x="710" y="270" width="170" height="120" as="geometry"/>
                </mxCell>
                <mxCell id="572" value="Aceptar Intercambio" style="html=1;shadow=0;dashed=0;shape=mxgraph.bootstrap.rrect;rSize=5;strokeColor=none;strokeWidth=1;fillColor=#33A64C;fontColor=#FFFFFF;whiteSpace=wrap;align=center;verticalAlign=middle;spacingLeft=0;fontStyle=0;fontSize=16;spacing=5;" vertex="1" parent="547">
                    <mxGeometry x="90" y="420" width="180" height="30" as="geometry"/>
                </mxCell>
                <mxCell id="573" value="Rechar Intercambio" style="html=1;shadow=0;dashed=0;shape=mxgraph.bootstrap.rrect;rSize=5;strokeColor=none;strokeWidth=1;fillColor=#DB2843;fontColor=#FFFFFF;whiteSpace=wrap;align=center;verticalAlign=middle;spacingLeft=0;fontStyle=0;fontSize=16;spacing=5;" vertex="1" parent="547">
                    <mxGeometry x="510" y="420" width="180" height="30" as="geometry"/>
                </mxCell>
                <mxCell id="584" value="Z" style="strokeWidth=1;shadow=0;dashed=0;align=center;html=1;shape=mxgraph.mockup.containers.browserWindow;rSize=0;strokeColor=#666666;strokeColor2=#008cff;strokeColor3=#c4c4c4;mainText=,;recursiveResize=0;" vertex="1" parent="1">
                    <mxGeometry x="-1390" y="6550" width="960" height="700" as="geometry"/>
                </mxCell>
                <mxCell id="585" value="Page 1" style="strokeWidth=1;shadow=0;dashed=0;align=center;html=1;shape=mxgraph.mockup.containers.anchor;fontSize=17;fontColor=#666666;align=left;whiteSpace=wrap;" vertex="1" parent="584">
                    <mxGeometry x="60" y="12" width="110" height="26" as="geometry"/>
                </mxCell>
                <mxCell id="586" value="https://www.draw.io" style="strokeWidth=1;shadow=0;dashed=0;align=center;html=1;shape=mxgraph.mockup.containers.anchor;rSize=0;fontSize=17;fontColor=#666666;align=left;" vertex="1" parent="584">
                    <mxGeometry x="130" y="60" width="250" height="26" as="geometry"/>
                </mxCell>
                <mxCell id="587" value="Navbar" style="html=1;shadow=0;dashed=0;fillColor=#F8F9FA;strokeColor=none;fontSize=16;fontColor=#181819;align=left;spacing=15;" vertex="1" parent="584">
                    <mxGeometry y="110" width="960" height="60" as="geometry"/>
                </mxCell>
                <mxCell id="588" value="Home" style="fillColor=none;strokeColor=none;fontSize=14;fontColor=#181819;align=center;" vertex="1" parent="587">
                    <mxGeometry width="70" height="40" relative="1" as="geometry">
                        <mxPoint x="70" y="10" as="offset"/>
                    </mxGeometry>
                </mxCell>
                <mxCell id="589" value="Mi Cuenta" style="fillColor=none;strokeColor=none;fontSize=14;fontColor=#7C7C7D;align=right;spacingRight=20;" vertex="1" parent="587">
                    <mxGeometry width="100" height="40" relative="1" as="geometry">
                        <mxPoint x="136" y="10" as="offset"/>
                    </mxGeometry>
                </mxCell>
                <mxCell id="590" value="" style="shape=triangle;direction=south;fillColor=#7C7C7D;strokeColor=none;perimeter=none;" vertex="1" parent="589">
                    <mxGeometry x="1" y="0.5" width="10" height="5" relative="1" as="geometry">
                        <mxPoint x="-17" y="-2.5" as="offset"/>
                    </mxGeometry>
                </mxCell>
                <mxCell id="591" value="Login" style="html=1;shadow=0;dashed=0;shape=mxgraph.bootstrap.rrect;rSize=5;fontSize=14;fontColor=#33A64C;strokeColor=#33A64C;fillColor=none;" vertex="1" parent="587">
                    <mxGeometry x="1" width="70" height="40" relative="1" as="geometry">
                        <mxPoint x="-80" y="10" as="offset"/>
                    </mxGeometry>
                </mxCell>
                <mxCell id="592" value="chat" style="html=1;shadow=0;dashed=0;shape=mxgraph.bootstrap.rrect;rSize=5;fontSize=14;fontColor=#33A64C;strokeColor=#33A64C;fillColor=none;" vertex="1" parent="587">
                    <mxGeometry x="796" y="10" width="70" height="40" as="geometry"/>
                </mxCell>
                <mxCell id="593" value="Compras y Ventas" style="fillColor=none;strokeColor=none;fontSize=14;fontColor=#7C7C7D;align=right;spacingRight=20;" vertex="1" parent="587">
                    <mxGeometry x="240" y="10" width="146" height="40" as="geometry"/>
                </mxCell>
                <mxCell id="594" value="" style="shape=triangle;direction=south;fillColor=#7C7C7D;strokeColor=none;perimeter=none;" vertex="1" parent="593">
                    <mxGeometry x="1" y="0.5" width="10" height="5" relative="1" as="geometry">
                        <mxPoint x="-17" y="-2.5" as="offset"/>
                    </mxGeometry>
                </mxCell>
                <mxCell id="595" value="Articulos" style="fillColor=none;strokeColor=none;fontSize=14;fontColor=#7C7C7D;align=right;spacingRight=20;" vertex="1" parent="587">
                    <mxGeometry x="394" y="10" width="86" height="40" as="geometry"/>
                </mxCell>
                <mxCell id="596" value="" style="shape=triangle;direction=south;fillColor=#7C7C7D;strokeColor=none;perimeter=none;" vertex="1" parent="595">
                    <mxGeometry x="1" y="0.5" width="10" height="5" relative="1" as="geometry">
                        <mxPoint x="-17" y="-2.5" as="offset"/>
                    </mxGeometry>
                </mxCell>
                <mxCell id="606" value="" style="html=1;shadow=0;dashed=0;shape=mxgraph.bootstrap.rrect;rSize=5;strokeColor=#DEE2E6;html=1;whiteSpace=wrap;fillColor=#ffffff;fontColor=#0085FC;fontSize=14;" vertex="1" parent="584">
                    <mxGeometry x="370" y="650" width="220" height="30" as="geometry"/>
                </mxCell>
                <mxCell id="607" value="Previous" style="strokeColor=inherit;fillColor=inherit;gradientColor=inherit;fontColor=inherit;html=1;shadow=0;dashed=0;shape=mxgraph.bootstrap.leftButton;rSize=5;perimeter=none;whiteSpace=wrap;resizeHeight=1;fontSize=14;" vertex="1" parent="606">
                    <mxGeometry width="70" height="30" relative="1" as="geometry"/>
                </mxCell>
                <mxCell id="608" value="1" style="strokeColor=inherit;fillColor=inherit;gradientColor=inherit;fontColor=inherit;html=1;shadow=0;dashed=0;perimeter=none;whiteSpace=wrap;resizeHeight=1;fontSize=14;" vertex="1" parent="606">
                    <mxGeometry width="30" height="30" relative="1" as="geometry">
                        <mxPoint x="70" as="offset"/>
                    </mxGeometry>
                </mxCell>
                <mxCell id="609" value="2" style="strokeColor=inherit;fillColor=inherit;gradientColor=inherit;fontColor=inherit;html=1;shadow=0;dashed=0;perimeter=none;whiteSpace=wrap;resizeHeight=1;fontSize=14;" vertex="1" parent="606">
                    <mxGeometry width="30" height="30" relative="1" as="geometry">
                        <mxPoint x="100" as="offset"/>
                    </mxGeometry>
                </mxCell>
                <mxCell id="610" value="3" style="strokeColor=inherit;fillColor=inherit;gradientColor=inherit;fontColor=inherit;html=1;shadow=0;dashed=0;perimeter=none;whiteSpace=wrap;resizeHeight=1;fontSize=14;" vertex="1" parent="606">
                    <mxGeometry width="30" height="30" relative="1" as="geometry">
                        <mxPoint x="130" as="offset"/>
                    </mxGeometry>
                </mxCell>
                <mxCell id="611" value="Next" style="strokeColor=inherit;fillColor=inherit;gradientColor=inherit;fontColor=inherit;html=1;shadow=0;dashed=0;shape=mxgraph.bootstrap.rightButton;rSize=5;perimeter=none;whiteSpace=wrap;resizeHeight=1;fontSize=14;" vertex="1" parent="606">
                    <mxGeometry x="1" width="60" height="30" relative="1" as="geometry">
                        <mxPoint x="-60" as="offset"/>
                    </mxGeometry>
                </mxCell>
                <mxCell id="614" value="Mis Articulos" style="fillColor=none;strokeColor=none;align=left;fontSize=20;" vertex="1" parent="584">
                    <mxGeometry x="40" y="190" width="70" height="40" as="geometry"/>
                </mxCell>
                <mxCell id="597" value="&lt;b&gt;&lt;font style=&quot;font-size: 20px&quot;&gt;Producto 1&lt;/font&gt;&lt;/b&gt;&lt;br&gt;&lt;br&gt;This is a wider card with supporting text below as a natural lead-in to additional content. This content is a little bit longer." style="html=1;shadow=0;dashed=0;shape=mxgraph.bootstrap.rrect;rSize=5;strokeColor=#DFDFDF;html=1;whiteSpace=wrap;fillColor=#ffffff;fontColor=#000000;verticalAlign=top;align=left;spacing=20;spacingBottom=0;fontSize=14;spacingTop=160;" vertex="1" parent="584">
                    <mxGeometry width="230" height="360" relative="1" as="geometry">
                        <mxPoint x="115" y="240" as="offset"/>
                    </mxGeometry>
                </mxCell>
                <mxCell id="598" value="Image cap" style="html=1;shadow=0;dashed=0;shape=mxgraph.bootstrap.topButton;rSize=5;perimeter=none;whiteSpace=wrap;fillColor=#868E96;strokeColor=#DFDFDF;fontColor=#DEE2E6;resizeWidth=1;fontSize=18;" vertex="1" parent="597">
                    <mxGeometry width="230" height="160" relative="1" as="geometry"/>
                </mxCell>
                <mxCell id="599" value="Editar" style="html=1;shadow=0;dashed=0;shape=mxgraph.bootstrap.rrect;rSize=5;strokeColor=#0085FC;strokeWidth=1;fillColor=none;fontColor=#0085FC;whiteSpace=wrap;align=center;verticalAlign=middle;spacingLeft=0;fontStyle=0;fontSize=16;spacing=5;" vertex="1" parent="597">
                    <mxGeometry x="15.923076923076923" y="317.1891891891892" width="44.230769230769226" height="29.18918918918919" as="geometry"/>
                </mxCell>
                <mxCell id="615" value="&lt;b&gt;&lt;font style=&quot;font-size: 20px&quot;&gt;Producto 1&lt;/font&gt;&lt;/b&gt;&lt;br&gt;&lt;br&gt;This is a wider card with supporting text below as a natural lead-in to additional content. This content is a little bit longer." style="html=1;shadow=0;dashed=0;shape=mxgraph.bootstrap.rrect;rSize=5;strokeColor=#DFDFDF;html=1;whiteSpace=wrap;fillColor=#ffffff;fontColor=#000000;verticalAlign=top;align=left;spacing=20;spacingBottom=0;fontSize=14;spacingTop=160;" vertex="1" parent="584">
                    <mxGeometry x="365" y="240" width="230" height="360" as="geometry"/>
                </mxCell>
                <mxCell id="616" value="Image cap" style="html=1;shadow=0;dashed=0;shape=mxgraph.bootstrap.topButton;rSize=5;perimeter=none;whiteSpace=wrap;fillColor=#868E96;strokeColor=#DFDFDF;fontColor=#DEE2E6;resizeWidth=1;fontSize=18;" vertex="1" parent="615">
                    <mxGeometry width="230" height="160" relative="1" as="geometry"/>
                </mxCell>
                <mxCell id="617" value="Editar" style="html=1;shadow=0;dashed=0;shape=mxgraph.bootstrap.rrect;rSize=5;strokeColor=#0085FC;strokeWidth=1;fillColor=none;fontColor=#0085FC;whiteSpace=wrap;align=center;verticalAlign=middle;spacingLeft=0;fontStyle=0;fontSize=16;spacing=5;" vertex="1" parent="615">
                    <mxGeometry x="15.923076923076923" y="317.1891891891892" width="44.230769230769226" height="29.18918918918919" as="geometry"/>
                </mxCell>
                <mxCell id="618" value="&lt;b&gt;&lt;font style=&quot;font-size: 20px&quot;&gt;Producto 1&lt;/font&gt;&lt;/b&gt;&lt;br&gt;&lt;br&gt;This is a wider card with supporting text below as a natural lead-in to additional content. This content is a little bit longer." style="html=1;shadow=0;dashed=0;shape=mxgraph.bootstrap.rrect;rSize=5;strokeColor=#DFDFDF;html=1;whiteSpace=wrap;fillColor=#ffffff;fontColor=#000000;verticalAlign=top;align=left;spacing=20;spacingBottom=0;fontSize=14;spacingTop=160;" vertex="1" parent="584">
                    <mxGeometry x="615" y="240" width="230" height="360" as="geometry"/>
                </mxCell>
                <mxCell id="619" value="Image cap" style="html=1;shadow=0;dashed=0;shape=mxgraph.bootstrap.topButton;rSize=5;perimeter=none;whiteSpace=wrap;fillColor=#868E96;strokeColor=#DFDFDF;fontColor=#DEE2E6;resizeWidth=1;fontSize=18;" vertex="1" parent="618">
                    <mxGeometry width="230" height="160" relative="1" as="geometry"/>
                </mxCell>
                <mxCell id="620" value="Editar" style="html=1;shadow=0;dashed=0;shape=mxgraph.bootstrap.rrect;rSize=5;strokeColor=#0085FC;strokeWidth=1;fillColor=none;fontColor=#0085FC;whiteSpace=wrap;align=center;verticalAlign=middle;spacingLeft=0;fontStyle=0;fontSize=16;spacing=5;" vertex="1" parent="618">
                    <mxGeometry x="15.923076923076923" y="317.1891891891892" width="44.230769230769226" height="29.18918918918919" as="geometry"/>
                </mxCell>
                <mxCell id="621" value="" style="strokeWidth=1;shadow=0;dashed=0;align=center;html=1;shape=mxgraph.mockup.containers.browserWindow;rSize=0;strokeColor=#666666;strokeColor2=#008cff;strokeColor3=#c4c4c4;mainText=,;recursiveResize=0;" vertex="1" parent="1">
                    <mxGeometry x="-1390" y="7300" width="960" height="700" as="geometry"/>
                </mxCell>
                <mxCell id="622" value="Page 1" style="strokeWidth=1;shadow=0;dashed=0;align=center;html=1;shape=mxgraph.mockup.containers.anchor;fontSize=17;fontColor=#666666;align=left;whiteSpace=wrap;" vertex="1" parent="621">
                    <mxGeometry x="60" y="12" width="110" height="26" as="geometry"/>
                </mxCell>
                <mxCell id="623" value="https://www.draw.io" style="strokeWidth=1;shadow=0;dashed=0;align=center;html=1;shape=mxgraph.mockup.containers.anchor;rSize=0;fontSize=17;fontColor=#666666;align=left;" vertex="1" parent="621">
                    <mxGeometry x="130" y="60" width="250" height="26" as="geometry"/>
                </mxCell>
                <mxCell id="624" value="Navbar" style="html=1;shadow=0;dashed=0;fillColor=#F8F9FA;strokeColor=none;fontSize=16;fontColor=#181819;align=left;spacing=15;" vertex="1" parent="621">
                    <mxGeometry y="110" width="960" height="60" as="geometry"/>
                </mxCell>
                <mxCell id="625" value="Home" style="fillColor=none;strokeColor=none;fontSize=14;fontColor=#181819;align=center;" vertex="1" parent="624">
                    <mxGeometry width="70" height="40" relative="1" as="geometry">
                        <mxPoint x="70" y="10" as="offset"/>
                    </mxGeometry>
                </mxCell>
                <mxCell id="626" value="Mi Cuenta" style="fillColor=none;strokeColor=none;fontSize=14;fontColor=#7C7C7D;align=right;spacingRight=20;" vertex="1" parent="624">
                    <mxGeometry width="100" height="40" relative="1" as="geometry">
                        <mxPoint x="136" y="10" as="offset"/>
                    </mxGeometry>
                </mxCell>
                <mxCell id="627" value="" style="shape=triangle;direction=south;fillColor=#7C7C7D;strokeColor=none;perimeter=none;" vertex="1" parent="626">
                    <mxGeometry x="1" y="0.5" width="10" height="5" relative="1" as="geometry">
                        <mxPoint x="-17" y="-2.5" as="offset"/>
                    </mxGeometry>
                </mxCell>
                <mxCell id="628" value="Login" style="html=1;shadow=0;dashed=0;shape=mxgraph.bootstrap.rrect;rSize=5;fontSize=14;fontColor=#33A64C;strokeColor=#33A64C;fillColor=none;" vertex="1" parent="624">
                    <mxGeometry x="1" width="70" height="40" relative="1" as="geometry">
                        <mxPoint x="-80" y="10" as="offset"/>
                    </mxGeometry>
                </mxCell>
                <mxCell id="629" value="chat" style="html=1;shadow=0;dashed=0;shape=mxgraph.bootstrap.rrect;rSize=5;fontSize=14;fontColor=#33A64C;strokeColor=#33A64C;fillColor=none;" vertex="1" parent="624">
                    <mxGeometry x="796" y="10" width="70" height="40" as="geometry"/>
                </mxCell>
                <mxCell id="630" value="Compras y Ventas" style="fillColor=none;strokeColor=none;fontSize=14;fontColor=#7C7C7D;align=right;spacingRight=20;" vertex="1" parent="624">
                    <mxGeometry x="240" y="10" width="146" height="40" as="geometry"/>
                </mxCell>
                <mxCell id="631" value="" style="shape=triangle;direction=south;fillColor=#7C7C7D;strokeColor=none;perimeter=none;" vertex="1" parent="630">
                    <mxGeometry x="1" y="0.5" width="10" height="5" relative="1" as="geometry">
                        <mxPoint x="-17" y="-2.5" as="offset"/>
                    </mxGeometry>
                </mxCell>
                <mxCell id="632" value="Articulos" style="fillColor=none;strokeColor=none;fontSize=14;fontColor=#7C7C7D;align=right;spacingRight=20;" vertex="1" parent="624">
                    <mxGeometry x="394" y="10" width="86" height="40" as="geometry"/>
                </mxCell>
                <mxCell id="633" value="" style="shape=triangle;direction=south;fillColor=#7C7C7D;strokeColor=none;perimeter=none;" vertex="1" parent="632">
                    <mxGeometry x="1" y="0.5" width="10" height="5" relative="1" as="geometry">
                        <mxPoint x="-17" y="-2.5" as="offset"/>
                    </mxGeometry>
                </mxCell>
                <mxCell id="640" value="Mis Articulos" style="fillColor=none;strokeColor=none;align=left;fontSize=20;" vertex="1" parent="621">
                    <mxGeometry x="40" y="190" width="70" height="40" as="geometry"/>
                </mxCell>
                <mxCell id="670" value="" style="shape=table;html=1;whiteSpace=wrap;startSize=0;container=1;collapsible=0;childLayout=tableLayout;strokeWidth=2;fontSize=20;" vertex="1" parent="621">
                    <mxGeometry x="65" y="260" width="830" height="340" as="geometry"/>
                </mxCell>
                <mxCell id="671" value="" style="shape=tableRow;horizontal=0;startSize=0;swimlaneHead=0;swimlaneBody=0;top=0;left=0;bottom=0;right=0;collapsible=0;dropTarget=0;fillColor=none;points=[[0,0.5],[1,0.5]];portConstraint=eastwest;fontSize=20;" vertex="1" parent="670">
                    <mxGeometry width="830" height="57" as="geometry"/>
                </mxCell>
                <mxCell id="672" value="Imagen" style="shape=partialRectangle;html=1;whiteSpace=wrap;connectable=0;fillColor=none;top=0;left=0;bottom=0;right=0;overflow=hidden;fontStyle=1;fontSize=20;" vertex="1" parent="671">
                    <mxGeometry width="277" height="57" as="geometry">
                        <mxRectangle width="277" height="57" as="alternateBounds"/>
                    </mxGeometry>
                </mxCell>
                <mxCell id="673" value="Nombre" style="shape=partialRectangle;html=1;whiteSpace=wrap;connectable=0;fillColor=none;top=0;left=0;bottom=0;right=0;overflow=hidden;fontStyle=1;fontSize=20;" vertex="1" parent="671">
                    <mxGeometry x="277" width="277" height="57" as="geometry">
                        <mxRectangle width="277" height="57" as="alternateBounds"/>
                    </mxGeometry>
                </mxCell>
                <mxCell id="681" value="Accion" style="shape=partialRectangle;html=1;whiteSpace=wrap;connectable=0;fillColor=none;top=0;left=0;bottom=0;right=0;overflow=hidden;fontStyle=1;fontSize=20;" vertex="1" parent="671">
                    <mxGeometry x="554" width="276" height="57" as="geometry">
                        <mxRectangle width="276" height="57" as="alternateBounds"/>
                    </mxGeometry>
                </mxCell>
                <mxCell id="674" value="" style="shape=tableRow;horizontal=0;startSize=0;swimlaneHead=0;swimlaneBody=0;top=0;left=0;bottom=0;right=0;collapsible=0;dropTarget=0;fillColor=none;points=[[0,0.5],[1,0.5]];portConstraint=eastwest;fontSize=20;" vertex="1" parent="670">
                    <mxGeometry y="57" width="830" height="139" as="geometry"/>
                </mxCell>
                <mxCell id="675" value="" style="shape=partialRectangle;html=1;whiteSpace=wrap;connectable=0;fillColor=none;top=0;left=0;bottom=0;right=0;overflow=hidden;fontSize=20;" vertex="1" parent="674">
                    <mxGeometry width="277" height="139" as="geometry">
                        <mxRectangle width="277" height="139" as="alternateBounds"/>
                    </mxGeometry>
                </mxCell>
                <mxCell id="676" value="Producto 1" style="shape=partialRectangle;html=1;whiteSpace=wrap;connectable=0;fillColor=none;top=0;left=0;bottom=0;right=0;overflow=hidden;fontSize=20;" vertex="1" parent="674">
                    <mxGeometry x="277" width="277" height="139" as="geometry">
                        <mxRectangle width="277" height="139" as="alternateBounds"/>
                    </mxGeometry>
                </mxCell>
                <mxCell id="682" style="shape=partialRectangle;html=1;whiteSpace=wrap;connectable=0;fillColor=none;top=0;left=0;bottom=0;right=0;overflow=hidden;fontSize=20;" vertex="1" parent="674">
                    <mxGeometry x="554" width="276" height="139" as="geometry">
                        <mxRectangle width="276" height="139" as="alternateBounds"/>
                    </mxGeometry>
                </mxCell>
                <mxCell id="677" value="" style="shape=tableRow;horizontal=0;startSize=0;swimlaneHead=0;swimlaneBody=0;top=0;left=0;bottom=0;right=0;collapsible=0;dropTarget=0;fillColor=none;points=[[0,0.5],[1,0.5]];portConstraint=eastwest;fontSize=20;" vertex="1" parent="670">
                    <mxGeometry y="196" width="830" height="144" as="geometry"/>
                </mxCell>
                <mxCell id="678" value="" style="shape=partialRectangle;html=1;whiteSpace=wrap;connectable=0;fillColor=none;top=0;left=0;bottom=0;right=0;overflow=hidden;fontSize=20;" vertex="1" parent="677">
                    <mxGeometry width="277" height="144" as="geometry">
                        <mxRectangle width="277" height="144" as="alternateBounds"/>
                    </mxGeometry>
                </mxCell>
                <mxCell id="679" value="Producto 2&lt;br&gt;" style="shape=partialRectangle;html=1;whiteSpace=wrap;connectable=0;fillColor=none;top=0;left=0;bottom=0;right=0;overflow=hidden;fontSize=20;" vertex="1" parent="677">
                    <mxGeometry x="277" width="277" height="144" as="geometry">
                        <mxRectangle width="277" height="144" as="alternateBounds"/>
                    </mxGeometry>
                </mxCell>
                <mxCell id="683" style="shape=partialRectangle;html=1;whiteSpace=wrap;connectable=0;fillColor=none;top=0;left=0;bottom=0;right=0;overflow=hidden;fontSize=20;" vertex="1" parent="677">
                    <mxGeometry x="554" width="276" height="144" as="geometry">
                        <mxRectangle width="276" height="144" as="alternateBounds"/>
                    </mxGeometry>
                </mxCell>
                <mxCell id="642" value="Image cap" style="html=1;shadow=0;dashed=0;shape=mxgraph.bootstrap.topButton;rSize=5;perimeter=none;whiteSpace=wrap;fillColor=#868E96;strokeColor=#DFDFDF;fontColor=#DEE2E6;resizeWidth=1;fontSize=18;" vertex="1" parent="621">
                    <mxGeometry width="170" height="120" relative="1" as="geometry">
                        <mxPoint x="120" y="327" as="offset"/>
                    </mxGeometry>
                </mxCell>
                <mxCell id="685" value="Image cap" style="html=1;shadow=0;dashed=0;shape=mxgraph.bootstrap.topButton;rSize=5;perimeter=none;whiteSpace=wrap;fillColor=#868E96;strokeColor=#DFDFDF;fontColor=#DEE2E6;resizeWidth=1;fontSize=18;" vertex="1" parent="621">
                    <mxGeometry x="120" y="470" width="170" height="120" as="geometry"/>
                </mxCell>
                <mxCell id="686" value="Crear Publicacion" style="html=1;shadow=0;dashed=0;shape=mxgraph.bootstrap.rrect;rSize=5;strokeColor=none;strokeWidth=1;fillColor=#0085FC;fontColor=#FFFFFF;whiteSpace=wrap;align=center;verticalAlign=middle;spacingLeft=0;fontStyle=0;fontSize=16;spacing=5;" vertex="1" parent="621">
                    <mxGeometry x="680" y="360" width="150" height="40" as="geometry"/>
                </mxCell>
                <mxCell id="687" value="Crear Publicacion" style="html=1;shadow=0;dashed=0;shape=mxgraph.bootstrap.rrect;rSize=5;strokeColor=none;strokeWidth=1;fillColor=#0085FC;fontColor=#FFFFFF;whiteSpace=wrap;align=center;verticalAlign=middle;spacingLeft=0;fontStyle=0;fontSize=16;spacing=5;" vertex="1" parent="621">
                    <mxGeometry x="680" y="510" width="150" height="40" as="geometry"/>
                </mxCell>
                <mxCell id="688" value="" style="strokeWidth=1;shadow=0;dashed=0;align=center;html=1;shape=mxgraph.mockup.containers.browserWindow;rSize=0;strokeColor=#666666;strokeColor2=#008cff;strokeColor3=#c4c4c4;mainText=,;recursiveResize=0;" vertex="1" parent="1">
                    <mxGeometry x="-1390" y="8050" width="960" height="790" as="geometry"/>
                </mxCell>
                <mxCell id="689" value="Page 1" style="strokeWidth=1;shadow=0;dashed=0;align=center;html=1;shape=mxgraph.mockup.containers.anchor;fontSize=17;fontColor=#666666;align=left;whiteSpace=wrap;" vertex="1" parent="688">
                    <mxGeometry x="60" y="12" width="110" height="26" as="geometry"/>
                </mxCell>
                <mxCell id="690" value="https://www.draw.io" style="strokeWidth=1;shadow=0;dashed=0;align=center;html=1;shape=mxgraph.mockup.containers.anchor;rSize=0;fontSize=17;fontColor=#666666;align=left;" vertex="1" parent="688">
                    <mxGeometry x="130" y="60" width="250" height="26" as="geometry"/>
                </mxCell>
                <mxCell id="691" value="Navbar" style="html=1;shadow=0;dashed=0;fillColor=#F8F9FA;strokeColor=none;fontSize=16;fontColor=#181819;align=left;spacing=15;" vertex="1" parent="688">
                    <mxGeometry y="110" width="960" height="60" as="geometry"/>
                </mxCell>
                <mxCell id="692" value="Home" style="fillColor=none;strokeColor=none;fontSize=14;fontColor=#181819;align=center;" vertex="1" parent="691">
                    <mxGeometry width="70" height="40" relative="1" as="geometry">
                        <mxPoint x="70" y="10" as="offset"/>
                    </mxGeometry>
                </mxCell>
                <mxCell id="693" value="Mi Cuenta" style="fillColor=none;strokeColor=none;fontSize=14;fontColor=#7C7C7D;align=right;spacingRight=20;" vertex="1" parent="691">
                    <mxGeometry width="100" height="40" relative="1" as="geometry">
                        <mxPoint x="136" y="10" as="offset"/>
                    </mxGeometry>
                </mxCell>
                <mxCell id="694" value="" style="shape=triangle;direction=south;fillColor=#7C7C7D;strokeColor=none;perimeter=none;" vertex="1" parent="693">
                    <mxGeometry x="1" y="0.5" width="10" height="5" relative="1" as="geometry">
                        <mxPoint x="-17" y="-2.5" as="offset"/>
                    </mxGeometry>
                </mxCell>
                <mxCell id="695" value="Login" style="html=1;shadow=0;dashed=0;shape=mxgraph.bootstrap.rrect;rSize=5;fontSize=14;fontColor=#33A64C;strokeColor=#33A64C;fillColor=none;" vertex="1" parent="691">
                    <mxGeometry x="1" width="70" height="40" relative="1" as="geometry">
                        <mxPoint x="-80" y="10" as="offset"/>
                    </mxGeometry>
                </mxCell>
                <mxCell id="696" value="chat" style="html=1;shadow=0;dashed=0;shape=mxgraph.bootstrap.rrect;rSize=5;fontSize=14;fontColor=#33A64C;strokeColor=#33A64C;fillColor=none;" vertex="1" parent="691">
                    <mxGeometry x="796" y="10" width="70" height="40" as="geometry"/>
                </mxCell>
                <mxCell id="697" value="Compras y Ventas" style="fillColor=none;strokeColor=none;fontSize=14;fontColor=#7C7C7D;align=right;spacingRight=20;" vertex="1" parent="691">
                    <mxGeometry x="240" y="10" width="146" height="40" as="geometry"/>
                </mxCell>
                <mxCell id="698" value="" style="shape=triangle;direction=south;fillColor=#7C7C7D;strokeColor=none;perimeter=none;" vertex="1" parent="697">
                    <mxGeometry x="1" y="0.5" width="10" height="5" relative="1" as="geometry">
                        <mxPoint x="-17" y="-2.5" as="offset"/>
                    </mxGeometry>
                </mxCell>
                <mxCell id="699" value="Articulos" style="fillColor=none;strokeColor=none;fontSize=14;fontColor=#7C7C7D;align=right;spacingRight=20;" vertex="1" parent="691">
                    <mxGeometry x="394" y="10" width="86" height="40" as="geometry"/>
                </mxCell>
                <mxCell id="700" value="" style="shape=triangle;direction=south;fillColor=#7C7C7D;strokeColor=none;perimeter=none;" vertex="1" parent="699">
                    <mxGeometry x="1" y="0.5" width="10" height="5" relative="1" as="geometry">
                        <mxPoint x="-17" y="-2.5" as="offset"/>
                    </mxGeometry>
                </mxCell>
                <mxCell id="701" value="Chat" style="fillColor=none;strokeColor=none;align=left;fontSize=20;" vertex="1" parent="688">
                    <mxGeometry x="40" y="190" width="70" height="40" as="geometry"/>
                </mxCell>
                <mxCell id="719" value="Chat de Persona" style="html=1;shadow=0;dashed=0;shape=mxgraph.bootstrap.rrect;rSize=5;html=1;strokeColor=#C8C8C8;fillColor=#ffffff;whiteSpace=wrap;verticalAlign=top;align=left;fontSize=18;spacing=15;spacingTop=-5;" vertex="1" parent="688">
                    <mxGeometry x="380" y="230" width="520" height="510" as="geometry"/>
                </mxCell>
                <mxCell id="720" value="" style="shape=line;strokeColor=#dddddd;resizeWidth=1;fontSize=20;" vertex="1" parent="719">
                    <mxGeometry width="520" height="10" relative="1" as="geometry">
                        <mxPoint y="40" as="offset"/>
                    </mxGeometry>
                </mxCell>
                <mxCell id="723" value="" style="shape=line;strokeColor=#dddddd;resizeWidth=1;fontSize=20;" vertex="1" parent="719">
                    <mxGeometry width="520" height="10" relative="1" as="geometry">
                        <mxPoint y="460" as="offset"/>
                    </mxGeometry>
                </mxCell>
                <mxCell id="724" value="Send" style="html=1;shadow=0;dashed=0;shape=mxgraph.bootstrap.rrect;rSize=5;fillColor=#0085FC;strokeColor=none;fontColor=#FFFFFF;fontSize=14;" vertex="1" parent="719">
                    <mxGeometry x="1" y="1" width="49" height="31" relative="1" as="geometry">
                        <mxPoint x="-60" y="-38" as="offset"/>
                    </mxGeometry>
                </mxCell>
                <mxCell id="728" value="Mensaje ..." style="html=1;shadow=0;dashed=0;shape=mxgraph.bootstrap.rrect;rSize=5;strokeColor=#CED4DA;strokeWidth=1;fillColor=#E9ECEF;fontColor=#505050;whiteSpace=wrap;align=left;verticalAlign=middle;spacingLeft=10;fontSize=14;" vertex="1" parent="719">
                    <mxGeometry x="10" y="473" width="440" height="30" as="geometry"/>
                </mxCell>
                <mxCell id="729" value="" style="html=1;shadow=0;dashed=0;shape=mxgraph.bootstrap.rrect;rSize=5;strokeColor=none;strokeWidth=1;fillColor=#0085FC;fontColor=#FFFFFF;whiteSpace=wrap;align=center;verticalAlign=middle;spacingLeft=0;fontStyle=0;fontSize=16;spacing=5;" vertex="1" parent="719">
                    <mxGeometry x="280" y="60" width="230" height="80" as="geometry"/>
                </mxCell>
                <mxCell id="731" value="" style="html=1;shadow=0;dashed=0;shape=mxgraph.bootstrap.rrect;rSize=5;strokeColor=none;strokeWidth=1;fillColor=#6C767D;fontColor=#FFFFFF;whiteSpace=wrap;align=left;verticalAlign=middle;spacingLeft=0;fontStyle=1;fontSize=14;spacing=5;" vertex="1" parent="719">
                    <mxGeometry x="10" y="150" width="230" height="80" as="geometry"/>
                </mxCell>
                <mxCell id="732" value="" style="html=1;shadow=0;dashed=0;shape=mxgraph.bootstrap.rrect;rSize=5;strokeColor=none;strokeWidth=1;fillColor=#0085FC;fontColor=#FFFFFF;whiteSpace=wrap;align=center;verticalAlign=middle;spacingLeft=0;fontStyle=0;fontSize=16;spacing=5;" vertex="1" parent="719">
                    <mxGeometry x="280" y="240" width="230" height="80" as="geometry"/>
                </mxCell>
                <mxCell id="733" value="" style="html=1;shadow=0;dashed=0;shape=mxgraph.bootstrap.rrect;rSize=5;strokeColor=none;strokeWidth=1;fillColor=#6C767D;fontColor=#FFFFFF;whiteSpace=wrap;align=left;verticalAlign=middle;spacingLeft=0;fontStyle=1;fontSize=14;spacing=5;" vertex="1" parent="719">
                    <mxGeometry x="10" y="340" width="230" height="80" as="geometry"/>
                </mxCell>
                <mxCell id="189" value="" style="html=1;shadow=0;dashed=0;shape=mxgraph.bootstrap.rrect;rSize=5;strokeColor=#DFDFDF;html=1;whiteSpace=wrap;fillColor=#FFFFFF;fontColor=#000000;" parent="688" vertex="1">
                    <mxGeometry x="40" y="280" width="310.00000000000006" height="240" as="geometry"/>
                </mxCell>
                <mxCell id="190" value="Cras justo odio" style="strokeColor=inherit;fillColor=inherit;gradientColor=inherit;fontColor=inherit;html=1;shadow=0;dashed=0;shape=mxgraph.bootstrap.topButton;rSize=5;perimeter=none;whiteSpace=wrap;resizeWidth=1;align=left;spacing=10;" parent="189" vertex="1">
                    <mxGeometry width="310.00000000000006" height="40" relative="1" as="geometry"/>
                </mxCell>
                <mxCell id="191" value="14" style="strokeColor=inherit;fillColor=inherit;gradientColor=inherit;fontColor=inherit;html=1;shadow=0;dashed=0;shape=mxgraph.bootstrap.rrect;rSize=8;fillColor=#0085FC;strokeColor=none;fontColor=#ffffff;whiteSpace=wrap;" parent="190" vertex="1">
                    <mxGeometry x="1" y="0.5" width="25" height="16" relative="1" as="geometry">
                        <mxPoint x="-40" y="-8" as="offset"/>
                    </mxGeometry>
                </mxCell>
                <mxCell id="192" value="Dapibus ac facilisis in" style="strokeColor=inherit;fillColor=inherit;gradientColor=inherit;fontColor=inherit;html=1;shadow=0;dashed=0;perimeter=none;whiteSpace=wrap;resizeWidth=1;align=left;spacing=10;" parent="189" vertex="1">
                    <mxGeometry width="310.00000000000006" height="40" relative="1" as="geometry">
                        <mxPoint y="40" as="offset"/>
                    </mxGeometry>
                </mxCell>
                <mxCell id="193" value="2" style="strokeColor=inherit;fillColor=inherit;gradientColor=inherit;fontColor=inherit;html=1;shadow=0;dashed=0;shape=mxgraph.bootstrap.rrect;rSize=8;fillColor=#0085FC;strokeColor=none;fontColor=#ffffff;whiteSpace=wrap;" parent="192" vertex="1">
                    <mxGeometry x="1" y="0.5" width="20" height="16" relative="1" as="geometry">
                        <mxPoint x="-38" y="-8" as="offset"/>
                    </mxGeometry>
                </mxCell>
                <mxCell id="194" value="Morbi leo risus" style="strokeColor=inherit;fillColor=inherit;gradientColor=inherit;fontColor=inherit;html=1;shadow=0;dashed=0;shape=mxgraph.bootstrap.bottomButton;rSize=5;perimeter=none;whiteSpace=wrap;resizeWidth=1;resizeHeight=0;align=left;spacing=10;" parent="189" vertex="1">
                    <mxGeometry y="1" width="310.00000000000006" height="40" relative="1" as="geometry">
                        <mxPoint y="-40" as="offset"/>
                    </mxGeometry>
                </mxCell>
                <mxCell id="195" value="1" style="strokeColor=inherit;fillColor=inherit;gradientColor=inherit;fontColor=inherit;html=1;shadow=0;dashed=0;shape=mxgraph.bootstrap.rrect;rSize=8;fillColor=#0085FC;strokeColor=none;fontColor=#ffffff;whiteSpace=wrap;" parent="194" vertex="1">
                    <mxGeometry x="1" y="0.5" width="20" height="16" relative="1" as="geometry">
                        <mxPoint x="-38" y="-8" as="offset"/>
                    </mxGeometry>
                </mxCell>
                <mxCell id="743" value="Dapibus ac facilisis in" style="strokeColor=inherit;fillColor=inherit;gradientColor=inherit;fontColor=inherit;html=1;shadow=0;dashed=0;perimeter=none;whiteSpace=wrap;resizeWidth=1;align=left;spacing=10;" vertex="1" parent="189">
                    <mxGeometry y="80" width="310.00000000000006" height="40" as="geometry"/>
                </mxCell>
                <mxCell id="744" value="2" style="strokeColor=inherit;fillColor=inherit;gradientColor=inherit;fontColor=inherit;html=1;shadow=0;dashed=0;shape=mxgraph.bootstrap.rrect;rSize=8;fillColor=#0085FC;strokeColor=none;fontColor=#ffffff;whiteSpace=wrap;" vertex="1" parent="743">
                    <mxGeometry x="1" y="0.5" width="20" height="16" relative="1" as="geometry">
                        <mxPoint x="-38" y="-8" as="offset"/>
                    </mxGeometry>
                </mxCell>
                <mxCell id="745" value="Dapibus ac facilisis in" style="strokeColor=inherit;fillColor=inherit;gradientColor=inherit;fontColor=inherit;html=1;shadow=0;dashed=0;perimeter=none;whiteSpace=wrap;resizeWidth=1;align=left;spacing=10;" vertex="1" parent="189">
                    <mxGeometry y="120" width="310.00000000000006" height="40" as="geometry"/>
                </mxCell>
                <mxCell id="746" value="2" style="strokeColor=inherit;fillColor=inherit;gradientColor=inherit;fontColor=inherit;html=1;shadow=0;dashed=0;shape=mxgraph.bootstrap.rrect;rSize=8;fillColor=#0085FC;strokeColor=none;fontColor=#ffffff;whiteSpace=wrap;" vertex="1" parent="745">
                    <mxGeometry x="1" y="0.5" width="20" height="16" relative="1" as="geometry">
                        <mxPoint x="-38" y="-8" as="offset"/>
                    </mxGeometry>
                </mxCell>
                <mxCell id="747" value="Dapibus ac facilisis in" style="strokeColor=inherit;fillColor=inherit;gradientColor=inherit;fontColor=inherit;html=1;shadow=0;dashed=0;perimeter=none;whiteSpace=wrap;resizeWidth=1;align=left;spacing=10;" vertex="1" parent="189">
                    <mxGeometry y="160" width="310.00000000000006" height="40" as="geometry"/>
                </mxCell>
                <mxCell id="748" value="2" style="strokeColor=inherit;fillColor=inherit;gradientColor=inherit;fontColor=inherit;html=1;shadow=0;dashed=0;shape=mxgraph.bootstrap.rrect;rSize=8;fillColor=#0085FC;strokeColor=none;fontColor=#ffffff;whiteSpace=wrap;" vertex="1" parent="747">
                    <mxGeometry x="1" y="0.5" width="20" height="16" relative="1" as="geometry">
                        <mxPoint x="-38" y="-8" as="offset"/>
                    </mxGeometry>
                </mxCell>
                <mxCell id="740" value="Buscar" style="html=1;shadow=0;dashed=0;shape=mxgraph.bootstrap.rrect;rSize=5;strokeColor=none;fillColor=#0085FC;fontColor=#ffffff;whiteSpace=wrap;align=center;verticalAlign=middle;fontStyle=0;fontSize=14;spacing=14;" vertex="1" parent="688">
                    <mxGeometry x="290" y="240" width="60" height="30" as="geometry"/>
                </mxCell>
                <mxCell id="739" value="Buscar persona ..." style="html=1;shadow=0;dashed=0;shape=mxgraph.bootstrap.rrect;rSize=5;strokeColor=#999999;fillColor=#ffffff;fontColor=#777777;whiteSpace=wrap;align=left;verticalAlign=middle;fontStyle=0;fontSize=14;spacing=15;" vertex="1" parent="688">
                    <mxGeometry x="40" y="240" width="240" height="30" as="geometry"/>
                </mxCell>
                <mxCell id="749" value="" style="strokeWidth=1;shadow=0;dashed=0;align=center;html=1;shape=mxgraph.mockup.containers.browserWindow;rSize=0;strokeColor=#666666;strokeColor2=#008cff;strokeColor3=#c4c4c4;mainText=,;recursiveResize=0;" vertex="1" parent="1">
                    <mxGeometry x="-1390" y="8890" width="960" height="790" as="geometry"/>
                </mxCell>
                <mxCell id="750" value="Page 1" style="strokeWidth=1;shadow=0;dashed=0;align=center;html=1;shape=mxgraph.mockup.containers.anchor;fontSize=17;fontColor=#666666;align=left;whiteSpace=wrap;" vertex="1" parent="749">
                    <mxGeometry x="60" y="12" width="110" height="26" as="geometry"/>
                </mxCell>
                <mxCell id="751" value="https://www.draw.io" style="strokeWidth=1;shadow=0;dashed=0;align=center;html=1;shape=mxgraph.mockup.containers.anchor;rSize=0;fontSize=17;fontColor=#666666;align=left;" vertex="1" parent="749">
                    <mxGeometry x="130" y="60" width="250" height="26" as="geometry"/>
                </mxCell>
                <mxCell id="752" value="Navbar" style="html=1;shadow=0;dashed=0;fillColor=#F8F9FA;strokeColor=none;fontSize=16;fontColor=#181819;align=left;spacing=15;" vertex="1" parent="749">
                    <mxGeometry y="110" width="960" height="60" as="geometry"/>
                </mxCell>
                <mxCell id="753" value="Home" style="fillColor=none;strokeColor=none;fontSize=14;fontColor=#181819;align=center;" vertex="1" parent="752">
                    <mxGeometry width="70" height="40" relative="1" as="geometry">
                        <mxPoint x="70" y="10" as="offset"/>
                    </mxGeometry>
                </mxCell>
                <mxCell id="754" value="Mi Cuenta" style="fillColor=none;strokeColor=none;fontSize=14;fontColor=#7C7C7D;align=right;spacingRight=20;" vertex="1" parent="752">
                    <mxGeometry width="100" height="40" relative="1" as="geometry">
                        <mxPoint x="136" y="10" as="offset"/>
                    </mxGeometry>
                </mxCell>
                <mxCell id="755" value="" style="shape=triangle;direction=south;fillColor=#7C7C7D;strokeColor=none;perimeter=none;" vertex="1" parent="754">
                    <mxGeometry x="1" y="0.5" width="10" height="5" relative="1" as="geometry">
                        <mxPoint x="-17" y="-2.5" as="offset"/>
                    </mxGeometry>
                </mxCell>
                <mxCell id="756" value="Login" style="html=1;shadow=0;dashed=0;shape=mxgraph.bootstrap.rrect;rSize=5;fontSize=14;fontColor=#33A64C;strokeColor=#33A64C;fillColor=none;" vertex="1" parent="752">
                    <mxGeometry x="1" width="70" height="40" relative="1" as="geometry">
                        <mxPoint x="-80" y="10" as="offset"/>
                    </mxGeometry>
                </mxCell>
                <mxCell id="757" value="chat" style="html=1;shadow=0;dashed=0;shape=mxgraph.bootstrap.rrect;rSize=5;fontSize=14;fontColor=#33A64C;strokeColor=#33A64C;fillColor=none;" vertex="1" parent="752">
                    <mxGeometry x="796" y="10" width="70" height="40" as="geometry"/>
                </mxCell>
                <mxCell id="758" value="Compras y Ventas" style="fillColor=none;strokeColor=none;fontSize=14;fontColor=#7C7C7D;align=right;spacingRight=20;" vertex="1" parent="752">
                    <mxGeometry x="240" y="10" width="146" height="40" as="geometry"/>
                </mxCell>
                <mxCell id="759" value="" style="shape=triangle;direction=south;fillColor=#7C7C7D;strokeColor=none;perimeter=none;" vertex="1" parent="758">
                    <mxGeometry x="1" y="0.5" width="10" height="5" relative="1" as="geometry">
                        <mxPoint x="-17" y="-2.5" as="offset"/>
                    </mxGeometry>
                </mxCell>
                <mxCell id="760" value="Articulos" style="fillColor=none;strokeColor=none;fontSize=14;fontColor=#7C7C7D;align=right;spacingRight=20;" vertex="1" parent="752">
                    <mxGeometry x="394" y="10" width="86" height="40" as="geometry"/>
                </mxCell>
                <mxCell id="761" value="" style="shape=triangle;direction=south;fillColor=#7C7C7D;strokeColor=none;perimeter=none;" vertex="1" parent="760">
                    <mxGeometry x="1" y="0.5" width="10" height="5" relative="1" as="geometry">
                        <mxPoint x="-17" y="-2.5" as="offset"/>
                    </mxGeometry>
                </mxCell>
                <mxCell id="790" value="" style="html=1;shadow=0;dashed=0;shape=mxgraph.bootstrap.rrect;rSize=5;strokeColor=#DFDFDF;html=1;whiteSpace=wrap;fillColor=#FFFFFF;fontColor=#000000;fontSize=20;" vertex="1" parent="749">
                    <mxGeometry x="280" y="260" width="400" height="340" as="geometry"/>
                </mxCell>
                <mxCell id="793" value="Iniciar sesion" style="html=1;shadow=0;dashed=0;shape=mxgraph.bootstrap.rrect;rSize=5;perimeter=none;whiteSpace=wrap;fillColor=#0085FC;strokeColor=none;fontColor=#ffffff;resizeWidth=1;fontSize=14;" vertex="1" parent="790">
                    <mxGeometry y="1" width="110" height="40" relative="1" as="geometry">
                        <mxPoint x="20" y="-80" as="offset"/>
                    </mxGeometry>
                </mxCell>
                <mxCell id="794" value="Iniciar sesion" style="html=1;shadow=0;dashed=0;shape=mxgraph.bootstrap.rrect;rSize=5;perimeter=none;whiteSpace=wrap;fillColor=#0085FC;strokeColor=none;fontColor=#ffffff;resizeWidth=1;fontSize=14;" vertex="1" parent="790">
                    <mxGeometry width="210" height="40" as="geometry"/>
                </mxCell>
                <mxCell id="795" value="Registrarse" style="html=1;shadow=0;dashed=0;shape=mxgraph.bootstrap.rrect;rSize=5;strokeColor=none;strokeWidth=1;fillColor=#6C767D;fontColor=#FFFFFF;whiteSpace=wrap;align=center;verticalAlign=middle;spacingLeft=0;fontStyle=1;fontSize=14;spacing=5;" vertex="1" parent="790">
                    <mxGeometry x="210" width="190" height="40" as="geometry"/>
                </mxCell>
                <mxCell id="796" value="Emai;" style="fillColor=none;strokeColor=none;align=left;fontSize=14;" vertex="1" parent="790">
                    <mxGeometry x="20" y="70" width="100" height="30" as="geometry"/>
                </mxCell>
                <mxCell id="797" value="" style="html=1;shadow=0;dashed=0;shape=mxgraph.bootstrap.rrect;rSize=5;fillColor=#ffffff;strokeColor=#CED4DA;align=left;spacing=15;fontSize=14;fontColor=#6C767D;" vertex="1" parent="790">
                    <mxGeometry x="20" y="100" width="360" height="40" as="geometry"/>
                </mxCell>
                <mxCell id="813" value="Password" style="fillColor=none;strokeColor=none;align=left;fontSize=14;" vertex="1" parent="790">
                    <mxGeometry x="20" y="150" width="100" height="30" as="geometry"/>
                </mxCell>
                <mxCell id="814" value="&lt;br&gt;" style="html=1;shadow=0;dashed=0;shape=mxgraph.bootstrap.rrect;rSize=5;fillColor=#ffffff;strokeColor=#CED4DA;align=left;spacing=15;fontSize=14;fontColor=#6C767D;" vertex="1" parent="790">
                    <mxGeometry x="20" y="180" width="360" height="40" as="geometry"/>
                </mxCell>
                <mxCell id="815" value="" style="strokeWidth=1;shadow=0;dashed=0;align=center;html=1;shape=mxgraph.mockup.containers.browserWindow;rSize=0;strokeColor=#666666;strokeColor2=#008cff;strokeColor3=#c4c4c4;mainText=,;recursiveResize=0;" vertex="1" parent="1">
                    <mxGeometry x="-1390" y="9690" width="960" height="880" as="geometry"/>
                </mxCell>
                <mxCell id="816" value="Page 1" style="strokeWidth=1;shadow=0;dashed=0;align=center;html=1;shape=mxgraph.mockup.containers.anchor;fontSize=17;fontColor=#666666;align=left;whiteSpace=wrap;" vertex="1" parent="815">
                    <mxGeometry x="60" y="12" width="110" height="26" as="geometry"/>
                </mxCell>
                <mxCell id="817" value="https://www.draw.io" style="strokeWidth=1;shadow=0;dashed=0;align=center;html=1;shape=mxgraph.mockup.containers.anchor;rSize=0;fontSize=17;fontColor=#666666;align=left;" vertex="1" parent="815">
                    <mxGeometry x="130" y="60" width="250" height="26" as="geometry"/>
                </mxCell>
                <mxCell id="818" value="Navbar" style="html=1;shadow=0;dashed=0;fillColor=#F8F9FA;strokeColor=none;fontSize=16;fontColor=#181819;align=left;spacing=15;" vertex="1" parent="815">
                    <mxGeometry y="110" width="960" height="60" as="geometry"/>
                </mxCell>
                <mxCell id="819" value="Home" style="fillColor=none;strokeColor=none;fontSize=14;fontColor=#181819;align=center;" vertex="1" parent="818">
                    <mxGeometry width="70" height="40" relative="1" as="geometry">
                        <mxPoint x="70" y="10" as="offset"/>
                    </mxGeometry>
                </mxCell>
                <mxCell id="820" value="Mi Cuenta" style="fillColor=none;strokeColor=none;fontSize=14;fontColor=#7C7C7D;align=right;spacingRight=20;" vertex="1" parent="818">
                    <mxGeometry width="100" height="40" relative="1" as="geometry">
                        <mxPoint x="136" y="10" as="offset"/>
                    </mxGeometry>
                </mxCell>
                <mxCell id="821" value="" style="shape=triangle;direction=south;fillColor=#7C7C7D;strokeColor=none;perimeter=none;" vertex="1" parent="820">
                    <mxGeometry x="1" y="0.5" width="10" height="5" relative="1" as="geometry">
                        <mxPoint x="-17" y="-2.5" as="offset"/>
                    </mxGeometry>
                </mxCell>
                <mxCell id="822" value="Login" style="html=1;shadow=0;dashed=0;shape=mxgraph.bootstrap.rrect;rSize=5;fontSize=14;fontColor=#33A64C;strokeColor=#33A64C;fillColor=none;" vertex="1" parent="818">
                    <mxGeometry x="1" width="70" height="40" relative="1" as="geometry">
                        <mxPoint x="-80" y="10" as="offset"/>
                    </mxGeometry>
                </mxCell>
                <mxCell id="823" value="chat" style="html=1;shadow=0;dashed=0;shape=mxgraph.bootstrap.rrect;rSize=5;fontSize=14;fontColor=#33A64C;strokeColor=#33A64C;fillColor=none;" vertex="1" parent="818">
                    <mxGeometry x="796" y="10" width="70" height="40" as="geometry"/>
                </mxCell>
                <mxCell id="824" value="Compras y Ventas" style="fillColor=none;strokeColor=none;fontSize=14;fontColor=#7C7C7D;align=right;spacingRight=20;" vertex="1" parent="818">
                    <mxGeometry x="240" y="10" width="146" height="40" as="geometry"/>
                </mxCell>
                <mxCell id="825" value="" style="shape=triangle;direction=south;fillColor=#7C7C7D;strokeColor=none;perimeter=none;" vertex="1" parent="824">
                    <mxGeometry x="1" y="0.5" width="10" height="5" relative="1" as="geometry">
                        <mxPoint x="-17" y="-2.5" as="offset"/>
                    </mxGeometry>
                </mxCell>
                <mxCell id="826" value="Articulos" style="fillColor=none;strokeColor=none;fontSize=14;fontColor=#7C7C7D;align=right;spacingRight=20;" vertex="1" parent="818">
                    <mxGeometry x="394" y="10" width="86" height="40" as="geometry"/>
                </mxCell>
                <mxCell id="827" value="" style="shape=triangle;direction=south;fillColor=#7C7C7D;strokeColor=none;perimeter=none;" vertex="1" parent="826">
                    <mxGeometry x="1" y="0.5" width="10" height="5" relative="1" as="geometry">
                        <mxPoint x="-17" y="-2.5" as="offset"/>
                    </mxGeometry>
                </mxCell>
                <mxCell id="828" value="" style="html=1;shadow=0;dashed=0;shape=mxgraph.bootstrap.rrect;rSize=5;strokeColor=#DFDFDF;html=1;whiteSpace=wrap;fillColor=#FFFFFF;fontColor=#000000;fontSize=20;" vertex="1" parent="815">
                    <mxGeometry x="280" y="200" width="400" height="650" as="geometry"/>
                </mxCell>
                <mxCell id="829" value="Iniciar sesion" style="html=1;shadow=0;dashed=0;shape=mxgraph.bootstrap.rrect;rSize=5;perimeter=none;whiteSpace=wrap;fillColor=#0085FC;strokeColor=none;fontColor=#ffffff;resizeWidth=1;fontSize=14;" vertex="1" parent="828">
                    <mxGeometry y="1" width="110" height="40" relative="1" as="geometry">
                        <mxPoint x="20" y="-170" as="offset"/>
                    </mxGeometry>
                </mxCell>
                <mxCell id="830" value="Registrarse" style="html=1;shadow=0;dashed=0;shape=mxgraph.bootstrap.rrect;rSize=5;perimeter=none;whiteSpace=wrap;fillColor=#0085FC;strokeColor=none;fontColor=#ffffff;resizeWidth=1;fontSize=14;" vertex="1" parent="828">
                    <mxGeometry x="190" width="210" height="50" as="geometry"/>
                </mxCell>
                <mxCell id="831" value="&lt;span style=&quot;font-weight: 400;&quot;&gt;Iniciar sesion&lt;/span&gt;" style="html=1;shadow=0;dashed=0;shape=mxgraph.bootstrap.rrect;rSize=5;strokeColor=none;strokeWidth=1;fillColor=#6C767D;fontColor=#FFFFFF;whiteSpace=wrap;align=center;verticalAlign=middle;spacingLeft=0;fontStyle=1;fontSize=14;spacing=5;" vertex="1" parent="828">
                    <mxGeometry width="190" height="50" as="geometry"/>
                </mxCell>
                <mxCell id="832" value="Nombres" style="fillColor=none;strokeColor=none;align=left;fontSize=14;" vertex="1" parent="828">
                    <mxGeometry x="20" y="60" width="100" height="32.94" as="geometry"/>
                </mxCell>
                <mxCell id="833" value="" style="html=1;shadow=0;dashed=0;shape=mxgraph.bootstrap.rrect;rSize=5;fillColor=#ffffff;strokeColor=#CED4DA;align=left;spacing=15;fontSize=14;fontColor=#6C767D;" vertex="1" parent="828">
                    <mxGeometry x="20" y="92.94" width="360" height="29.99" as="geometry"/>
                </mxCell>
                <mxCell id="842" value="Apellidos" style="fillColor=none;strokeColor=none;align=left;fontSize=14;" vertex="1" parent="828">
                    <mxGeometry x="20" y="122.93000000000029" width="100" height="32.94" as="geometry"/>
                </mxCell>
                <mxCell id="843" value="" style="html=1;shadow=0;dashed=0;shape=mxgraph.bootstrap.rrect;rSize=5;fillColor=#ffffff;strokeColor=#CED4DA;align=left;spacing=15;fontSize=14;fontColor=#6C767D;" vertex="1" parent="828">
                    <mxGeometry x="20" y="155.8700000000008" width="360" height="29.99" as="geometry"/>
                </mxCell>
                <mxCell id="844" value="Fecha Nacimiento" style="fillColor=none;strokeColor=none;align=left;fontSize=14;" vertex="1" parent="828">
                    <mxGeometry x="20" y="185.86000000000058" width="100" height="32.94" as="geometry"/>
                </mxCell>
                <mxCell id="845" value="" style="html=1;shadow=0;dashed=0;shape=mxgraph.bootstrap.rrect;rSize=5;fillColor=#ffffff;strokeColor=#CED4DA;align=left;spacing=15;fontSize=14;fontColor=#6C767D;" vertex="1" parent="828">
                    <mxGeometry x="20" y="218.8000000000011" width="360" height="29.99" as="geometry"/>
                </mxCell>
                <mxCell id="846" value="Correo Electronico" style="fillColor=none;strokeColor=none;align=left;fontSize=14;" vertex="1" parent="828">
                    <mxGeometry x="20" y="250" width="100" height="32.94" as="geometry"/>
                </mxCell>
                <mxCell id="847" value="" style="html=1;shadow=0;dashed=0;shape=mxgraph.bootstrap.rrect;rSize=5;fillColor=#ffffff;strokeColor=#CED4DA;align=left;spacing=15;fontSize=14;fontColor=#6C767D;" vertex="1" parent="828">
                    <mxGeometry x="20" y="282.9400000000005" width="360" height="29.99" as="geometry"/>
                </mxCell>
                <mxCell id="848" value="Password" style="fillColor=none;strokeColor=none;align=left;fontSize=14;" vertex="1" parent="828">
                    <mxGeometry x="20" y="312.9300000000003" width="100" height="32.94" as="geometry"/>
                </mxCell>
                <mxCell id="849" value="" style="html=1;shadow=0;dashed=0;shape=mxgraph.bootstrap.rrect;rSize=5;fillColor=#ffffff;strokeColor=#CED4DA;align=left;spacing=15;fontSize=14;fontColor=#6C767D;" vertex="1" parent="828">
                    <mxGeometry x="20" y="345.8700000000008" width="360" height="29.99" as="geometry"/>
                </mxCell>
                <mxCell id="850" value="Password" style="fillColor=none;strokeColor=none;align=left;fontSize=14;" vertex="1" parent="828">
                    <mxGeometry x="20" y="375.8600000000006" width="100" height="32.94" as="geometry"/>
                </mxCell>
                <mxCell id="851" value="" style="html=1;shadow=0;dashed=0;shape=mxgraph.bootstrap.rrect;rSize=5;fillColor=#ffffff;strokeColor=#CED4DA;align=left;spacing=15;fontSize=14;fontColor=#6C767D;" vertex="1" parent="828">
                    <mxGeometry x="20" y="408.8000000000011" width="360" height="29.99" as="geometry"/>
                </mxCell>
                <mxCell id="852" value="" style="strokeWidth=1;shadow=0;dashed=0;align=center;html=1;shape=mxgraph.mockup.containers.browserWindow;rSize=0;strokeColor=#666666;strokeColor2=#008cff;strokeColor3=#c4c4c4;mainText=,;recursiveResize=0;" vertex="1" parent="1">
                    <mxGeometry x="630" y="20" width="960" height="540" as="geometry"/>
                </mxCell>
                <mxCell id="853" value="Page 1" style="strokeWidth=1;shadow=0;dashed=0;align=center;html=1;shape=mxgraph.mockup.containers.anchor;fontSize=17;fontColor=#666666;align=left;whiteSpace=wrap;" vertex="1" parent="852">
                    <mxGeometry x="60" y="12" width="110" height="26" as="geometry"/>
                </mxCell>
                <mxCell id="854" value="https://www.draw.io" style="strokeWidth=1;shadow=0;dashed=0;align=center;html=1;shape=mxgraph.mockup.containers.anchor;rSize=0;fontSize=17;fontColor=#666666;align=left;" vertex="1" parent="852">
                    <mxGeometry x="130" y="60" width="250" height="26" as="geometry"/>
                </mxCell>
                <mxCell id="855" value="Navbar" style="html=1;shadow=0;dashed=0;fillColor=#F8F9FA;strokeColor=none;fontSize=16;fontColor=#181819;align=left;spacing=15;" vertex="1" parent="852">
                    <mxGeometry y="110" width="960" height="60" as="geometry"/>
                </mxCell>
                <mxCell id="856" value="Home" style="fillColor=none;strokeColor=none;fontSize=14;fontColor=#181819;align=center;" vertex="1" parent="855">
                    <mxGeometry width="70" height="40" relative="1" as="geometry">
                        <mxPoint x="70" y="10" as="offset"/>
                    </mxGeometry>
                </mxCell>
                <mxCell id="857" value="Mi Cuenta" style="fillColor=none;strokeColor=none;fontSize=14;fontColor=#7C7C7D;align=right;spacingRight=20;" vertex="1" parent="855">
                    <mxGeometry width="100" height="40" relative="1" as="geometry">
                        <mxPoint x="136" y="10" as="offset"/>
                    </mxGeometry>
                </mxCell>
                <mxCell id="858" value="" style="shape=triangle;direction=south;fillColor=#7C7C7D;strokeColor=none;perimeter=none;" vertex="1" parent="857">
                    <mxGeometry x="1" y="0.5" width="10" height="5" relative="1" as="geometry">
                        <mxPoint x="-17" y="-2.5" as="offset"/>
                    </mxGeometry>
                </mxCell>
                <mxCell id="859" value="Login" style="html=1;shadow=0;dashed=0;shape=mxgraph.bootstrap.rrect;rSize=5;fontSize=14;fontColor=#33A64C;strokeColor=#33A64C;fillColor=none;" vertex="1" parent="855">
                    <mxGeometry x="1" width="70" height="40" relative="1" as="geometry">
                        <mxPoint x="-80" y="10" as="offset"/>
                    </mxGeometry>
                </mxCell>
                <mxCell id="860" value="chat" style="html=1;shadow=0;dashed=0;shape=mxgraph.bootstrap.rrect;rSize=5;fontSize=14;fontColor=#33A64C;strokeColor=#33A64C;fillColor=none;" vertex="1" parent="855">
                    <mxGeometry x="796" y="10" width="70" height="40" as="geometry"/>
                </mxCell>
                <mxCell id="861" value="Compras y Ventas" style="fillColor=none;strokeColor=none;fontSize=14;fontColor=#7C7C7D;align=right;spacingRight=20;" vertex="1" parent="855">
                    <mxGeometry x="240" y="10" width="146" height="40" as="geometry"/>
                </mxCell>
                <mxCell id="862" value="" style="shape=triangle;direction=south;fillColor=#7C7C7D;strokeColor=none;perimeter=none;" vertex="1" parent="861">
                    <mxGeometry x="1" y="0.5" width="10" height="5" relative="1" as="geometry">
                        <mxPoint x="-17" y="-2.5" as="offset"/>
                    </mxGeometry>
                </mxCell>
                <mxCell id="863" value="Articulos" style="fillColor=none;strokeColor=none;fontSize=14;fontColor=#7C7C7D;align=right;spacingRight=20;" vertex="1" parent="855">
                    <mxGeometry x="394" y="10" width="86" height="40" as="geometry"/>
                </mxCell>
                <mxCell id="864" value="" style="shape=triangle;direction=south;fillColor=#7C7C7D;strokeColor=none;perimeter=none;" vertex="1" parent="863">
                    <mxGeometry x="1" y="0.5" width="10" height="5" relative="1" as="geometry">
                        <mxPoint x="-17" y="-2.5" as="offset"/>
                    </mxGeometry>
                </mxCell>
                <mxCell id="865" value="" style="html=1;shadow=0;dashed=0;shape=mxgraph.bootstrap.rrect;rSize=5;strokeColor=#DFDFDF;html=1;whiteSpace=wrap;fillColor=#ffffff;fontColor=#000000;verticalAlign=top;align=left;spacing=20;spacingBottom=0;fontSize=14;spacingTop=160;" vertex="1" parent="852">
                    <mxGeometry x="62.5" y="240" width="835" height="180" as="geometry"/>
                </mxCell>
                <mxCell id="866" value="" style="html=1;shadow=0;dashed=0;shape=mxgraph.bootstrap.rrect;rSize=5;strokeColor=#DEE2E6;html=1;whiteSpace=wrap;fillColor=#ffffff;fontColor=#0085FC;fontSize=14;" vertex="1" parent="852">
                    <mxGeometry x="370" y="490" width="220" height="30" as="geometry"/>
                </mxCell>
                <mxCell id="867" value="Previous" style="strokeColor=inherit;fillColor=inherit;gradientColor=inherit;html=1;shadow=0;dashed=0;shape=mxgraph.bootstrap.leftButton;rSize=5;perimeter=none;whiteSpace=wrap;resizeHeight=1;fontColor=#6C767D;fontSize=14;" vertex="1" parent="866">
                    <mxGeometry width="70" height="30" relative="1" as="geometry"/>
                </mxCell>
                <mxCell id="868" value="1" style="strokeColor=inherit;fillColor=inherit;gradientColor=inherit;fontColor=inherit;html=1;shadow=0;dashed=0;perimeter=none;whiteSpace=wrap;resizeHeight=1;fontSize=14;" vertex="1" parent="866">
                    <mxGeometry width="30" height="30" relative="1" as="geometry">
                        <mxPoint x="70" as="offset"/>
                    </mxGeometry>
                </mxCell>
                <mxCell id="869" value="2" style="html=1;shadow=0;dashed=0;perimeter=none;whiteSpace=wrap;resizeHeight=1;fillColor=#0085FC;strokeColor=none;fontColor=#ffffff;fontSize=14;" vertex="1" parent="866">
                    <mxGeometry width="30" height="30" relative="1" as="geometry">
                        <mxPoint x="100" as="offset"/>
                    </mxGeometry>
                </mxCell>
                <mxCell id="870" value="3" style="strokeColor=inherit;fillColor=inherit;gradientColor=inherit;fontColor=inherit;html=1;shadow=0;dashed=0;perimeter=none;whiteSpace=wrap;resizeHeight=1;fontSize=14;" vertex="1" parent="866">
                    <mxGeometry width="30" height="30" relative="1" as="geometry">
                        <mxPoint x="130" as="offset"/>
                    </mxGeometry>
                </mxCell>
                <mxCell id="871" value="Next" style="strokeColor=inherit;fillColor=inherit;gradientColor=inherit;fontColor=inherit;html=1;shadow=0;dashed=0;shape=mxgraph.bootstrap.rightButton;rSize=5;perimeter=none;whiteSpace=wrap;resizeHeight=1;fontSize=14;" vertex="1" parent="866">
                    <mxGeometry x="1" width="60" height="30" relative="1" as="geometry">
                        <mxPoint x="-60" as="offset"/>
                    </mxGeometry>
                </mxCell>
                <mxCell id="872" value="Image cap" style="html=1;shadow=0;dashed=0;shape=mxgraph.bootstrap.topButton;rSize=5;perimeter=none;whiteSpace=wrap;fillColor=#868E96;strokeColor=#DFDFDF;fontColor=#DEE2E6;resizeWidth=1;fontSize=18;" vertex="1" parent="852">
                    <mxGeometry x="100" y="260" width="170" height="140" as="geometry"/>
                </mxCell>
                <mxCell id="873" value="Lorem ipsum dolor sit amet, consectetur adipisicing elit, sed do eiusmod tempor incididunt ut labore et dolore magna aliqua. Ut enim ad minim veniam, quis nostrud exercitation ullamco laboris nisi ut aliquip ex ea commodo consequat. Duis aute irure dolor in reprehenderit in voluptate velit esse cillum dolore eu fugiat nulla pariatur.&amp;nbsp;&lt;br&gt;" style="text;spacingTop=-5;whiteSpace=wrap;html=1;align=left;fontSize=12;fontFamily=Helvetica;fillColor=none;strokeColor=none;" vertex="1" parent="852">
                    <mxGeometry x="300" y="270" width="360" height="120" as="geometry"/>
                </mxCell>
                <mxCell id="874" value="Aprovar Publicacion" style="fillColor=none;strokeColor=none;align=left;fontSize=20;" vertex="1" parent="852">
                    <mxGeometry x="62.5" y="180" width="70" height="40" as="geometry"/>
                </mxCell>
                <mxCell id="875" value="Aprobar" style="html=1;shadow=0;dashed=0;shape=mxgraph.bootstrap.rrect;rSize=5;strokeColor=none;strokeWidth=1;fillColor=#0085FC;fontColor=#FFFFFF;whiteSpace=wrap;align=center;verticalAlign=middle;spacingLeft=0;fontStyle=0;fontSize=16;spacing=5;" vertex="1" parent="852">
                    <mxGeometry x="740" y="310" width="80" height="40" as="geometry"/>
                </mxCell>
            </root>
        </mxGraphModel>
    </diagram>
</mxfile>